<mxfile host="app.diagrams.net" modified="2023-06-03T20:13:15.517Z" agent="Mozilla/5.0 (Macintosh; Intel Mac OS X 10_15_7) AppleWebKit/537.36 (KHTML, like Gecko) Chrome/113.0.0.0 Safari/537.36" etag="VKnWpq1GnEYda38hl0ng" version="21.3.7" type="github">
  <diagram name="Page-1" id="fs79J-ucJe77K3Y8tH45">
    <mxGraphModel dx="1990" dy="1769" grid="1" gridSize="10" guides="1" tooltips="1" connect="1" arrows="1" fold="1" page="1" pageScale="1" pageWidth="850" pageHeight="1100" math="0" shadow="0">
      <root>
        <mxCell id="0" />
        <mxCell id="1" parent="0" />
        <mxCell id="N7fRc56kS8bR0nnPCuzB-1" value="GENERAL_LEDGER" style="shape=table;startSize=30;container=1;collapsible=0;childLayout=tableLayout;fixedRows=1;rowLines=0;fontStyle=0;strokeColor=#82b366;fontSize=16;fillColor=#d5e8d4;" parent="1" vertex="1">
          <mxGeometry x="-100" y="-971" width="480" height="330" as="geometry" />
        </mxCell>
        <mxCell id="N7fRc56kS8bR0nnPCuzB-2" value="" style="shape=tableRow;horizontal=0;startSize=0;swimlaneHead=0;swimlaneBody=0;top=0;left=0;bottom=0;right=0;collapsible=0;dropTarget=0;fillColor=none;points=[[0,0.5],[1,0.5]];portConstraint=eastwest;strokeColor=inherit;fontSize=16;" parent="N7fRc56kS8bR0nnPCuzB-1" vertex="1">
          <mxGeometry y="30" width="480" height="30" as="geometry" />
        </mxCell>
        <mxCell id="N7fRc56kS8bR0nnPCuzB-3" value="1" style="shape=partialRectangle;html=1;whiteSpace=wrap;connectable=0;fillColor=none;top=0;left=0;bottom=0;right=0;overflow=hidden;pointerEvents=1;strokeColor=inherit;fontSize=16;" parent="N7fRc56kS8bR0nnPCuzB-2" vertex="1">
          <mxGeometry width="61" height="30" as="geometry">
            <mxRectangle width="61" height="30" as="alternateBounds" />
          </mxGeometry>
        </mxCell>
        <mxCell id="N7fRc56kS8bR0nnPCuzB-4" value="ID" style="shape=partialRectangle;html=1;whiteSpace=wrap;connectable=0;fillColor=none;top=0;left=0;bottom=0;right=0;align=left;spacingLeft=6;overflow=hidden;strokeColor=inherit;fontSize=16;" parent="N7fRc56kS8bR0nnPCuzB-2" vertex="1">
          <mxGeometry x="61" width="368" height="30" as="geometry">
            <mxRectangle width="368" height="30" as="alternateBounds" />
          </mxGeometry>
        </mxCell>
        <mxCell id="N7fRc56kS8bR0nnPCuzB-5" style="shape=partialRectangle;html=1;whiteSpace=wrap;connectable=0;fillColor=none;top=0;left=0;bottom=0;right=0;align=left;spacingLeft=6;overflow=hidden;strokeColor=inherit;fontSize=16;" parent="N7fRc56kS8bR0nnPCuzB-2" vertex="1">
          <mxGeometry x="429" width="51" height="30" as="geometry">
            <mxRectangle width="51" height="30" as="alternateBounds" />
          </mxGeometry>
        </mxCell>
        <mxCell id="N7fRc56kS8bR0nnPCuzB-6" style="shape=tableRow;horizontal=0;startSize=0;swimlaneHead=0;swimlaneBody=0;top=0;left=0;bottom=0;right=0;collapsible=0;dropTarget=0;fillColor=none;points=[[0,0.5],[1,0.5]];portConstraint=eastwest;strokeColor=inherit;fontSize=16;" parent="N7fRc56kS8bR0nnPCuzB-1" vertex="1">
          <mxGeometry y="60" width="480" height="30" as="geometry" />
        </mxCell>
        <mxCell id="N7fRc56kS8bR0nnPCuzB-7" value="2" style="shape=partialRectangle;html=1;whiteSpace=wrap;connectable=0;fillColor=none;top=0;left=0;bottom=0;right=0;overflow=hidden;strokeColor=inherit;fontSize=16;" parent="N7fRc56kS8bR0nnPCuzB-6" vertex="1">
          <mxGeometry width="61" height="30" as="geometry">
            <mxRectangle width="61" height="30" as="alternateBounds" />
          </mxGeometry>
        </mxCell>
        <mxCell id="N7fRc56kS8bR0nnPCuzB-8" value="NAME" style="shape=partialRectangle;html=1;whiteSpace=wrap;connectable=0;fillColor=none;top=0;left=0;bottom=0;right=0;align=left;spacingLeft=6;overflow=hidden;strokeColor=inherit;fontSize=16;" parent="N7fRc56kS8bR0nnPCuzB-6" vertex="1">
          <mxGeometry x="61" width="368" height="30" as="geometry">
            <mxRectangle width="368" height="30" as="alternateBounds" />
          </mxGeometry>
        </mxCell>
        <mxCell id="N7fRc56kS8bR0nnPCuzB-9" style="shape=partialRectangle;html=1;whiteSpace=wrap;connectable=0;fillColor=none;top=0;left=0;bottom=0;right=0;align=left;spacingLeft=6;overflow=hidden;strokeColor=inherit;fontSize=16;" parent="N7fRc56kS8bR0nnPCuzB-6" vertex="1">
          <mxGeometry x="429" width="51" height="30" as="geometry">
            <mxRectangle width="51" height="30" as="alternateBounds" />
          </mxGeometry>
        </mxCell>
        <mxCell id="N7fRc56kS8bR0nnPCuzB-10" value="" style="shape=tableRow;horizontal=0;startSize=0;swimlaneHead=0;swimlaneBody=0;top=0;left=0;bottom=0;right=0;collapsible=0;dropTarget=0;fillColor=none;points=[[0,0.5],[1,0.5]];portConstraint=eastwest;strokeColor=inherit;fontSize=16;" parent="N7fRc56kS8bR0nnPCuzB-1" vertex="1">
          <mxGeometry y="90" width="480" height="30" as="geometry" />
        </mxCell>
        <mxCell id="N7fRc56kS8bR0nnPCuzB-11" value="3" style="shape=partialRectangle;html=1;whiteSpace=wrap;connectable=0;fillColor=none;top=0;left=0;bottom=0;right=0;overflow=hidden;strokeColor=inherit;fontSize=16;" parent="N7fRc56kS8bR0nnPCuzB-10" vertex="1">
          <mxGeometry width="61" height="30" as="geometry">
            <mxRectangle width="61" height="30" as="alternateBounds" />
          </mxGeometry>
        </mxCell>
        <mxCell id="N7fRc56kS8bR0nnPCuzB-12" value="GL_CODE" style="shape=partialRectangle;html=1;whiteSpace=wrap;connectable=0;fillColor=none;top=0;left=0;bottom=0;right=0;align=left;spacingLeft=6;overflow=hidden;strokeColor=inherit;fontSize=16;" parent="N7fRc56kS8bR0nnPCuzB-10" vertex="1">
          <mxGeometry x="61" width="368" height="30" as="geometry">
            <mxRectangle width="368" height="30" as="alternateBounds" />
          </mxGeometry>
        </mxCell>
        <mxCell id="N7fRc56kS8bR0nnPCuzB-13" style="shape=partialRectangle;html=1;whiteSpace=wrap;connectable=0;fillColor=none;top=0;left=0;bottom=0;right=0;align=left;spacingLeft=6;overflow=hidden;strokeColor=inherit;fontSize=16;" parent="N7fRc56kS8bR0nnPCuzB-10" vertex="1">
          <mxGeometry x="429" width="51" height="30" as="geometry">
            <mxRectangle width="51" height="30" as="alternateBounds" />
          </mxGeometry>
        </mxCell>
        <mxCell id="N7fRc56kS8bR0nnPCuzB-14" style="shape=tableRow;horizontal=0;startSize=0;swimlaneHead=0;swimlaneBody=0;top=0;left=0;bottom=0;right=0;collapsible=0;dropTarget=0;fillColor=none;points=[[0,0.5],[1,0.5]];portConstraint=eastwest;strokeColor=inherit;fontSize=16;" parent="N7fRc56kS8bR0nnPCuzB-1" vertex="1">
          <mxGeometry y="120" width="480" height="30" as="geometry" />
        </mxCell>
        <mxCell id="N7fRc56kS8bR0nnPCuzB-15" value="4" style="shape=partialRectangle;html=1;whiteSpace=wrap;connectable=0;fillColor=none;top=0;left=0;bottom=0;right=0;overflow=hidden;strokeColor=inherit;fontSize=16;" parent="N7fRc56kS8bR0nnPCuzB-14" vertex="1">
          <mxGeometry width="61" height="30" as="geometry">
            <mxRectangle width="61" height="30" as="alternateBounds" />
          </mxGeometry>
        </mxCell>
        <mxCell id="N7fRc56kS8bR0nnPCuzB-16" value="CLASSIFICATION" style="shape=partialRectangle;html=1;whiteSpace=wrap;connectable=0;fillColor=none;top=0;left=0;bottom=0;right=0;align=left;spacingLeft=6;overflow=hidden;strokeColor=inherit;fontSize=16;" parent="N7fRc56kS8bR0nnPCuzB-14" vertex="1">
          <mxGeometry x="61" width="368" height="30" as="geometry">
            <mxRectangle width="368" height="30" as="alternateBounds" />
          </mxGeometry>
        </mxCell>
        <mxCell id="N7fRc56kS8bR0nnPCuzB-17" style="shape=partialRectangle;html=1;whiteSpace=wrap;connectable=0;fillColor=none;top=0;left=0;bottom=0;right=0;align=left;spacingLeft=6;overflow=hidden;strokeColor=inherit;fontSize=16;" parent="N7fRc56kS8bR0nnPCuzB-14" vertex="1">
          <mxGeometry x="429" width="51" height="30" as="geometry">
            <mxRectangle width="51" height="30" as="alternateBounds" />
          </mxGeometry>
        </mxCell>
        <mxCell id="N7fRc56kS8bR0nnPCuzB-18" style="shape=tableRow;horizontal=0;startSize=0;swimlaneHead=0;swimlaneBody=0;top=0;left=0;bottom=0;right=0;collapsible=0;dropTarget=0;fillColor=none;points=[[0,0.5],[1,0.5]];portConstraint=eastwest;strokeColor=inherit;fontSize=16;" parent="N7fRc56kS8bR0nnPCuzB-1" vertex="1">
          <mxGeometry y="150" width="480" height="40" as="geometry" />
        </mxCell>
        <mxCell id="N7fRc56kS8bR0nnPCuzB-19" value="5" style="shape=partialRectangle;html=1;whiteSpace=wrap;connectable=0;fillColor=none;top=0;left=0;bottom=0;right=0;overflow=hidden;strokeColor=inherit;fontSize=16;" parent="N7fRc56kS8bR0nnPCuzB-18" vertex="1">
          <mxGeometry width="61" height="40" as="geometry">
            <mxRectangle width="61" height="40" as="alternateBounds" />
          </mxGeometry>
        </mxCell>
        <mxCell id="N7fRc56kS8bR0nnPCuzB-20" value="SHORT_NAME" style="shape=partialRectangle;html=1;whiteSpace=wrap;connectable=0;fillColor=none;top=0;left=0;bottom=0;right=0;align=left;spacingLeft=6;overflow=hidden;strokeColor=inherit;fontSize=16;" parent="N7fRc56kS8bR0nnPCuzB-18" vertex="1">
          <mxGeometry x="61" width="368" height="40" as="geometry">
            <mxRectangle width="368" height="40" as="alternateBounds" />
          </mxGeometry>
        </mxCell>
        <mxCell id="N7fRc56kS8bR0nnPCuzB-21" style="shape=partialRectangle;html=1;whiteSpace=wrap;connectable=0;fillColor=none;top=0;left=0;bottom=0;right=0;align=left;spacingLeft=6;overflow=hidden;strokeColor=inherit;fontSize=16;" parent="N7fRc56kS8bR0nnPCuzB-18" vertex="1">
          <mxGeometry x="429" width="51" height="40" as="geometry">
            <mxRectangle width="51" height="40" as="alternateBounds" />
          </mxGeometry>
        </mxCell>
        <mxCell id="N7fRc56kS8bR0nnPCuzB-22" style="shape=tableRow;horizontal=0;startSize=0;swimlaneHead=0;swimlaneBody=0;top=0;left=0;bottom=0;right=0;collapsible=0;dropTarget=0;fillColor=none;points=[[0,0.5],[1,0.5]];portConstraint=eastwest;strokeColor=inherit;fontSize=16;" parent="N7fRc56kS8bR0nnPCuzB-1" vertex="1">
          <mxGeometry y="190" width="480" height="30" as="geometry" />
        </mxCell>
        <mxCell id="N7fRc56kS8bR0nnPCuzB-23" value="6" style="shape=partialRectangle;html=1;whiteSpace=wrap;connectable=0;fillColor=none;top=0;left=0;bottom=0;right=0;overflow=hidden;strokeColor=inherit;fontSize=16;" parent="N7fRc56kS8bR0nnPCuzB-22" vertex="1">
          <mxGeometry width="61" height="30" as="geometry">
            <mxRectangle width="61" height="30" as="alternateBounds" />
          </mxGeometry>
        </mxCell>
        <mxCell id="N7fRc56kS8bR0nnPCuzB-24" value="DESCRIPTION" style="shape=partialRectangle;html=1;whiteSpace=wrap;connectable=0;fillColor=none;top=0;left=0;bottom=0;right=0;align=left;spacingLeft=6;overflow=hidden;strokeColor=inherit;fontSize=16;" parent="N7fRc56kS8bR0nnPCuzB-22" vertex="1">
          <mxGeometry x="61" width="368" height="30" as="geometry">
            <mxRectangle width="368" height="30" as="alternateBounds" />
          </mxGeometry>
        </mxCell>
        <mxCell id="N7fRc56kS8bR0nnPCuzB-25" style="shape=partialRectangle;html=1;whiteSpace=wrap;connectable=0;fillColor=none;top=0;left=0;bottom=0;right=0;align=left;spacingLeft=6;overflow=hidden;strokeColor=inherit;fontSize=16;" parent="N7fRc56kS8bR0nnPCuzB-22" vertex="1">
          <mxGeometry x="429" width="51" height="30" as="geometry">
            <mxRectangle width="51" height="30" as="alternateBounds" />
          </mxGeometry>
        </mxCell>
        <mxCell id="N7fRc56kS8bR0nnPCuzB-26" value="" style="shape=tableRow;horizontal=0;startSize=0;swimlaneHead=0;swimlaneBody=0;top=0;left=0;bottom=0;right=0;collapsible=0;dropTarget=0;fillColor=none;points=[[0,0.5],[1,0.5]];portConstraint=eastwest;strokeColor=inherit;fontSize=16;" parent="N7fRc56kS8bR0nnPCuzB-1" vertex="1">
          <mxGeometry y="220" width="480" height="30" as="geometry" />
        </mxCell>
        <mxCell id="N7fRc56kS8bR0nnPCuzB-27" value="7" style="shape=partialRectangle;html=1;whiteSpace=wrap;connectable=0;fillColor=none;top=0;left=0;bottom=0;right=0;overflow=hidden;strokeColor=inherit;fontSize=16;" parent="N7fRc56kS8bR0nnPCuzB-26" vertex="1">
          <mxGeometry width="61" height="30" as="geometry">
            <mxRectangle width="61" height="30" as="alternateBounds" />
          </mxGeometry>
        </mxCell>
        <mxCell id="N7fRc56kS8bR0nnPCuzB-28" value="EXTERNAL_CODE" style="shape=partialRectangle;html=1;whiteSpace=wrap;connectable=0;fillColor=none;top=0;left=0;bottom=0;right=0;align=left;spacingLeft=6;overflow=hidden;strokeColor=inherit;fontSize=16;" parent="N7fRc56kS8bR0nnPCuzB-26" vertex="1">
          <mxGeometry x="61" width="368" height="30" as="geometry">
            <mxRectangle width="368" height="30" as="alternateBounds" />
          </mxGeometry>
        </mxCell>
        <mxCell id="N7fRc56kS8bR0nnPCuzB-29" style="shape=partialRectangle;html=1;whiteSpace=wrap;connectable=0;fillColor=none;top=0;left=0;bottom=0;right=0;align=left;spacingLeft=6;overflow=hidden;strokeColor=inherit;fontSize=16;" parent="N7fRc56kS8bR0nnPCuzB-26" vertex="1">
          <mxGeometry x="429" width="51" height="30" as="geometry">
            <mxRectangle width="51" height="30" as="alternateBounds" />
          </mxGeometry>
        </mxCell>
        <mxCell id="N7fRc56kS8bR0nnPCuzB-30" style="shape=tableRow;horizontal=0;startSize=0;swimlaneHead=0;swimlaneBody=0;top=0;left=0;bottom=0;right=0;collapsible=0;dropTarget=0;fillColor=none;points=[[0,0.5],[1,0.5]];portConstraint=eastwest;strokeColor=inherit;fontSize=16;" parent="N7fRc56kS8bR0nnPCuzB-1" vertex="1">
          <mxGeometry y="250" width="480" height="30" as="geometry" />
        </mxCell>
        <mxCell id="N7fRc56kS8bR0nnPCuzB-31" value="8" style="shape=partialRectangle;html=1;whiteSpace=wrap;connectable=0;fillColor=none;top=0;left=0;bottom=0;right=0;overflow=hidden;strokeColor=inherit;fontSize=16;" parent="N7fRc56kS8bR0nnPCuzB-30" vertex="1">
          <mxGeometry width="61" height="30" as="geometry">
            <mxRectangle width="61" height="30" as="alternateBounds" />
          </mxGeometry>
        </mxCell>
        <mxCell id="N7fRc56kS8bR0nnPCuzB-32" value="HIERARCHY" style="shape=partialRectangle;html=1;whiteSpace=wrap;connectable=0;fillColor=none;top=0;left=0;bottom=0;right=0;align=left;spacingLeft=6;overflow=hidden;strokeColor=inherit;fontSize=16;" parent="N7fRc56kS8bR0nnPCuzB-30" vertex="1">
          <mxGeometry x="61" width="368" height="30" as="geometry">
            <mxRectangle width="368" height="30" as="alternateBounds" />
          </mxGeometry>
        </mxCell>
        <mxCell id="N7fRc56kS8bR0nnPCuzB-33" style="shape=partialRectangle;html=1;whiteSpace=wrap;connectable=0;fillColor=none;top=0;left=0;bottom=0;right=0;align=left;spacingLeft=6;overflow=hidden;strokeColor=inherit;fontSize=16;" parent="N7fRc56kS8bR0nnPCuzB-30" vertex="1">
          <mxGeometry x="429" width="51" height="30" as="geometry">
            <mxRectangle width="51" height="30" as="alternateBounds" />
          </mxGeometry>
        </mxCell>
        <mxCell id="N7fRc56kS8bR0nnPCuzB-34" style="shape=tableRow;horizontal=0;startSize=0;swimlaneHead=0;swimlaneBody=0;top=0;left=0;bottom=0;right=0;collapsible=0;dropTarget=0;fillColor=none;points=[[0,0.5],[1,0.5]];portConstraint=eastwest;strokeColor=inherit;fontSize=16;" parent="N7fRc56kS8bR0nnPCuzB-1" vertex="1">
          <mxGeometry y="280" width="480" height="20" as="geometry" />
        </mxCell>
        <mxCell id="N7fRc56kS8bR0nnPCuzB-35" value="9" style="shape=partialRectangle;html=1;whiteSpace=wrap;connectable=0;fillColor=none;top=0;left=0;bottom=0;right=0;overflow=hidden;strokeColor=inherit;fontSize=16;" parent="N7fRc56kS8bR0nnPCuzB-34" vertex="1">
          <mxGeometry width="61" height="20" as="geometry">
            <mxRectangle width="61" height="20" as="alternateBounds" />
          </mxGeometry>
        </mxCell>
        <mxCell id="N7fRc56kS8bR0nnPCuzB-36" value="MANUAL_JOURNAL_ENTRIES_ALLOWED&lt;br&gt;" style="shape=partialRectangle;html=1;whiteSpace=wrap;connectable=0;fillColor=none;top=0;left=0;bottom=0;right=0;align=left;spacingLeft=6;overflow=hidden;strokeColor=inherit;fontSize=16;" parent="N7fRc56kS8bR0nnPCuzB-34" vertex="1">
          <mxGeometry x="61" width="368" height="20" as="geometry">
            <mxRectangle width="368" height="20" as="alternateBounds" />
          </mxGeometry>
        </mxCell>
        <mxCell id="N7fRc56kS8bR0nnPCuzB-37" style="shape=partialRectangle;html=1;whiteSpace=wrap;connectable=0;fillColor=none;top=0;left=0;bottom=0;right=0;align=left;spacingLeft=6;overflow=hidden;strokeColor=inherit;fontSize=16;" parent="N7fRc56kS8bR0nnPCuzB-34" vertex="1">
          <mxGeometry x="429" width="51" height="20" as="geometry">
            <mxRectangle width="51" height="20" as="alternateBounds" />
          </mxGeometry>
        </mxCell>
        <mxCell id="N7fRc56kS8bR0nnPCuzB-38" style="shape=tableRow;horizontal=0;startSize=0;swimlaneHead=0;swimlaneBody=0;top=0;left=0;bottom=0;right=0;collapsible=0;dropTarget=0;fillColor=none;points=[[0,0.5],[1,0.5]];portConstraint=eastwest;strokeColor=inherit;fontSize=16;" parent="N7fRc56kS8bR0nnPCuzB-1" vertex="1">
          <mxGeometry y="300" width="480" height="30" as="geometry" />
        </mxCell>
        <mxCell id="N7fRc56kS8bR0nnPCuzB-39" value="10" style="shape=partialRectangle;html=1;whiteSpace=wrap;connectable=0;fillColor=none;top=0;left=0;bottom=0;right=0;overflow=hidden;strokeColor=inherit;fontSize=16;" parent="N7fRc56kS8bR0nnPCuzB-38" vertex="1">
          <mxGeometry width="61" height="30" as="geometry">
            <mxRectangle width="61" height="30" as="alternateBounds" />
          </mxGeometry>
        </mxCell>
        <mxCell id="N7fRc56kS8bR0nnPCuzB-40" value="DISABLED(BOOLEAN)" style="shape=partialRectangle;html=1;whiteSpace=wrap;connectable=0;fillColor=none;top=0;left=0;bottom=0;right=0;align=left;spacingLeft=6;overflow=hidden;strokeColor=inherit;fontSize=16;" parent="N7fRc56kS8bR0nnPCuzB-38" vertex="1">
          <mxGeometry x="61" width="368" height="30" as="geometry">
            <mxRectangle width="368" height="30" as="alternateBounds" />
          </mxGeometry>
        </mxCell>
        <mxCell id="N7fRc56kS8bR0nnPCuzB-41" style="shape=partialRectangle;html=1;whiteSpace=wrap;connectable=0;fillColor=none;top=0;left=0;bottom=0;right=0;align=left;spacingLeft=6;overflow=hidden;strokeColor=inherit;fontSize=16;" parent="N7fRc56kS8bR0nnPCuzB-38" vertex="1">
          <mxGeometry x="429" width="51" height="30" as="geometry">
            <mxRectangle width="51" height="30" as="alternateBounds" />
          </mxGeometry>
        </mxCell>
        <mxCell id="N7fRc56kS8bR0nnPCuzB-42" value="PRODUCT" style="shape=table;startSize=30;container=1;collapsible=0;childLayout=tableLayout;fixedRows=1;rowLines=0;fontStyle=0;strokeColor=#82b366;fontSize=16;fillColor=#d5e8d4;" parent="1" vertex="1">
          <mxGeometry x="670" y="-1001" width="380" height="420" as="geometry" />
        </mxCell>
        <mxCell id="N7fRc56kS8bR0nnPCuzB-43" value="" style="shape=tableRow;horizontal=0;startSize=0;swimlaneHead=0;swimlaneBody=0;top=0;left=0;bottom=0;right=0;collapsible=0;dropTarget=0;fillColor=none;points=[[0,0.5],[1,0.5]];portConstraint=eastwest;strokeColor=inherit;fontSize=16;" parent="N7fRc56kS8bR0nnPCuzB-42" vertex="1">
          <mxGeometry y="30" width="380" height="30" as="geometry" />
        </mxCell>
        <mxCell id="N7fRc56kS8bR0nnPCuzB-44" value="1" style="shape=partialRectangle;html=1;whiteSpace=wrap;connectable=0;fillColor=none;top=0;left=0;bottom=0;right=0;overflow=hidden;pointerEvents=1;strokeColor=inherit;fontSize=16;" parent="N7fRc56kS8bR0nnPCuzB-43" vertex="1">
          <mxGeometry width="48" height="30" as="geometry">
            <mxRectangle width="48" height="30" as="alternateBounds" />
          </mxGeometry>
        </mxCell>
        <mxCell id="N7fRc56kS8bR0nnPCuzB-45" value="REF_CODE" style="shape=partialRectangle;html=1;whiteSpace=wrap;connectable=0;fillColor=none;top=0;left=0;bottom=0;right=0;align=left;spacingLeft=6;overflow=hidden;strokeColor=inherit;fontSize=16;" parent="N7fRc56kS8bR0nnPCuzB-43" vertex="1">
          <mxGeometry x="48" width="242" height="30" as="geometry">
            <mxRectangle width="242" height="30" as="alternateBounds" />
          </mxGeometry>
        </mxCell>
        <mxCell id="N7fRc56kS8bR0nnPCuzB-46" style="shape=partialRectangle;html=1;whiteSpace=wrap;connectable=0;fillColor=none;top=0;left=0;bottom=0;right=0;align=left;spacingLeft=6;overflow=hidden;strokeColor=inherit;fontSize=16;" parent="N7fRc56kS8bR0nnPCuzB-43" vertex="1">
          <mxGeometry x="290" width="90" height="30" as="geometry">
            <mxRectangle width="90" height="30" as="alternateBounds" />
          </mxGeometry>
        </mxCell>
        <mxCell id="N7fRc56kS8bR0nnPCuzB-47" style="shape=tableRow;horizontal=0;startSize=0;swimlaneHead=0;swimlaneBody=0;top=0;left=0;bottom=0;right=0;collapsible=0;dropTarget=0;fillColor=none;points=[[0,0.5],[1,0.5]];portConstraint=eastwest;strokeColor=inherit;fontSize=16;" parent="N7fRc56kS8bR0nnPCuzB-42" vertex="1">
          <mxGeometry y="60" width="380" height="30" as="geometry" />
        </mxCell>
        <mxCell id="N7fRc56kS8bR0nnPCuzB-48" style="shape=partialRectangle;html=1;whiteSpace=wrap;connectable=0;fillColor=none;top=0;left=0;bottom=0;right=0;overflow=hidden;pointerEvents=1;strokeColor=inherit;fontSize=16;" parent="N7fRc56kS8bR0nnPCuzB-47" vertex="1">
          <mxGeometry width="48" height="30" as="geometry">
            <mxRectangle width="48" height="30" as="alternateBounds" />
          </mxGeometry>
        </mxCell>
        <mxCell id="N7fRc56kS8bR0nnPCuzB-49" value="PRODUCT_CODE" style="shape=partialRectangle;html=1;whiteSpace=wrap;connectable=0;fillColor=none;top=0;left=0;bottom=0;right=0;align=left;spacingLeft=6;overflow=hidden;strokeColor=inherit;fontSize=16;" parent="N7fRc56kS8bR0nnPCuzB-47" vertex="1">
          <mxGeometry x="48" width="242" height="30" as="geometry">
            <mxRectangle width="242" height="30" as="alternateBounds" />
          </mxGeometry>
        </mxCell>
        <mxCell id="N7fRc56kS8bR0nnPCuzB-50" style="shape=partialRectangle;html=1;whiteSpace=wrap;connectable=0;fillColor=none;top=0;left=0;bottom=0;right=0;align=left;spacingLeft=6;overflow=hidden;strokeColor=inherit;fontSize=16;" parent="N7fRc56kS8bR0nnPCuzB-47" vertex="1">
          <mxGeometry x="290" width="90" height="30" as="geometry">
            <mxRectangle width="90" height="30" as="alternateBounds" />
          </mxGeometry>
        </mxCell>
        <mxCell id="N7fRc56kS8bR0nnPCuzB-51" value="" style="shape=tableRow;horizontal=0;startSize=0;swimlaneHead=0;swimlaneBody=0;top=0;left=0;bottom=0;right=0;collapsible=0;dropTarget=0;fillColor=none;points=[[0,0.5],[1,0.5]];portConstraint=eastwest;strokeColor=inherit;fontSize=16;" parent="N7fRc56kS8bR0nnPCuzB-42" vertex="1">
          <mxGeometry y="90" width="380" height="30" as="geometry" />
        </mxCell>
        <mxCell id="N7fRc56kS8bR0nnPCuzB-52" value="" style="shape=partialRectangle;html=1;whiteSpace=wrap;connectable=0;fillColor=none;top=0;left=0;bottom=0;right=0;overflow=hidden;strokeColor=inherit;fontSize=16;" parent="N7fRc56kS8bR0nnPCuzB-51" vertex="1">
          <mxGeometry width="48" height="30" as="geometry">
            <mxRectangle width="48" height="30" as="alternateBounds" />
          </mxGeometry>
        </mxCell>
        <mxCell id="N7fRc56kS8bR0nnPCuzB-53" value="SHORT_NAME" style="shape=partialRectangle;html=1;whiteSpace=wrap;connectable=0;fillColor=none;top=0;left=0;bottom=0;right=0;align=left;spacingLeft=6;overflow=hidden;strokeColor=inherit;fontSize=16;" parent="N7fRc56kS8bR0nnPCuzB-51" vertex="1">
          <mxGeometry x="48" width="242" height="30" as="geometry">
            <mxRectangle width="242" height="30" as="alternateBounds" />
          </mxGeometry>
        </mxCell>
        <mxCell id="N7fRc56kS8bR0nnPCuzB-54" style="shape=partialRectangle;html=1;whiteSpace=wrap;connectable=0;fillColor=none;top=0;left=0;bottom=0;right=0;align=left;spacingLeft=6;overflow=hidden;strokeColor=inherit;fontSize=16;" parent="N7fRc56kS8bR0nnPCuzB-51" vertex="1">
          <mxGeometry x="290" width="90" height="30" as="geometry">
            <mxRectangle width="90" height="30" as="alternateBounds" />
          </mxGeometry>
        </mxCell>
        <mxCell id="N7fRc56kS8bR0nnPCuzB-55" value="" style="shape=tableRow;horizontal=0;startSize=0;swimlaneHead=0;swimlaneBody=0;top=0;left=0;bottom=0;right=0;collapsible=0;dropTarget=0;fillColor=none;points=[[0,0.5],[1,0.5]];portConstraint=eastwest;strokeColor=inherit;fontSize=16;" parent="N7fRc56kS8bR0nnPCuzB-42" vertex="1">
          <mxGeometry y="120" width="380" height="30" as="geometry" />
        </mxCell>
        <mxCell id="N7fRc56kS8bR0nnPCuzB-56" value="" style="shape=partialRectangle;html=1;whiteSpace=wrap;connectable=0;fillColor=none;top=0;left=0;bottom=0;right=0;overflow=hidden;strokeColor=inherit;fontSize=16;" parent="N7fRc56kS8bR0nnPCuzB-55" vertex="1">
          <mxGeometry width="48" height="30" as="geometry">
            <mxRectangle width="48" height="30" as="alternateBounds" />
          </mxGeometry>
        </mxCell>
        <mxCell id="N7fRc56kS8bR0nnPCuzB-57" value="DESCRIPTION" style="shape=partialRectangle;html=1;whiteSpace=wrap;connectable=0;fillColor=none;top=0;left=0;bottom=0;right=0;align=left;spacingLeft=6;overflow=hidden;strokeColor=inherit;fontSize=16;" parent="N7fRc56kS8bR0nnPCuzB-55" vertex="1">
          <mxGeometry x="48" width="242" height="30" as="geometry">
            <mxRectangle width="242" height="30" as="alternateBounds" />
          </mxGeometry>
        </mxCell>
        <mxCell id="N7fRc56kS8bR0nnPCuzB-58" style="shape=partialRectangle;html=1;whiteSpace=wrap;connectable=0;fillColor=none;top=0;left=0;bottom=0;right=0;align=left;spacingLeft=6;overflow=hidden;strokeColor=inherit;fontSize=16;" parent="N7fRc56kS8bR0nnPCuzB-55" vertex="1">
          <mxGeometry x="290" width="90" height="30" as="geometry">
            <mxRectangle width="90" height="30" as="alternateBounds" />
          </mxGeometry>
        </mxCell>
        <mxCell id="N7fRc56kS8bR0nnPCuzB-59" style="shape=tableRow;horizontal=0;startSize=0;swimlaneHead=0;swimlaneBody=0;top=0;left=0;bottom=0;right=0;collapsible=0;dropTarget=0;fillColor=none;points=[[0,0.5],[1,0.5]];portConstraint=eastwest;strokeColor=inherit;fontSize=16;" parent="N7fRc56kS8bR0nnPCuzB-42" vertex="1">
          <mxGeometry y="150" width="380" height="30" as="geometry" />
        </mxCell>
        <mxCell id="N7fRc56kS8bR0nnPCuzB-60" value="" style="shape=partialRectangle;html=1;whiteSpace=wrap;connectable=0;fillColor=none;top=0;left=0;bottom=0;right=0;overflow=hidden;strokeColor=inherit;fontSize=16;" parent="N7fRc56kS8bR0nnPCuzB-59" vertex="1">
          <mxGeometry width="48" height="30" as="geometry">
            <mxRectangle width="48" height="30" as="alternateBounds" />
          </mxGeometry>
        </mxCell>
        <mxCell id="N7fRc56kS8bR0nnPCuzB-61" value="PRODUCT_TYPE" style="shape=partialRectangle;html=1;whiteSpace=wrap;connectable=0;fillColor=none;top=0;left=0;bottom=0;right=0;align=left;spacingLeft=6;overflow=hidden;strokeColor=inherit;fontSize=16;" parent="N7fRc56kS8bR0nnPCuzB-59" vertex="1">
          <mxGeometry x="48" width="242" height="30" as="geometry">
            <mxRectangle width="242" height="30" as="alternateBounds" />
          </mxGeometry>
        </mxCell>
        <mxCell id="N7fRc56kS8bR0nnPCuzB-62" style="shape=partialRectangle;html=1;whiteSpace=wrap;connectable=0;fillColor=none;top=0;left=0;bottom=0;right=0;align=left;spacingLeft=6;overflow=hidden;strokeColor=inherit;fontSize=16;" parent="N7fRc56kS8bR0nnPCuzB-59" vertex="1">
          <mxGeometry x="290" width="90" height="30" as="geometry">
            <mxRectangle width="90" height="30" as="alternateBounds" />
          </mxGeometry>
        </mxCell>
        <mxCell id="N7fRc56kS8bR0nnPCuzB-63" style="shape=tableRow;horizontal=0;startSize=0;swimlaneHead=0;swimlaneBody=0;top=0;left=0;bottom=0;right=0;collapsible=0;dropTarget=0;fillColor=none;points=[[0,0.5],[1,0.5]];portConstraint=eastwest;strokeColor=inherit;fontSize=16;" parent="N7fRc56kS8bR0nnPCuzB-42" vertex="1">
          <mxGeometry y="180" width="380" height="30" as="geometry" />
        </mxCell>
        <mxCell id="N7fRc56kS8bR0nnPCuzB-64" value="" style="shape=partialRectangle;html=1;whiteSpace=wrap;connectable=0;fillColor=none;top=0;left=0;bottom=0;right=0;overflow=hidden;strokeColor=inherit;fontSize=16;" parent="N7fRc56kS8bR0nnPCuzB-63" vertex="1">
          <mxGeometry width="48" height="30" as="geometry">
            <mxRectangle width="48" height="30" as="alternateBounds" />
          </mxGeometry>
        </mxCell>
        <mxCell id="N7fRc56kS8bR0nnPCuzB-65" value="CURRENCY_CODE" style="shape=partialRectangle;html=1;whiteSpace=wrap;connectable=0;fillColor=none;top=0;left=0;bottom=0;right=0;align=left;spacingLeft=6;overflow=hidden;strokeColor=inherit;fontSize=16;" parent="N7fRc56kS8bR0nnPCuzB-63" vertex="1">
          <mxGeometry x="48" width="242" height="30" as="geometry">
            <mxRectangle width="242" height="30" as="alternateBounds" />
          </mxGeometry>
        </mxCell>
        <mxCell id="N7fRc56kS8bR0nnPCuzB-66" style="shape=partialRectangle;html=1;whiteSpace=wrap;connectable=0;fillColor=none;top=0;left=0;bottom=0;right=0;align=left;spacingLeft=6;overflow=hidden;strokeColor=inherit;fontSize=16;" parent="N7fRc56kS8bR0nnPCuzB-63" vertex="1">
          <mxGeometry x="290" width="90" height="30" as="geometry">
            <mxRectangle width="90" height="30" as="alternateBounds" />
          </mxGeometry>
        </mxCell>
        <mxCell id="N7fRc56kS8bR0nnPCuzB-67" style="shape=tableRow;horizontal=0;startSize=0;swimlaneHead=0;swimlaneBody=0;top=0;left=0;bottom=0;right=0;collapsible=0;dropTarget=0;fillColor=none;points=[[0,0.5],[1,0.5]];portConstraint=eastwest;strokeColor=inherit;fontSize=16;" parent="N7fRc56kS8bR0nnPCuzB-42" vertex="1">
          <mxGeometry y="210" width="380" height="30" as="geometry" />
        </mxCell>
        <mxCell id="N7fRc56kS8bR0nnPCuzB-68" value="" style="shape=partialRectangle;html=1;whiteSpace=wrap;connectable=0;fillColor=none;top=0;left=0;bottom=0;right=0;overflow=hidden;strokeColor=inherit;fontSize=16;" parent="N7fRc56kS8bR0nnPCuzB-67" vertex="1">
          <mxGeometry width="48" height="30" as="geometry">
            <mxRectangle width="48" height="30" as="alternateBounds" />
          </mxGeometry>
        </mxCell>
        <mxCell id="N7fRc56kS8bR0nnPCuzB-69" value="EXTERNAL_ID" style="shape=partialRectangle;html=1;whiteSpace=wrap;connectable=0;fillColor=none;top=0;left=0;bottom=0;right=0;align=left;spacingLeft=6;overflow=hidden;strokeColor=inherit;fontSize=16;" parent="N7fRc56kS8bR0nnPCuzB-67" vertex="1">
          <mxGeometry x="48" width="242" height="30" as="geometry">
            <mxRectangle width="242" height="30" as="alternateBounds" />
          </mxGeometry>
        </mxCell>
        <mxCell id="N7fRc56kS8bR0nnPCuzB-70" style="shape=partialRectangle;html=1;whiteSpace=wrap;connectable=0;fillColor=none;top=0;left=0;bottom=0;right=0;align=left;spacingLeft=6;overflow=hidden;strokeColor=inherit;fontSize=16;" parent="N7fRc56kS8bR0nnPCuzB-67" vertex="1">
          <mxGeometry x="290" width="90" height="30" as="geometry">
            <mxRectangle width="90" height="30" as="alternateBounds" />
          </mxGeometry>
        </mxCell>
        <mxCell id="N7fRc56kS8bR0nnPCuzB-71" style="shape=tableRow;horizontal=0;startSize=0;swimlaneHead=0;swimlaneBody=0;top=0;left=0;bottom=0;right=0;collapsible=0;dropTarget=0;fillColor=none;points=[[0,0.5],[1,0.5]];portConstraint=eastwest;strokeColor=inherit;fontSize=16;" parent="N7fRc56kS8bR0nnPCuzB-42" vertex="1">
          <mxGeometry y="240" width="380" height="30" as="geometry" />
        </mxCell>
        <mxCell id="N7fRc56kS8bR0nnPCuzB-72" style="shape=partialRectangle;html=1;whiteSpace=wrap;connectable=0;fillColor=none;top=0;left=0;bottom=0;right=0;overflow=hidden;strokeColor=inherit;fontSize=16;" parent="N7fRc56kS8bR0nnPCuzB-71" vertex="1">
          <mxGeometry width="48" height="30" as="geometry">
            <mxRectangle width="48" height="30" as="alternateBounds" />
          </mxGeometry>
        </mxCell>
        <mxCell id="N7fRc56kS8bR0nnPCuzB-73" value="START_DATE" style="shape=partialRectangle;html=1;whiteSpace=wrap;connectable=0;fillColor=none;top=0;left=0;bottom=0;right=0;align=left;spacingLeft=6;overflow=hidden;strokeColor=inherit;fontSize=16;" parent="N7fRc56kS8bR0nnPCuzB-71" vertex="1">
          <mxGeometry x="48" width="242" height="30" as="geometry">
            <mxRectangle width="242" height="30" as="alternateBounds" />
          </mxGeometry>
        </mxCell>
        <mxCell id="N7fRc56kS8bR0nnPCuzB-74" style="shape=partialRectangle;html=1;whiteSpace=wrap;connectable=0;fillColor=none;top=0;left=0;bottom=0;right=0;align=left;spacingLeft=6;overflow=hidden;strokeColor=inherit;fontSize=16;" parent="N7fRc56kS8bR0nnPCuzB-71" vertex="1">
          <mxGeometry x="290" width="90" height="30" as="geometry">
            <mxRectangle width="90" height="30" as="alternateBounds" />
          </mxGeometry>
        </mxCell>
        <mxCell id="N7fRc56kS8bR0nnPCuzB-75" style="shape=tableRow;horizontal=0;startSize=0;swimlaneHead=0;swimlaneBody=0;top=0;left=0;bottom=0;right=0;collapsible=0;dropTarget=0;fillColor=none;points=[[0,0.5],[1,0.5]];portConstraint=eastwest;strokeColor=inherit;fontSize=16;" parent="N7fRc56kS8bR0nnPCuzB-42" vertex="1">
          <mxGeometry y="270" width="380" height="30" as="geometry" />
        </mxCell>
        <mxCell id="N7fRc56kS8bR0nnPCuzB-76" style="shape=partialRectangle;html=1;whiteSpace=wrap;connectable=0;fillColor=none;top=0;left=0;bottom=0;right=0;overflow=hidden;strokeColor=inherit;fontSize=16;" parent="N7fRc56kS8bR0nnPCuzB-75" vertex="1">
          <mxGeometry width="48" height="30" as="geometry">
            <mxRectangle width="48" height="30" as="alternateBounds" />
          </mxGeometry>
        </mxCell>
        <mxCell id="N7fRc56kS8bR0nnPCuzB-77" value="END_DATE" style="shape=partialRectangle;html=1;whiteSpace=wrap;connectable=0;fillColor=none;top=0;left=0;bottom=0;right=0;align=left;spacingLeft=6;overflow=hidden;strokeColor=inherit;fontSize=16;" parent="N7fRc56kS8bR0nnPCuzB-75" vertex="1">
          <mxGeometry x="48" width="242" height="30" as="geometry">
            <mxRectangle width="242" height="30" as="alternateBounds" />
          </mxGeometry>
        </mxCell>
        <mxCell id="N7fRc56kS8bR0nnPCuzB-78" style="shape=partialRectangle;html=1;whiteSpace=wrap;connectable=0;fillColor=none;top=0;left=0;bottom=0;right=0;align=left;spacingLeft=6;overflow=hidden;strokeColor=inherit;fontSize=16;" parent="N7fRc56kS8bR0nnPCuzB-75" vertex="1">
          <mxGeometry x="290" width="90" height="30" as="geometry">
            <mxRectangle width="90" height="30" as="alternateBounds" />
          </mxGeometry>
        </mxCell>
        <mxCell id="N7fRc56kS8bR0nnPCuzB-79" style="shape=tableRow;horizontal=0;startSize=0;swimlaneHead=0;swimlaneBody=0;top=0;left=0;bottom=0;right=0;collapsible=0;dropTarget=0;fillColor=none;points=[[0,0.5],[1,0.5]];portConstraint=eastwest;strokeColor=inherit;fontSize=16;" parent="N7fRc56kS8bR0nnPCuzB-42" vertex="1">
          <mxGeometry y="300" width="380" height="30" as="geometry" />
        </mxCell>
        <mxCell id="N7fRc56kS8bR0nnPCuzB-80" style="shape=partialRectangle;html=1;whiteSpace=wrap;connectable=0;fillColor=none;top=0;left=0;bottom=0;right=0;overflow=hidden;strokeColor=inherit;fontSize=16;" parent="N7fRc56kS8bR0nnPCuzB-79" vertex="1">
          <mxGeometry width="48" height="30" as="geometry">
            <mxRectangle width="48" height="30" as="alternateBounds" />
          </mxGeometry>
        </mxCell>
        <mxCell id="N7fRc56kS8bR0nnPCuzB-81" value="DAYS_TO-INACTIVE" style="shape=partialRectangle;html=1;whiteSpace=wrap;connectable=0;fillColor=none;top=0;left=0;bottom=0;right=0;align=left;spacingLeft=6;overflow=hidden;strokeColor=inherit;fontSize=16;" parent="N7fRc56kS8bR0nnPCuzB-79" vertex="1">
          <mxGeometry x="48" width="242" height="30" as="geometry">
            <mxRectangle width="242" height="30" as="alternateBounds" />
          </mxGeometry>
        </mxCell>
        <mxCell id="N7fRc56kS8bR0nnPCuzB-82" style="shape=partialRectangle;html=1;whiteSpace=wrap;connectable=0;fillColor=none;top=0;left=0;bottom=0;right=0;align=left;spacingLeft=6;overflow=hidden;strokeColor=inherit;fontSize=16;" parent="N7fRc56kS8bR0nnPCuzB-79" vertex="1">
          <mxGeometry x="290" width="90" height="30" as="geometry">
            <mxRectangle width="90" height="30" as="alternateBounds" />
          </mxGeometry>
        </mxCell>
        <mxCell id="N7fRc56kS8bR0nnPCuzB-83" style="shape=tableRow;horizontal=0;startSize=0;swimlaneHead=0;swimlaneBody=0;top=0;left=0;bottom=0;right=0;collapsible=0;dropTarget=0;fillColor=none;points=[[0,0.5],[1,0.5]];portConstraint=eastwest;strokeColor=inherit;fontSize=16;" parent="N7fRc56kS8bR0nnPCuzB-42" vertex="1">
          <mxGeometry y="330" width="380" height="30" as="geometry" />
        </mxCell>
        <mxCell id="N7fRc56kS8bR0nnPCuzB-84" style="shape=partialRectangle;html=1;whiteSpace=wrap;connectable=0;fillColor=none;top=0;left=0;bottom=0;right=0;overflow=hidden;strokeColor=inherit;fontSize=16;" parent="N7fRc56kS8bR0nnPCuzB-83" vertex="1">
          <mxGeometry width="48" height="30" as="geometry">
            <mxRectangle width="48" height="30" as="alternateBounds" />
          </mxGeometry>
        </mxCell>
        <mxCell id="N7fRc56kS8bR0nnPCuzB-85" value="DAYS_TO_DORMANCY" style="shape=partialRectangle;html=1;whiteSpace=wrap;connectable=0;fillColor=none;top=0;left=0;bottom=0;right=0;align=left;spacingLeft=6;overflow=hidden;strokeColor=inherit;fontSize=16;" parent="N7fRc56kS8bR0nnPCuzB-83" vertex="1">
          <mxGeometry x="48" width="242" height="30" as="geometry">
            <mxRectangle width="242" height="30" as="alternateBounds" />
          </mxGeometry>
        </mxCell>
        <mxCell id="N7fRc56kS8bR0nnPCuzB-86" style="shape=partialRectangle;html=1;whiteSpace=wrap;connectable=0;fillColor=none;top=0;left=0;bottom=0;right=0;align=left;spacingLeft=6;overflow=hidden;strokeColor=inherit;fontSize=16;" parent="N7fRc56kS8bR0nnPCuzB-83" vertex="1">
          <mxGeometry x="290" width="90" height="30" as="geometry">
            <mxRectangle width="90" height="30" as="alternateBounds" />
          </mxGeometry>
        </mxCell>
        <mxCell id="N7fRc56kS8bR0nnPCuzB-87" style="shape=tableRow;horizontal=0;startSize=0;swimlaneHead=0;swimlaneBody=0;top=0;left=0;bottom=0;right=0;collapsible=0;dropTarget=0;fillColor=none;points=[[0,0.5],[1,0.5]];portConstraint=eastwest;strokeColor=inherit;fontSize=16;" parent="N7fRc56kS8bR0nnPCuzB-42" vertex="1">
          <mxGeometry y="360" width="380" height="30" as="geometry" />
        </mxCell>
        <mxCell id="N7fRc56kS8bR0nnPCuzB-88" style="shape=partialRectangle;html=1;whiteSpace=wrap;connectable=0;fillColor=none;top=0;left=0;bottom=0;right=0;overflow=hidden;strokeColor=inherit;fontSize=16;" parent="N7fRc56kS8bR0nnPCuzB-87" vertex="1">
          <mxGeometry width="48" height="30" as="geometry">
            <mxRectangle width="48" height="30" as="alternateBounds" />
          </mxGeometry>
        </mxCell>
        <mxCell id="N7fRc56kS8bR0nnPCuzB-89" value="DAYS_TO_ESCHEAT" style="shape=partialRectangle;html=1;whiteSpace=wrap;connectable=0;fillColor=none;top=0;left=0;bottom=0;right=0;align=left;spacingLeft=6;overflow=hidden;strokeColor=inherit;fontSize=16;" parent="N7fRc56kS8bR0nnPCuzB-87" vertex="1">
          <mxGeometry x="48" width="242" height="30" as="geometry">
            <mxRectangle width="242" height="30" as="alternateBounds" />
          </mxGeometry>
        </mxCell>
        <mxCell id="N7fRc56kS8bR0nnPCuzB-90" style="shape=partialRectangle;html=1;whiteSpace=wrap;connectable=0;fillColor=none;top=0;left=0;bottom=0;right=0;align=left;spacingLeft=6;overflow=hidden;strokeColor=inherit;fontSize=16;" parent="N7fRc56kS8bR0nnPCuzB-87" vertex="1">
          <mxGeometry x="290" width="90" height="30" as="geometry">
            <mxRectangle width="90" height="30" as="alternateBounds" />
          </mxGeometry>
        </mxCell>
        <mxCell id="N7fRc56kS8bR0nnPCuzB-91" style="shape=tableRow;horizontal=0;startSize=0;swimlaneHead=0;swimlaneBody=0;top=0;left=0;bottom=0;right=0;collapsible=0;dropTarget=0;fillColor=none;points=[[0,0.5],[1,0.5]];portConstraint=eastwest;strokeColor=inherit;fontSize=16;" parent="N7fRc56kS8bR0nnPCuzB-42" vertex="1">
          <mxGeometry y="390" width="380" height="30" as="geometry" />
        </mxCell>
        <mxCell id="N7fRc56kS8bR0nnPCuzB-92" style="shape=partialRectangle;html=1;whiteSpace=wrap;connectable=0;fillColor=none;top=0;left=0;bottom=0;right=0;overflow=hidden;strokeColor=inherit;fontSize=16;" parent="N7fRc56kS8bR0nnPCuzB-91" vertex="1">
          <mxGeometry width="48" height="30" as="geometry">
            <mxRectangle width="48" height="30" as="alternateBounds" />
          </mxGeometry>
        </mxCell>
        <mxCell id="N7fRc56kS8bR0nnPCuzB-93" style="shape=partialRectangle;html=1;whiteSpace=wrap;connectable=0;fillColor=none;top=0;left=0;bottom=0;right=0;align=left;spacingLeft=6;overflow=hidden;strokeColor=inherit;fontSize=16;" parent="N7fRc56kS8bR0nnPCuzB-91" vertex="1">
          <mxGeometry x="48" width="242" height="30" as="geometry">
            <mxRectangle width="242" height="30" as="alternateBounds" />
          </mxGeometry>
        </mxCell>
        <mxCell id="N7fRc56kS8bR0nnPCuzB-94" style="shape=partialRectangle;html=1;whiteSpace=wrap;connectable=0;fillColor=none;top=0;left=0;bottom=0;right=0;align=left;spacingLeft=6;overflow=hidden;strokeColor=inherit;fontSize=16;" parent="N7fRc56kS8bR0nnPCuzB-91" vertex="1">
          <mxGeometry x="290" width="90" height="30" as="geometry">
            <mxRectangle width="90" height="30" as="alternateBounds" />
          </mxGeometry>
        </mxCell>
        <mxCell id="N7fRc56kS8bR0nnPCuzB-95" value="GENERAL_LEDGER_PRODUCT_MAPPING" style="shape=table;startSize=30;container=1;collapsible=0;childLayout=tableLayout;fixedRows=1;rowLines=0;fontStyle=0;strokeColor=#82b366;fontSize=16;fillColor=#d5e8d4;" parent="1" vertex="1">
          <mxGeometry x="160" y="-591" width="480" height="330" as="geometry" />
        </mxCell>
        <mxCell id="N7fRc56kS8bR0nnPCuzB-96" value="" style="shape=tableRow;horizontal=0;startSize=0;swimlaneHead=0;swimlaneBody=0;top=0;left=0;bottom=0;right=0;collapsible=0;dropTarget=0;fillColor=none;points=[[0,0.5],[1,0.5]];portConstraint=eastwest;strokeColor=inherit;fontSize=16;" parent="N7fRc56kS8bR0nnPCuzB-95" vertex="1">
          <mxGeometry y="30" width="480" height="30" as="geometry" />
        </mxCell>
        <mxCell id="N7fRc56kS8bR0nnPCuzB-97" value="1" style="shape=partialRectangle;html=1;whiteSpace=wrap;connectable=0;fillColor=none;top=0;left=0;bottom=0;right=0;overflow=hidden;pointerEvents=1;strokeColor=inherit;fontSize=16;" parent="N7fRc56kS8bR0nnPCuzB-96" vertex="1">
          <mxGeometry width="61" height="30" as="geometry">
            <mxRectangle width="61" height="30" as="alternateBounds" />
          </mxGeometry>
        </mxCell>
        <mxCell id="N7fRc56kS8bR0nnPCuzB-98" value="ID" style="shape=partialRectangle;html=1;whiteSpace=wrap;connectable=0;fillColor=none;top=0;left=0;bottom=0;right=0;align=left;spacingLeft=6;overflow=hidden;strokeColor=inherit;fontSize=16;" parent="N7fRc56kS8bR0nnPCuzB-96" vertex="1">
          <mxGeometry x="61" width="368" height="30" as="geometry">
            <mxRectangle width="368" height="30" as="alternateBounds" />
          </mxGeometry>
        </mxCell>
        <mxCell id="N7fRc56kS8bR0nnPCuzB-99" style="shape=partialRectangle;html=1;whiteSpace=wrap;connectable=0;fillColor=none;top=0;left=0;bottom=0;right=0;align=left;spacingLeft=6;overflow=hidden;strokeColor=inherit;fontSize=16;" parent="N7fRc56kS8bR0nnPCuzB-96" vertex="1">
          <mxGeometry x="429" width="51" height="30" as="geometry">
            <mxRectangle width="51" height="30" as="alternateBounds" />
          </mxGeometry>
        </mxCell>
        <mxCell id="N7fRc56kS8bR0nnPCuzB-100" style="shape=tableRow;horizontal=0;startSize=0;swimlaneHead=0;swimlaneBody=0;top=0;left=0;bottom=0;right=0;collapsible=0;dropTarget=0;fillColor=none;points=[[0,0.5],[1,0.5]];portConstraint=eastwest;strokeColor=inherit;fontSize=16;" parent="N7fRc56kS8bR0nnPCuzB-95" vertex="1">
          <mxGeometry y="60" width="480" height="30" as="geometry" />
        </mxCell>
        <mxCell id="N7fRc56kS8bR0nnPCuzB-101" value="2" style="shape=partialRectangle;html=1;whiteSpace=wrap;connectable=0;fillColor=none;top=0;left=0;bottom=0;right=0;overflow=hidden;strokeColor=inherit;fontSize=16;" parent="N7fRc56kS8bR0nnPCuzB-100" vertex="1">
          <mxGeometry width="61" height="30" as="geometry">
            <mxRectangle width="61" height="30" as="alternateBounds" />
          </mxGeometry>
        </mxCell>
        <mxCell id="N7fRc56kS8bR0nnPCuzB-102" value="GL_ACCOUNT_ID" style="shape=partialRectangle;html=1;whiteSpace=wrap;connectable=0;fillColor=none;top=0;left=0;bottom=0;right=0;align=left;spacingLeft=6;overflow=hidden;strokeColor=inherit;fontSize=16;" parent="N7fRc56kS8bR0nnPCuzB-100" vertex="1">
          <mxGeometry x="61" width="368" height="30" as="geometry">
            <mxRectangle width="368" height="30" as="alternateBounds" />
          </mxGeometry>
        </mxCell>
        <mxCell id="N7fRc56kS8bR0nnPCuzB-103" style="shape=partialRectangle;html=1;whiteSpace=wrap;connectable=0;fillColor=none;top=0;left=0;bottom=0;right=0;align=left;spacingLeft=6;overflow=hidden;strokeColor=inherit;fontSize=16;" parent="N7fRc56kS8bR0nnPCuzB-100" vertex="1">
          <mxGeometry x="429" width="51" height="30" as="geometry">
            <mxRectangle width="51" height="30" as="alternateBounds" />
          </mxGeometry>
        </mxCell>
        <mxCell id="N7fRc56kS8bR0nnPCuzB-104" value="" style="shape=tableRow;horizontal=0;startSize=0;swimlaneHead=0;swimlaneBody=0;top=0;left=0;bottom=0;right=0;collapsible=0;dropTarget=0;fillColor=none;points=[[0,0.5],[1,0.5]];portConstraint=eastwest;strokeColor=inherit;fontSize=16;" parent="N7fRc56kS8bR0nnPCuzB-95" vertex="1">
          <mxGeometry y="90" width="480" height="30" as="geometry" />
        </mxCell>
        <mxCell id="N7fRc56kS8bR0nnPCuzB-105" value="3" style="shape=partialRectangle;html=1;whiteSpace=wrap;connectable=0;fillColor=none;top=0;left=0;bottom=0;right=0;overflow=hidden;strokeColor=inherit;fontSize=16;" parent="N7fRc56kS8bR0nnPCuzB-104" vertex="1">
          <mxGeometry width="61" height="30" as="geometry">
            <mxRectangle width="61" height="30" as="alternateBounds" />
          </mxGeometry>
        </mxCell>
        <mxCell id="N7fRc56kS8bR0nnPCuzB-106" value="PRODUCT_REF_CODE" style="shape=partialRectangle;html=1;whiteSpace=wrap;connectable=0;fillColor=none;top=0;left=0;bottom=0;right=0;align=left;spacingLeft=6;overflow=hidden;strokeColor=inherit;fontSize=16;" parent="N7fRc56kS8bR0nnPCuzB-104" vertex="1">
          <mxGeometry x="61" width="368" height="30" as="geometry">
            <mxRectangle width="368" height="30" as="alternateBounds" />
          </mxGeometry>
        </mxCell>
        <mxCell id="N7fRc56kS8bR0nnPCuzB-107" style="shape=partialRectangle;html=1;whiteSpace=wrap;connectable=0;fillColor=none;top=0;left=0;bottom=0;right=0;align=left;spacingLeft=6;overflow=hidden;strokeColor=inherit;fontSize=16;" parent="N7fRc56kS8bR0nnPCuzB-104" vertex="1">
          <mxGeometry x="429" width="51" height="30" as="geometry">
            <mxRectangle width="51" height="30" as="alternateBounds" />
          </mxGeometry>
        </mxCell>
        <mxCell id="N7fRc56kS8bR0nnPCuzB-112" style="shape=tableRow;horizontal=0;startSize=0;swimlaneHead=0;swimlaneBody=0;top=0;left=0;bottom=0;right=0;collapsible=0;dropTarget=0;fillColor=none;points=[[0,0.5],[1,0.5]];portConstraint=eastwest;strokeColor=inherit;fontSize=16;" parent="N7fRc56kS8bR0nnPCuzB-95" vertex="1">
          <mxGeometry y="120" width="480" height="40" as="geometry" />
        </mxCell>
        <mxCell id="N7fRc56kS8bR0nnPCuzB-113" value="5" style="shape=partialRectangle;html=1;whiteSpace=wrap;connectable=0;fillColor=none;top=0;left=0;bottom=0;right=0;overflow=hidden;strokeColor=inherit;fontSize=16;" parent="N7fRc56kS8bR0nnPCuzB-112" vertex="1">
          <mxGeometry width="61" height="40" as="geometry">
            <mxRectangle width="61" height="40" as="alternateBounds" />
          </mxGeometry>
        </mxCell>
        <mxCell id="N7fRc56kS8bR0nnPCuzB-114" value="CHARGE_TYPE_REF_CODE" style="shape=partialRectangle;html=1;whiteSpace=wrap;connectable=0;fillColor=none;top=0;left=0;bottom=0;right=0;align=left;spacingLeft=6;overflow=hidden;strokeColor=inherit;fontSize=16;" parent="N7fRc56kS8bR0nnPCuzB-112" vertex="1">
          <mxGeometry x="61" width="368" height="40" as="geometry">
            <mxRectangle width="368" height="40" as="alternateBounds" />
          </mxGeometry>
        </mxCell>
        <mxCell id="N7fRc56kS8bR0nnPCuzB-115" style="shape=partialRectangle;html=1;whiteSpace=wrap;connectable=0;fillColor=none;top=0;left=0;bottom=0;right=0;align=left;spacingLeft=6;overflow=hidden;strokeColor=inherit;fontSize=16;" parent="N7fRc56kS8bR0nnPCuzB-112" vertex="1">
          <mxGeometry x="429" width="51" height="40" as="geometry">
            <mxRectangle width="51" height="40" as="alternateBounds" />
          </mxGeometry>
        </mxCell>
        <mxCell id="N7fRc56kS8bR0nnPCuzB-108" style="shape=tableRow;horizontal=0;startSize=0;swimlaneHead=0;swimlaneBody=0;top=0;left=0;bottom=0;right=0;collapsible=0;dropTarget=0;fillColor=none;points=[[0,0.5],[1,0.5]];portConstraint=eastwest;strokeColor=inherit;fontSize=16;" parent="N7fRc56kS8bR0nnPCuzB-95" vertex="1">
          <mxGeometry y="160" width="480" height="30" as="geometry" />
        </mxCell>
        <mxCell id="N7fRc56kS8bR0nnPCuzB-109" value="4" style="shape=partialRectangle;html=1;whiteSpace=wrap;connectable=0;fillColor=none;top=0;left=0;bottom=0;right=0;overflow=hidden;strokeColor=inherit;fontSize=16;" parent="N7fRc56kS8bR0nnPCuzB-108" vertex="1">
          <mxGeometry width="61" height="30" as="geometry">
            <mxRectangle width="61" height="30" as="alternateBounds" />
          </mxGeometry>
        </mxCell>
        <mxCell id="N7fRc56kS8bR0nnPCuzB-110" value="FINANCIAL_TYPE_NAME" style="shape=partialRectangle;html=1;whiteSpace=wrap;connectable=0;fillColor=none;top=0;left=0;bottom=0;right=0;align=left;spacingLeft=6;overflow=hidden;strokeColor=inherit;fontSize=16;" parent="N7fRc56kS8bR0nnPCuzB-108" vertex="1">
          <mxGeometry x="61" width="368" height="30" as="geometry">
            <mxRectangle width="368" height="30" as="alternateBounds" />
          </mxGeometry>
        </mxCell>
        <mxCell id="N7fRc56kS8bR0nnPCuzB-111" style="shape=partialRectangle;html=1;whiteSpace=wrap;connectable=0;fillColor=none;top=0;left=0;bottom=0;right=0;align=left;spacingLeft=6;overflow=hidden;strokeColor=inherit;fontSize=16;" parent="N7fRc56kS8bR0nnPCuzB-108" vertex="1">
          <mxGeometry x="429" width="51" height="30" as="geometry">
            <mxRectangle width="51" height="30" as="alternateBounds" />
          </mxGeometry>
        </mxCell>
        <mxCell id="N7fRc56kS8bR0nnPCuzB-116" style="shape=tableRow;horizontal=0;startSize=0;swimlaneHead=0;swimlaneBody=0;top=0;left=0;bottom=0;right=0;collapsible=0;dropTarget=0;fillColor=none;points=[[0,0.5],[1,0.5]];portConstraint=eastwest;strokeColor=inherit;fontSize=16;" parent="N7fRc56kS8bR0nnPCuzB-95" vertex="1">
          <mxGeometry y="190" width="480" height="30" as="geometry" />
        </mxCell>
        <mxCell id="N7fRc56kS8bR0nnPCuzB-117" value="6" style="shape=partialRectangle;html=1;whiteSpace=wrap;connectable=0;fillColor=none;top=0;left=0;bottom=0;right=0;overflow=hidden;strokeColor=inherit;fontSize=16;" parent="N7fRc56kS8bR0nnPCuzB-116" vertex="1">
          <mxGeometry width="61" height="30" as="geometry">
            <mxRectangle width="61" height="30" as="alternateBounds" />
          </mxGeometry>
        </mxCell>
        <mxCell id="N7fRc56kS8bR0nnPCuzB-118" value="FIANCIAL_TYPE_REF_CODE" style="shape=partialRectangle;html=1;whiteSpace=wrap;connectable=0;fillColor=none;top=0;left=0;bottom=0;right=0;align=left;spacingLeft=6;overflow=hidden;strokeColor=inherit;fontSize=16;" parent="N7fRc56kS8bR0nnPCuzB-116" vertex="1">
          <mxGeometry x="61" width="368" height="30" as="geometry">
            <mxRectangle width="368" height="30" as="alternateBounds" />
          </mxGeometry>
        </mxCell>
        <mxCell id="N7fRc56kS8bR0nnPCuzB-119" style="shape=partialRectangle;html=1;whiteSpace=wrap;connectable=0;fillColor=none;top=0;left=0;bottom=0;right=0;align=left;spacingLeft=6;overflow=hidden;strokeColor=inherit;fontSize=16;" parent="N7fRc56kS8bR0nnPCuzB-116" vertex="1">
          <mxGeometry x="429" width="51" height="30" as="geometry">
            <mxRectangle width="51" height="30" as="alternateBounds" />
          </mxGeometry>
        </mxCell>
        <mxCell id="N7fRc56kS8bR0nnPCuzB-120" value="" style="shape=tableRow;horizontal=0;startSize=0;swimlaneHead=0;swimlaneBody=0;top=0;left=0;bottom=0;right=0;collapsible=0;dropTarget=0;fillColor=none;points=[[0,0.5],[1,0.5]];portConstraint=eastwest;strokeColor=inherit;fontSize=16;" parent="N7fRc56kS8bR0nnPCuzB-95" vertex="1">
          <mxGeometry y="220" width="480" height="30" as="geometry" />
        </mxCell>
        <mxCell id="N7fRc56kS8bR0nnPCuzB-121" value="7" style="shape=partialRectangle;html=1;whiteSpace=wrap;connectable=0;fillColor=none;top=0;left=0;bottom=0;right=0;overflow=hidden;strokeColor=inherit;fontSize=16;" parent="N7fRc56kS8bR0nnPCuzB-120" vertex="1">
          <mxGeometry width="61" height="30" as="geometry">
            <mxRectangle width="61" height="30" as="alternateBounds" />
          </mxGeometry>
        </mxCell>
        <mxCell id="N7fRc56kS8bR0nnPCuzB-122" value="DESCRIPTION_CODE" style="shape=partialRectangle;html=1;whiteSpace=wrap;connectable=0;fillColor=none;top=0;left=0;bottom=0;right=0;align=left;spacingLeft=6;overflow=hidden;strokeColor=inherit;fontSize=16;" parent="N7fRc56kS8bR0nnPCuzB-120" vertex="1">
          <mxGeometry x="61" width="368" height="30" as="geometry">
            <mxRectangle width="368" height="30" as="alternateBounds" />
          </mxGeometry>
        </mxCell>
        <mxCell id="N7fRc56kS8bR0nnPCuzB-123" style="shape=partialRectangle;html=1;whiteSpace=wrap;connectable=0;fillColor=none;top=0;left=0;bottom=0;right=0;align=left;spacingLeft=6;overflow=hidden;strokeColor=inherit;fontSize=16;" parent="N7fRc56kS8bR0nnPCuzB-120" vertex="1">
          <mxGeometry x="429" width="51" height="30" as="geometry">
            <mxRectangle width="51" height="30" as="alternateBounds" />
          </mxGeometry>
        </mxCell>
        <mxCell id="N7fRc56kS8bR0nnPCuzB-124" style="shape=tableRow;horizontal=0;startSize=0;swimlaneHead=0;swimlaneBody=0;top=0;left=0;bottom=0;right=0;collapsible=0;dropTarget=0;fillColor=none;points=[[0,0.5],[1,0.5]];portConstraint=eastwest;strokeColor=inherit;fontSize=16;" parent="N7fRc56kS8bR0nnPCuzB-95" vertex="1">
          <mxGeometry y="250" width="480" height="30" as="geometry" />
        </mxCell>
        <mxCell id="N7fRc56kS8bR0nnPCuzB-125" value="8" style="shape=partialRectangle;html=1;whiteSpace=wrap;connectable=0;fillColor=none;top=0;left=0;bottom=0;right=0;overflow=hidden;strokeColor=inherit;fontSize=16;" parent="N7fRc56kS8bR0nnPCuzB-124" vertex="1">
          <mxGeometry width="61" height="30" as="geometry">
            <mxRectangle width="61" height="30" as="alternateBounds" />
          </mxGeometry>
        </mxCell>
        <mxCell id="N7fRc56kS8bR0nnPCuzB-126" value="" style="shape=partialRectangle;html=1;whiteSpace=wrap;connectable=0;fillColor=none;top=0;left=0;bottom=0;right=0;align=left;spacingLeft=6;overflow=hidden;strokeColor=inherit;fontSize=16;" parent="N7fRc56kS8bR0nnPCuzB-124" vertex="1">
          <mxGeometry x="61" width="368" height="30" as="geometry">
            <mxRectangle width="368" height="30" as="alternateBounds" />
          </mxGeometry>
        </mxCell>
        <mxCell id="N7fRc56kS8bR0nnPCuzB-127" style="shape=partialRectangle;html=1;whiteSpace=wrap;connectable=0;fillColor=none;top=0;left=0;bottom=0;right=0;align=left;spacingLeft=6;overflow=hidden;strokeColor=inherit;fontSize=16;" parent="N7fRc56kS8bR0nnPCuzB-124" vertex="1">
          <mxGeometry x="429" width="51" height="30" as="geometry">
            <mxRectangle width="51" height="30" as="alternateBounds" />
          </mxGeometry>
        </mxCell>
        <mxCell id="N7fRc56kS8bR0nnPCuzB-128" style="shape=tableRow;horizontal=0;startSize=0;swimlaneHead=0;swimlaneBody=0;top=0;left=0;bottom=0;right=0;collapsible=0;dropTarget=0;fillColor=none;points=[[0,0.5],[1,0.5]];portConstraint=eastwest;strokeColor=inherit;fontSize=16;" parent="N7fRc56kS8bR0nnPCuzB-95" vertex="1">
          <mxGeometry y="280" width="480" height="20" as="geometry" />
        </mxCell>
        <mxCell id="N7fRc56kS8bR0nnPCuzB-129" value="9" style="shape=partialRectangle;html=1;whiteSpace=wrap;connectable=0;fillColor=none;top=0;left=0;bottom=0;right=0;overflow=hidden;strokeColor=inherit;fontSize=16;" parent="N7fRc56kS8bR0nnPCuzB-128" vertex="1">
          <mxGeometry width="61" height="20" as="geometry">
            <mxRectangle width="61" height="20" as="alternateBounds" />
          </mxGeometry>
        </mxCell>
        <mxCell id="N7fRc56kS8bR0nnPCuzB-130" value="" style="shape=partialRectangle;html=1;whiteSpace=wrap;connectable=0;fillColor=none;top=0;left=0;bottom=0;right=0;align=left;spacingLeft=6;overflow=hidden;strokeColor=inherit;fontSize=16;" parent="N7fRc56kS8bR0nnPCuzB-128" vertex="1">
          <mxGeometry x="61" width="368" height="20" as="geometry">
            <mxRectangle width="368" height="20" as="alternateBounds" />
          </mxGeometry>
        </mxCell>
        <mxCell id="N7fRc56kS8bR0nnPCuzB-131" style="shape=partialRectangle;html=1;whiteSpace=wrap;connectable=0;fillColor=none;top=0;left=0;bottom=0;right=0;align=left;spacingLeft=6;overflow=hidden;strokeColor=inherit;fontSize=16;" parent="N7fRc56kS8bR0nnPCuzB-128" vertex="1">
          <mxGeometry x="429" width="51" height="20" as="geometry">
            <mxRectangle width="51" height="20" as="alternateBounds" />
          </mxGeometry>
        </mxCell>
        <mxCell id="N7fRc56kS8bR0nnPCuzB-132" style="shape=tableRow;horizontal=0;startSize=0;swimlaneHead=0;swimlaneBody=0;top=0;left=0;bottom=0;right=0;collapsible=0;dropTarget=0;fillColor=none;points=[[0,0.5],[1,0.5]];portConstraint=eastwest;strokeColor=inherit;fontSize=16;" parent="N7fRc56kS8bR0nnPCuzB-95" vertex="1">
          <mxGeometry y="300" width="480" height="30" as="geometry" />
        </mxCell>
        <mxCell id="N7fRc56kS8bR0nnPCuzB-133" value="10" style="shape=partialRectangle;html=1;whiteSpace=wrap;connectable=0;fillColor=none;top=0;left=0;bottom=0;right=0;overflow=hidden;strokeColor=inherit;fontSize=16;" parent="N7fRc56kS8bR0nnPCuzB-132" vertex="1">
          <mxGeometry width="61" height="30" as="geometry">
            <mxRectangle width="61" height="30" as="alternateBounds" />
          </mxGeometry>
        </mxCell>
        <mxCell id="N7fRc56kS8bR0nnPCuzB-134" value="" style="shape=partialRectangle;html=1;whiteSpace=wrap;connectable=0;fillColor=none;top=0;left=0;bottom=0;right=0;align=left;spacingLeft=6;overflow=hidden;strokeColor=inherit;fontSize=16;" parent="N7fRc56kS8bR0nnPCuzB-132" vertex="1">
          <mxGeometry x="61" width="368" height="30" as="geometry">
            <mxRectangle width="368" height="30" as="alternateBounds" />
          </mxGeometry>
        </mxCell>
        <mxCell id="N7fRc56kS8bR0nnPCuzB-135" style="shape=partialRectangle;html=1;whiteSpace=wrap;connectable=0;fillColor=none;top=0;left=0;bottom=0;right=0;align=left;spacingLeft=6;overflow=hidden;strokeColor=inherit;fontSize=16;" parent="N7fRc56kS8bR0nnPCuzB-132" vertex="1">
          <mxGeometry x="429" width="51" height="30" as="geometry">
            <mxRectangle width="51" height="30" as="alternateBounds" />
          </mxGeometry>
        </mxCell>
        <mxCell id="N7fRc56kS8bR0nnPCuzB-136" value="GL_JOURNAL_ENTRY" style="shape=table;startSize=30;container=1;collapsible=0;childLayout=tableLayout;fixedRows=1;rowLines=0;fontStyle=0;strokeColor=#82b366;fontSize=16;fillColor=#d5e8d4;" parent="1" vertex="1">
          <mxGeometry x="-100" y="-221" width="480" height="410" as="geometry" />
        </mxCell>
        <mxCell id="N7fRc56kS8bR0nnPCuzB-137" value="" style="shape=tableRow;horizontal=0;startSize=0;swimlaneHead=0;swimlaneBody=0;top=0;left=0;bottom=0;right=0;collapsible=0;dropTarget=0;fillColor=none;points=[[0,0.5],[1,0.5]];portConstraint=eastwest;strokeColor=inherit;fontSize=16;" parent="N7fRc56kS8bR0nnPCuzB-136" vertex="1">
          <mxGeometry y="30" width="480" height="30" as="geometry" />
        </mxCell>
        <mxCell id="N7fRc56kS8bR0nnPCuzB-138" value="1" style="shape=partialRectangle;html=1;whiteSpace=wrap;connectable=0;fillColor=none;top=0;left=0;bottom=0;right=0;overflow=hidden;pointerEvents=1;strokeColor=inherit;fontSize=16;" parent="N7fRc56kS8bR0nnPCuzB-137" vertex="1">
          <mxGeometry width="61" height="30" as="geometry">
            <mxRectangle width="61" height="30" as="alternateBounds" />
          </mxGeometry>
        </mxCell>
        <mxCell id="N7fRc56kS8bR0nnPCuzB-139" value="ID" style="shape=partialRectangle;html=1;whiteSpace=wrap;connectable=0;fillColor=none;top=0;left=0;bottom=0;right=0;align=left;spacingLeft=6;overflow=hidden;strokeColor=inherit;fontSize=16;" parent="N7fRc56kS8bR0nnPCuzB-137" vertex="1">
          <mxGeometry x="61" width="368" height="30" as="geometry">
            <mxRectangle width="368" height="30" as="alternateBounds" />
          </mxGeometry>
        </mxCell>
        <mxCell id="N7fRc56kS8bR0nnPCuzB-140" style="shape=partialRectangle;html=1;whiteSpace=wrap;connectable=0;fillColor=none;top=0;left=0;bottom=0;right=0;align=left;spacingLeft=6;overflow=hidden;strokeColor=inherit;fontSize=16;" parent="N7fRc56kS8bR0nnPCuzB-137" vertex="1">
          <mxGeometry x="429" width="51" height="30" as="geometry">
            <mxRectangle width="51" height="30" as="alternateBounds" />
          </mxGeometry>
        </mxCell>
        <mxCell id="N7fRc56kS8bR0nnPCuzB-141" style="shape=tableRow;horizontal=0;startSize=0;swimlaneHead=0;swimlaneBody=0;top=0;left=0;bottom=0;right=0;collapsible=0;dropTarget=0;fillColor=none;points=[[0,0.5],[1,0.5]];portConstraint=eastwest;strokeColor=inherit;fontSize=16;" parent="N7fRc56kS8bR0nnPCuzB-136" vertex="1">
          <mxGeometry y="60" width="480" height="30" as="geometry" />
        </mxCell>
        <mxCell id="N7fRc56kS8bR0nnPCuzB-142" value="2" style="shape=partialRectangle;html=1;whiteSpace=wrap;connectable=0;fillColor=none;top=0;left=0;bottom=0;right=0;overflow=hidden;strokeColor=inherit;fontSize=16;" parent="N7fRc56kS8bR0nnPCuzB-141" vertex="1">
          <mxGeometry width="61" height="30" as="geometry">
            <mxRectangle width="61" height="30" as="alternateBounds" />
          </mxGeometry>
        </mxCell>
        <mxCell id="N7fRc56kS8bR0nnPCuzB-143" value="GL_ACCOUNT_ID" style="shape=partialRectangle;html=1;whiteSpace=wrap;connectable=0;fillColor=none;top=0;left=0;bottom=0;right=0;align=left;spacingLeft=6;overflow=hidden;strokeColor=inherit;fontSize=16;" parent="N7fRc56kS8bR0nnPCuzB-141" vertex="1">
          <mxGeometry x="61" width="368" height="30" as="geometry">
            <mxRectangle width="368" height="30" as="alternateBounds" />
          </mxGeometry>
        </mxCell>
        <mxCell id="N7fRc56kS8bR0nnPCuzB-144" style="shape=partialRectangle;html=1;whiteSpace=wrap;connectable=0;fillColor=none;top=0;left=0;bottom=0;right=0;align=left;spacingLeft=6;overflow=hidden;strokeColor=inherit;fontSize=16;" parent="N7fRc56kS8bR0nnPCuzB-141" vertex="1">
          <mxGeometry x="429" width="51" height="30" as="geometry">
            <mxRectangle width="51" height="30" as="alternateBounds" />
          </mxGeometry>
        </mxCell>
        <mxCell id="N7fRc56kS8bR0nnPCuzB-145" style="shape=tableRow;horizontal=0;startSize=0;swimlaneHead=0;swimlaneBody=0;top=0;left=0;bottom=0;right=0;collapsible=0;dropTarget=0;fillColor=none;points=[[0,0.5],[1,0.5]];portConstraint=eastwest;strokeColor=inherit;fontSize=16;" parent="N7fRc56kS8bR0nnPCuzB-136" vertex="1">
          <mxGeometry y="90" width="480" height="30" as="geometry" />
        </mxCell>
        <mxCell id="N7fRc56kS8bR0nnPCuzB-146" style="shape=partialRectangle;html=1;whiteSpace=wrap;connectable=0;fillColor=none;top=0;left=0;bottom=0;right=0;overflow=hidden;strokeColor=inherit;fontSize=16;" parent="N7fRc56kS8bR0nnPCuzB-145" vertex="1">
          <mxGeometry width="61" height="30" as="geometry">
            <mxRectangle width="61" height="30" as="alternateBounds" />
          </mxGeometry>
        </mxCell>
        <mxCell id="N7fRc56kS8bR0nnPCuzB-147" value="DRCR_TYPE" style="shape=partialRectangle;html=1;whiteSpace=wrap;connectable=0;fillColor=none;top=0;left=0;bottom=0;right=0;align=left;spacingLeft=6;overflow=hidden;strokeColor=inherit;fontSize=16;" parent="N7fRc56kS8bR0nnPCuzB-145" vertex="1">
          <mxGeometry x="61" width="368" height="30" as="geometry">
            <mxRectangle width="368" height="30" as="alternateBounds" />
          </mxGeometry>
        </mxCell>
        <mxCell id="N7fRc56kS8bR0nnPCuzB-148" style="shape=partialRectangle;html=1;whiteSpace=wrap;connectable=0;fillColor=none;top=0;left=0;bottom=0;right=0;align=left;spacingLeft=6;overflow=hidden;strokeColor=inherit;fontSize=16;" parent="N7fRc56kS8bR0nnPCuzB-145" vertex="1">
          <mxGeometry x="429" width="51" height="30" as="geometry">
            <mxRectangle width="51" height="30" as="alternateBounds" />
          </mxGeometry>
        </mxCell>
        <mxCell id="N7fRc56kS8bR0nnPCuzB-149" style="shape=tableRow;horizontal=0;startSize=0;swimlaneHead=0;swimlaneBody=0;top=0;left=0;bottom=0;right=0;collapsible=0;dropTarget=0;fillColor=none;points=[[0,0.5],[1,0.5]];portConstraint=eastwest;strokeColor=inherit;fontSize=16;" parent="N7fRc56kS8bR0nnPCuzB-136" vertex="1">
          <mxGeometry y="120" width="480" height="30" as="geometry" />
        </mxCell>
        <mxCell id="N7fRc56kS8bR0nnPCuzB-150" style="shape=partialRectangle;html=1;whiteSpace=wrap;connectable=0;fillColor=none;top=0;left=0;bottom=0;right=0;overflow=hidden;strokeColor=inherit;fontSize=16;" parent="N7fRc56kS8bR0nnPCuzB-149" vertex="1">
          <mxGeometry width="61" height="30" as="geometry">
            <mxRectangle width="61" height="30" as="alternateBounds" />
          </mxGeometry>
        </mxCell>
        <mxCell id="N7fRc56kS8bR0nnPCuzB-151" value="AMOUNT" style="shape=partialRectangle;html=1;whiteSpace=wrap;connectable=0;fillColor=none;top=0;left=0;bottom=0;right=0;align=left;spacingLeft=6;overflow=hidden;strokeColor=inherit;fontSize=16;" parent="N7fRc56kS8bR0nnPCuzB-149" vertex="1">
          <mxGeometry x="61" width="368" height="30" as="geometry">
            <mxRectangle width="368" height="30" as="alternateBounds" />
          </mxGeometry>
        </mxCell>
        <mxCell id="N7fRc56kS8bR0nnPCuzB-152" style="shape=partialRectangle;html=1;whiteSpace=wrap;connectable=0;fillColor=none;top=0;left=0;bottom=0;right=0;align=left;spacingLeft=6;overflow=hidden;strokeColor=inherit;fontSize=16;" parent="N7fRc56kS8bR0nnPCuzB-149" vertex="1">
          <mxGeometry x="429" width="51" height="30" as="geometry">
            <mxRectangle width="51" height="30" as="alternateBounds" />
          </mxGeometry>
        </mxCell>
        <mxCell id="N7fRc56kS8bR0nnPCuzB-153" value="" style="shape=tableRow;horizontal=0;startSize=0;swimlaneHead=0;swimlaneBody=0;top=0;left=0;bottom=0;right=0;collapsible=0;dropTarget=0;fillColor=none;points=[[0,0.5],[1,0.5]];portConstraint=eastwest;strokeColor=inherit;fontSize=16;" parent="N7fRc56kS8bR0nnPCuzB-136" vertex="1">
          <mxGeometry y="150" width="480" height="20" as="geometry" />
        </mxCell>
        <mxCell id="N7fRc56kS8bR0nnPCuzB-154" value="3" style="shape=partialRectangle;html=1;whiteSpace=wrap;connectable=0;fillColor=none;top=0;left=0;bottom=0;right=0;overflow=hidden;strokeColor=inherit;fontSize=16;" parent="N7fRc56kS8bR0nnPCuzB-153" vertex="1">
          <mxGeometry width="61" height="20" as="geometry">
            <mxRectangle width="61" height="20" as="alternateBounds" />
          </mxGeometry>
        </mxCell>
        <mxCell id="N7fRc56kS8bR0nnPCuzB-155" value="CURRENCY_CODE" style="shape=partialRectangle;html=1;whiteSpace=wrap;connectable=0;fillColor=none;top=0;left=0;bottom=0;right=0;align=left;spacingLeft=6;overflow=hidden;strokeColor=inherit;fontSize=16;" parent="N7fRc56kS8bR0nnPCuzB-153" vertex="1">
          <mxGeometry x="61" width="368" height="20" as="geometry">
            <mxRectangle width="368" height="20" as="alternateBounds" />
          </mxGeometry>
        </mxCell>
        <mxCell id="N7fRc56kS8bR0nnPCuzB-156" style="shape=partialRectangle;html=1;whiteSpace=wrap;connectable=0;fillColor=none;top=0;left=0;bottom=0;right=0;align=left;spacingLeft=6;overflow=hidden;strokeColor=inherit;fontSize=16;" parent="N7fRc56kS8bR0nnPCuzB-153" vertex="1">
          <mxGeometry x="429" width="51" height="20" as="geometry">
            <mxRectangle width="51" height="20" as="alternateBounds" />
          </mxGeometry>
        </mxCell>
        <mxCell id="N7fRc56kS8bR0nnPCuzB-157" style="shape=tableRow;horizontal=0;startSize=0;swimlaneHead=0;swimlaneBody=0;top=0;left=0;bottom=0;right=0;collapsible=0;dropTarget=0;fillColor=none;points=[[0,0.5],[1,0.5]];portConstraint=eastwest;strokeColor=inherit;fontSize=16;" parent="N7fRc56kS8bR0nnPCuzB-136" vertex="1">
          <mxGeometry y="170" width="480" height="30" as="geometry" />
        </mxCell>
        <mxCell id="N7fRc56kS8bR0nnPCuzB-158" value="4" style="shape=partialRectangle;html=1;whiteSpace=wrap;connectable=0;fillColor=none;top=0;left=0;bottom=0;right=0;overflow=hidden;strokeColor=inherit;fontSize=16;" parent="N7fRc56kS8bR0nnPCuzB-157" vertex="1">
          <mxGeometry width="61" height="30" as="geometry">
            <mxRectangle width="61" height="30" as="alternateBounds" />
          </mxGeometry>
        </mxCell>
        <mxCell id="N7fRc56kS8bR0nnPCuzB-159" value="TRANSACTION_ID" style="shape=partialRectangle;html=1;whiteSpace=wrap;connectable=0;fillColor=none;top=0;left=0;bottom=0;right=0;align=left;spacingLeft=6;overflow=hidden;strokeColor=inherit;fontSize=16;" parent="N7fRc56kS8bR0nnPCuzB-157" vertex="1">
          <mxGeometry x="61" width="368" height="30" as="geometry">
            <mxRectangle width="368" height="30" as="alternateBounds" />
          </mxGeometry>
        </mxCell>
        <mxCell id="N7fRc56kS8bR0nnPCuzB-160" style="shape=partialRectangle;html=1;whiteSpace=wrap;connectable=0;fillColor=none;top=0;left=0;bottom=0;right=0;align=left;spacingLeft=6;overflow=hidden;strokeColor=inherit;fontSize=16;" parent="N7fRc56kS8bR0nnPCuzB-157" vertex="1">
          <mxGeometry x="429" width="51" height="30" as="geometry">
            <mxRectangle width="51" height="30" as="alternateBounds" />
          </mxGeometry>
        </mxCell>
        <mxCell id="N7fRc56kS8bR0nnPCuzB-161" style="shape=tableRow;horizontal=0;startSize=0;swimlaneHead=0;swimlaneBody=0;top=0;left=0;bottom=0;right=0;collapsible=0;dropTarget=0;fillColor=none;points=[[0,0.5],[1,0.5]];portConstraint=eastwest;strokeColor=inherit;fontSize=16;" parent="N7fRc56kS8bR0nnPCuzB-136" vertex="1">
          <mxGeometry y="200" width="480" height="40" as="geometry" />
        </mxCell>
        <mxCell id="N7fRc56kS8bR0nnPCuzB-162" value="5" style="shape=partialRectangle;html=1;whiteSpace=wrap;connectable=0;fillColor=none;top=0;left=0;bottom=0;right=0;overflow=hidden;strokeColor=inherit;fontSize=16;" parent="N7fRc56kS8bR0nnPCuzB-161" vertex="1">
          <mxGeometry width="61" height="40" as="geometry">
            <mxRectangle width="61" height="40" as="alternateBounds" />
          </mxGeometry>
        </mxCell>
        <mxCell id="N7fRc56kS8bR0nnPCuzB-163" value="REFERENCE_NUMBER" style="shape=partialRectangle;html=1;whiteSpace=wrap;connectable=0;fillColor=none;top=0;left=0;bottom=0;right=0;align=left;spacingLeft=6;overflow=hidden;strokeColor=inherit;fontSize=16;" parent="N7fRc56kS8bR0nnPCuzB-161" vertex="1">
          <mxGeometry x="61" width="368" height="40" as="geometry">
            <mxRectangle width="368" height="40" as="alternateBounds" />
          </mxGeometry>
        </mxCell>
        <mxCell id="N7fRc56kS8bR0nnPCuzB-164" style="shape=partialRectangle;html=1;whiteSpace=wrap;connectable=0;fillColor=none;top=0;left=0;bottom=0;right=0;align=left;spacingLeft=6;overflow=hidden;strokeColor=inherit;fontSize=16;" parent="N7fRc56kS8bR0nnPCuzB-161" vertex="1">
          <mxGeometry x="429" width="51" height="40" as="geometry">
            <mxRectangle width="51" height="40" as="alternateBounds" />
          </mxGeometry>
        </mxCell>
        <mxCell id="N7fRc56kS8bR0nnPCuzB-165" style="shape=tableRow;horizontal=0;startSize=0;swimlaneHead=0;swimlaneBody=0;top=0;left=0;bottom=0;right=0;collapsible=0;dropTarget=0;fillColor=none;points=[[0,0.5],[1,0.5]];portConstraint=eastwest;strokeColor=inherit;fontSize=16;" parent="N7fRc56kS8bR0nnPCuzB-136" vertex="1">
          <mxGeometry y="240" width="480" height="30" as="geometry" />
        </mxCell>
        <mxCell id="N7fRc56kS8bR0nnPCuzB-166" value="6" style="shape=partialRectangle;html=1;whiteSpace=wrap;connectable=0;fillColor=none;top=0;left=0;bottom=0;right=0;overflow=hidden;strokeColor=inherit;fontSize=16;" parent="N7fRc56kS8bR0nnPCuzB-165" vertex="1">
          <mxGeometry width="61" height="30" as="geometry">
            <mxRectangle width="61" height="30" as="alternateBounds" />
          </mxGeometry>
        </mxCell>
        <mxCell id="N7fRc56kS8bR0nnPCuzB-167" value="EXTERNAL_REFERENCE_NUMBER" style="shape=partialRectangle;html=1;whiteSpace=wrap;connectable=0;fillColor=none;top=0;left=0;bottom=0;right=0;align=left;spacingLeft=6;overflow=hidden;strokeColor=inherit;fontSize=16;" parent="N7fRc56kS8bR0nnPCuzB-165" vertex="1">
          <mxGeometry x="61" width="368" height="30" as="geometry">
            <mxRectangle width="368" height="30" as="alternateBounds" />
          </mxGeometry>
        </mxCell>
        <mxCell id="N7fRc56kS8bR0nnPCuzB-168" style="shape=partialRectangle;html=1;whiteSpace=wrap;connectable=0;fillColor=none;top=0;left=0;bottom=0;right=0;align=left;spacingLeft=6;overflow=hidden;strokeColor=inherit;fontSize=16;" parent="N7fRc56kS8bR0nnPCuzB-165" vertex="1">
          <mxGeometry x="429" width="51" height="30" as="geometry">
            <mxRectangle width="51" height="30" as="alternateBounds" />
          </mxGeometry>
        </mxCell>
        <mxCell id="N7fRc56kS8bR0nnPCuzB-169" value="" style="shape=tableRow;horizontal=0;startSize=0;swimlaneHead=0;swimlaneBody=0;top=0;left=0;bottom=0;right=0;collapsible=0;dropTarget=0;fillColor=none;points=[[0,0.5],[1,0.5]];portConstraint=eastwest;strokeColor=inherit;fontSize=16;" parent="N7fRc56kS8bR0nnPCuzB-136" vertex="1">
          <mxGeometry y="270" width="480" height="30" as="geometry" />
        </mxCell>
        <mxCell id="N7fRc56kS8bR0nnPCuzB-170" value="7" style="shape=partialRectangle;html=1;whiteSpace=wrap;connectable=0;fillColor=none;top=0;left=0;bottom=0;right=0;overflow=hidden;strokeColor=inherit;fontSize=16;" parent="N7fRc56kS8bR0nnPCuzB-169" vertex="1">
          <mxGeometry width="61" height="30" as="geometry">
            <mxRectangle width="61" height="30" as="alternateBounds" />
          </mxGeometry>
        </mxCell>
        <mxCell id="N7fRc56kS8bR0nnPCuzB-171" value="DESCRIPTION_CODE" style="shape=partialRectangle;html=1;whiteSpace=wrap;connectable=0;fillColor=none;top=0;left=0;bottom=0;right=0;align=left;spacingLeft=6;overflow=hidden;strokeColor=inherit;fontSize=16;" parent="N7fRc56kS8bR0nnPCuzB-169" vertex="1">
          <mxGeometry x="61" width="368" height="30" as="geometry">
            <mxRectangle width="368" height="30" as="alternateBounds" />
          </mxGeometry>
        </mxCell>
        <mxCell id="N7fRc56kS8bR0nnPCuzB-172" style="shape=partialRectangle;html=1;whiteSpace=wrap;connectable=0;fillColor=none;top=0;left=0;bottom=0;right=0;align=left;spacingLeft=6;overflow=hidden;strokeColor=inherit;fontSize=16;" parent="N7fRc56kS8bR0nnPCuzB-169" vertex="1">
          <mxGeometry x="429" width="51" height="30" as="geometry">
            <mxRectangle width="51" height="30" as="alternateBounds" />
          </mxGeometry>
        </mxCell>
        <mxCell id="N7fRc56kS8bR0nnPCuzB-173" style="shape=tableRow;horizontal=0;startSize=0;swimlaneHead=0;swimlaneBody=0;top=0;left=0;bottom=0;right=0;collapsible=0;dropTarget=0;fillColor=none;points=[[0,0.5],[1,0.5]];portConstraint=eastwest;strokeColor=inherit;fontSize=16;" parent="N7fRc56kS8bR0nnPCuzB-136" vertex="1">
          <mxGeometry y="300" width="480" height="30" as="geometry" />
        </mxCell>
        <mxCell id="N7fRc56kS8bR0nnPCuzB-174" value="8" style="shape=partialRectangle;html=1;whiteSpace=wrap;connectable=0;fillColor=none;top=0;left=0;bottom=0;right=0;overflow=hidden;strokeColor=inherit;fontSize=16;" parent="N7fRc56kS8bR0nnPCuzB-173" vertex="1">
          <mxGeometry width="61" height="30" as="geometry">
            <mxRectangle width="61" height="30" as="alternateBounds" />
          </mxGeometry>
        </mxCell>
        <mxCell id="N7fRc56kS8bR0nnPCuzB-175" value="ENTRY_DATE" style="shape=partialRectangle;html=1;whiteSpace=wrap;connectable=0;fillColor=none;top=0;left=0;bottom=0;right=0;align=left;spacingLeft=6;overflow=hidden;strokeColor=inherit;fontSize=16;" parent="N7fRc56kS8bR0nnPCuzB-173" vertex="1">
          <mxGeometry x="61" width="368" height="30" as="geometry">
            <mxRectangle width="368" height="30" as="alternateBounds" />
          </mxGeometry>
        </mxCell>
        <mxCell id="N7fRc56kS8bR0nnPCuzB-176" value="TIMESTAMP" style="shape=partialRectangle;html=1;whiteSpace=wrap;connectable=0;fillColor=none;top=0;left=0;bottom=0;right=0;align=left;spacingLeft=6;overflow=hidden;strokeColor=inherit;fontSize=16;" parent="N7fRc56kS8bR0nnPCuzB-173" vertex="1">
          <mxGeometry x="429" width="51" height="30" as="geometry">
            <mxRectangle width="51" height="30" as="alternateBounds" />
          </mxGeometry>
        </mxCell>
        <mxCell id="N7fRc56kS8bR0nnPCuzB-177" style="shape=tableRow;horizontal=0;startSize=0;swimlaneHead=0;swimlaneBody=0;top=0;left=0;bottom=0;right=0;collapsible=0;dropTarget=0;fillColor=none;points=[[0,0.5],[1,0.5]];portConstraint=eastwest;strokeColor=inherit;fontSize=16;" parent="N7fRc56kS8bR0nnPCuzB-136" vertex="1">
          <mxGeometry y="330" width="480" height="20" as="geometry" />
        </mxCell>
        <mxCell id="N7fRc56kS8bR0nnPCuzB-178" value="9" style="shape=partialRectangle;html=1;whiteSpace=wrap;connectable=0;fillColor=none;top=0;left=0;bottom=0;right=0;overflow=hidden;strokeColor=inherit;fontSize=16;" parent="N7fRc56kS8bR0nnPCuzB-177" vertex="1">
          <mxGeometry width="61" height="20" as="geometry">
            <mxRectangle width="61" height="20" as="alternateBounds" />
          </mxGeometry>
        </mxCell>
        <mxCell id="N7fRc56kS8bR0nnPCuzB-179" value="MANUAL_ENTRY" style="shape=partialRectangle;html=1;whiteSpace=wrap;connectable=0;fillColor=none;top=0;left=0;bottom=0;right=0;align=left;spacingLeft=6;overflow=hidden;strokeColor=inherit;fontSize=16;" parent="N7fRc56kS8bR0nnPCuzB-177" vertex="1">
          <mxGeometry x="61" width="368" height="20" as="geometry">
            <mxRectangle width="368" height="20" as="alternateBounds" />
          </mxGeometry>
        </mxCell>
        <mxCell id="N7fRc56kS8bR0nnPCuzB-180" value="BOOLEAN" style="shape=partialRectangle;html=1;whiteSpace=wrap;connectable=0;fillColor=none;top=0;left=0;bottom=0;right=0;align=left;spacingLeft=6;overflow=hidden;strokeColor=inherit;fontSize=16;" parent="N7fRc56kS8bR0nnPCuzB-177" vertex="1">
          <mxGeometry x="429" width="51" height="20" as="geometry">
            <mxRectangle width="51" height="20" as="alternateBounds" />
          </mxGeometry>
        </mxCell>
        <mxCell id="N7fRc56kS8bR0nnPCuzB-181" style="shape=tableRow;horizontal=0;startSize=0;swimlaneHead=0;swimlaneBody=0;top=0;left=0;bottom=0;right=0;collapsible=0;dropTarget=0;fillColor=none;points=[[0,0.5],[1,0.5]];portConstraint=eastwest;strokeColor=inherit;fontSize=16;" parent="N7fRc56kS8bR0nnPCuzB-136" vertex="1">
          <mxGeometry y="350" width="480" height="30" as="geometry" />
        </mxCell>
        <mxCell id="N7fRc56kS8bR0nnPCuzB-182" style="shape=partialRectangle;html=1;whiteSpace=wrap;connectable=0;fillColor=none;top=0;left=0;bottom=0;right=0;overflow=hidden;strokeColor=inherit;fontSize=16;" parent="N7fRc56kS8bR0nnPCuzB-181" vertex="1">
          <mxGeometry width="61" height="30" as="geometry">
            <mxRectangle width="61" height="30" as="alternateBounds" />
          </mxGeometry>
        </mxCell>
        <mxCell id="N7fRc56kS8bR0nnPCuzB-183" style="shape=partialRectangle;html=1;whiteSpace=wrap;connectable=0;fillColor=none;top=0;left=0;bottom=0;right=0;align=left;spacingLeft=6;overflow=hidden;strokeColor=inherit;fontSize=16;" parent="N7fRc56kS8bR0nnPCuzB-181" vertex="1">
          <mxGeometry x="61" width="368" height="30" as="geometry">
            <mxRectangle width="368" height="30" as="alternateBounds" />
          </mxGeometry>
        </mxCell>
        <mxCell id="N7fRc56kS8bR0nnPCuzB-184" style="shape=partialRectangle;html=1;whiteSpace=wrap;connectable=0;fillColor=none;top=0;left=0;bottom=0;right=0;align=left;spacingLeft=6;overflow=hidden;strokeColor=inherit;fontSize=16;" parent="N7fRc56kS8bR0nnPCuzB-181" vertex="1">
          <mxGeometry x="429" width="51" height="30" as="geometry">
            <mxRectangle width="51" height="30" as="alternateBounds" />
          </mxGeometry>
        </mxCell>
        <mxCell id="N7fRc56kS8bR0nnPCuzB-185" style="shape=tableRow;horizontal=0;startSize=0;swimlaneHead=0;swimlaneBody=0;top=0;left=0;bottom=0;right=0;collapsible=0;dropTarget=0;fillColor=none;points=[[0,0.5],[1,0.5]];portConstraint=eastwest;strokeColor=inherit;fontSize=16;" parent="N7fRc56kS8bR0nnPCuzB-136" vertex="1">
          <mxGeometry y="380" width="480" height="30" as="geometry" />
        </mxCell>
        <mxCell id="N7fRc56kS8bR0nnPCuzB-186" value="10" style="shape=partialRectangle;html=1;whiteSpace=wrap;connectable=0;fillColor=none;top=0;left=0;bottom=0;right=0;overflow=hidden;strokeColor=inherit;fontSize=16;" parent="N7fRc56kS8bR0nnPCuzB-185" vertex="1">
          <mxGeometry width="61" height="30" as="geometry">
            <mxRectangle width="61" height="30" as="alternateBounds" />
          </mxGeometry>
        </mxCell>
        <mxCell id="N7fRc56kS8bR0nnPCuzB-187" value="" style="shape=partialRectangle;html=1;whiteSpace=wrap;connectable=0;fillColor=none;top=0;left=0;bottom=0;right=0;align=left;spacingLeft=6;overflow=hidden;strokeColor=inherit;fontSize=16;" parent="N7fRc56kS8bR0nnPCuzB-185" vertex="1">
          <mxGeometry x="61" width="368" height="30" as="geometry">
            <mxRectangle width="368" height="30" as="alternateBounds" />
          </mxGeometry>
        </mxCell>
        <mxCell id="N7fRc56kS8bR0nnPCuzB-188" style="shape=partialRectangle;html=1;whiteSpace=wrap;connectable=0;fillColor=none;top=0;left=0;bottom=0;right=0;align=left;spacingLeft=6;overflow=hidden;strokeColor=inherit;fontSize=16;" parent="N7fRc56kS8bR0nnPCuzB-185" vertex="1">
          <mxGeometry x="429" width="51" height="30" as="geometry">
            <mxRectangle width="51" height="30" as="alternateBounds" />
          </mxGeometry>
        </mxCell>
        <mxCell id="N7fRc56kS8bR0nnPCuzB-189" value="GL_JOURNAL_ENTRY_REVERSE" style="shape=table;startSize=30;container=1;collapsible=0;childLayout=tableLayout;fixedRows=1;rowLines=0;fontStyle=0;strokeColor=#82b366;fontSize=16;fillColor=#d5e8d4;" parent="1" vertex="1">
          <mxGeometry x="440" y="-181" width="480" height="170" as="geometry" />
        </mxCell>
        <mxCell id="N7fRc56kS8bR0nnPCuzB-190" value="" style="shape=tableRow;horizontal=0;startSize=0;swimlaneHead=0;swimlaneBody=0;top=0;left=0;bottom=0;right=0;collapsible=0;dropTarget=0;fillColor=none;points=[[0,0.5],[1,0.5]];portConstraint=eastwest;strokeColor=inherit;fontSize=16;" parent="N7fRc56kS8bR0nnPCuzB-189" vertex="1">
          <mxGeometry y="30" width="480" height="30" as="geometry" />
        </mxCell>
        <mxCell id="N7fRc56kS8bR0nnPCuzB-191" value="1" style="shape=partialRectangle;html=1;whiteSpace=wrap;connectable=0;fillColor=none;top=0;left=0;bottom=0;right=0;overflow=hidden;pointerEvents=1;strokeColor=inherit;fontSize=16;" parent="N7fRc56kS8bR0nnPCuzB-190" vertex="1">
          <mxGeometry width="61" height="30" as="geometry">
            <mxRectangle width="61" height="30" as="alternateBounds" />
          </mxGeometry>
        </mxCell>
        <mxCell id="N7fRc56kS8bR0nnPCuzB-192" value="ID" style="shape=partialRectangle;html=1;whiteSpace=wrap;connectable=0;fillColor=none;top=0;left=0;bottom=0;right=0;align=left;spacingLeft=6;overflow=hidden;strokeColor=inherit;fontSize=16;" parent="N7fRc56kS8bR0nnPCuzB-190" vertex="1">
          <mxGeometry x="61" width="368" height="30" as="geometry">
            <mxRectangle width="368" height="30" as="alternateBounds" />
          </mxGeometry>
        </mxCell>
        <mxCell id="N7fRc56kS8bR0nnPCuzB-193" style="shape=partialRectangle;html=1;whiteSpace=wrap;connectable=0;fillColor=none;top=0;left=0;bottom=0;right=0;align=left;spacingLeft=6;overflow=hidden;strokeColor=inherit;fontSize=16;" parent="N7fRc56kS8bR0nnPCuzB-190" vertex="1">
          <mxGeometry x="429" width="51" height="30" as="geometry">
            <mxRectangle width="51" height="30" as="alternateBounds" />
          </mxGeometry>
        </mxCell>
        <mxCell id="N7fRc56kS8bR0nnPCuzB-194" style="shape=tableRow;horizontal=0;startSize=0;swimlaneHead=0;swimlaneBody=0;top=0;left=0;bottom=0;right=0;collapsible=0;dropTarget=0;fillColor=none;points=[[0,0.5],[1,0.5]];portConstraint=eastwest;strokeColor=inherit;fontSize=16;" parent="N7fRc56kS8bR0nnPCuzB-189" vertex="1">
          <mxGeometry y="60" width="480" height="30" as="geometry" />
        </mxCell>
        <mxCell id="N7fRc56kS8bR0nnPCuzB-195" value="2" style="shape=partialRectangle;html=1;whiteSpace=wrap;connectable=0;fillColor=none;top=0;left=0;bottom=0;right=0;overflow=hidden;strokeColor=inherit;fontSize=16;" parent="N7fRc56kS8bR0nnPCuzB-194" vertex="1">
          <mxGeometry width="61" height="30" as="geometry">
            <mxRectangle width="61" height="30" as="alternateBounds" />
          </mxGeometry>
        </mxCell>
        <mxCell id="N7fRc56kS8bR0nnPCuzB-196" value="JOURNAL_ENTRY_ID" style="shape=partialRectangle;html=1;whiteSpace=wrap;connectable=0;fillColor=none;top=0;left=0;bottom=0;right=0;align=left;spacingLeft=6;overflow=hidden;strokeColor=inherit;fontSize=16;" parent="N7fRc56kS8bR0nnPCuzB-194" vertex="1">
          <mxGeometry x="61" width="368" height="30" as="geometry">
            <mxRectangle width="368" height="30" as="alternateBounds" />
          </mxGeometry>
        </mxCell>
        <mxCell id="N7fRc56kS8bR0nnPCuzB-197" style="shape=partialRectangle;html=1;whiteSpace=wrap;connectable=0;fillColor=none;top=0;left=0;bottom=0;right=0;align=left;spacingLeft=6;overflow=hidden;strokeColor=inherit;fontSize=16;" parent="N7fRc56kS8bR0nnPCuzB-194" vertex="1">
          <mxGeometry x="429" width="51" height="30" as="geometry">
            <mxRectangle width="51" height="30" as="alternateBounds" />
          </mxGeometry>
        </mxCell>
        <mxCell id="N7fRc56kS8bR0nnPCuzB-198" style="shape=tableRow;horizontal=0;startSize=0;swimlaneHead=0;swimlaneBody=0;top=0;left=0;bottom=0;right=0;collapsible=0;dropTarget=0;fillColor=none;points=[[0,0.5],[1,0.5]];portConstraint=eastwest;strokeColor=inherit;fontSize=16;" parent="N7fRc56kS8bR0nnPCuzB-189" vertex="1">
          <mxGeometry y="90" width="480" height="30" as="geometry" />
        </mxCell>
        <mxCell id="N7fRc56kS8bR0nnPCuzB-199" value="3" style="shape=partialRectangle;html=1;whiteSpace=wrap;connectable=0;fillColor=none;top=0;left=0;bottom=0;right=0;overflow=hidden;strokeColor=inherit;fontSize=16;" parent="N7fRc56kS8bR0nnPCuzB-198" vertex="1">
          <mxGeometry width="61" height="30" as="geometry">
            <mxRectangle width="61" height="30" as="alternateBounds" />
          </mxGeometry>
        </mxCell>
        <mxCell id="N7fRc56kS8bR0nnPCuzB-200" value="REVERSED_JOURANL_ENTRY_ID" style="shape=partialRectangle;html=1;whiteSpace=wrap;connectable=0;fillColor=none;top=0;left=0;bottom=0;right=0;align=left;spacingLeft=6;overflow=hidden;strokeColor=inherit;fontSize=16;" parent="N7fRc56kS8bR0nnPCuzB-198" vertex="1">
          <mxGeometry x="61" width="368" height="30" as="geometry">
            <mxRectangle width="368" height="30" as="alternateBounds" />
          </mxGeometry>
        </mxCell>
        <mxCell id="N7fRc56kS8bR0nnPCuzB-201" style="shape=partialRectangle;html=1;whiteSpace=wrap;connectable=0;fillColor=none;top=0;left=0;bottom=0;right=0;align=left;spacingLeft=6;overflow=hidden;strokeColor=inherit;fontSize=16;" parent="N7fRc56kS8bR0nnPCuzB-198" vertex="1">
          <mxGeometry x="429" width="51" height="30" as="geometry">
            <mxRectangle width="51" height="30" as="alternateBounds" />
          </mxGeometry>
        </mxCell>
        <mxCell id="N7fRc56kS8bR0nnPCuzB-202" style="shape=tableRow;horizontal=0;startSize=0;swimlaneHead=0;swimlaneBody=0;top=0;left=0;bottom=0;right=0;collapsible=0;dropTarget=0;fillColor=none;points=[[0,0.5],[1,0.5]];portConstraint=eastwest;strokeColor=inherit;fontSize=16;" parent="N7fRc56kS8bR0nnPCuzB-189" vertex="1">
          <mxGeometry y="120" width="480" height="30" as="geometry" />
        </mxCell>
        <mxCell id="N7fRc56kS8bR0nnPCuzB-203" value="4" style="shape=partialRectangle;html=1;whiteSpace=wrap;connectable=0;fillColor=none;top=0;left=0;bottom=0;right=0;overflow=hidden;strokeColor=inherit;fontSize=16;" parent="N7fRc56kS8bR0nnPCuzB-202" vertex="1">
          <mxGeometry width="61" height="30" as="geometry">
            <mxRectangle width="61" height="30" as="alternateBounds" />
          </mxGeometry>
        </mxCell>
        <mxCell id="N7fRc56kS8bR0nnPCuzB-204" value="REVERS_DATE" style="shape=partialRectangle;html=1;whiteSpace=wrap;connectable=0;fillColor=none;top=0;left=0;bottom=0;right=0;align=left;spacingLeft=6;overflow=hidden;strokeColor=inherit;fontSize=16;" parent="N7fRc56kS8bR0nnPCuzB-202" vertex="1">
          <mxGeometry x="61" width="368" height="30" as="geometry">
            <mxRectangle width="368" height="30" as="alternateBounds" />
          </mxGeometry>
        </mxCell>
        <mxCell id="N7fRc56kS8bR0nnPCuzB-205" style="shape=partialRectangle;html=1;whiteSpace=wrap;connectable=0;fillColor=none;top=0;left=0;bottom=0;right=0;align=left;spacingLeft=6;overflow=hidden;strokeColor=inherit;fontSize=16;" parent="N7fRc56kS8bR0nnPCuzB-202" vertex="1">
          <mxGeometry x="429" width="51" height="30" as="geometry">
            <mxRectangle width="51" height="30" as="alternateBounds" />
          </mxGeometry>
        </mxCell>
        <mxCell id="N7fRc56kS8bR0nnPCuzB-206" value="" style="shape=tableRow;horizontal=0;startSize=0;swimlaneHead=0;swimlaneBody=0;top=0;left=0;bottom=0;right=0;collapsible=0;dropTarget=0;fillColor=none;points=[[0,0.5],[1,0.5]];portConstraint=eastwest;strokeColor=inherit;fontSize=16;" parent="N7fRc56kS8bR0nnPCuzB-189" vertex="1">
          <mxGeometry y="150" width="480" height="20" as="geometry" />
        </mxCell>
        <mxCell id="N7fRc56kS8bR0nnPCuzB-207" value="3" style="shape=partialRectangle;html=1;whiteSpace=wrap;connectable=0;fillColor=none;top=0;left=0;bottom=0;right=0;overflow=hidden;strokeColor=inherit;fontSize=16;" parent="N7fRc56kS8bR0nnPCuzB-206" vertex="1">
          <mxGeometry width="61" height="20" as="geometry">
            <mxRectangle width="61" height="20" as="alternateBounds" />
          </mxGeometry>
        </mxCell>
        <mxCell id="N7fRc56kS8bR0nnPCuzB-208" value="" style="shape=partialRectangle;html=1;whiteSpace=wrap;connectable=0;fillColor=none;top=0;left=0;bottom=0;right=0;align=left;spacingLeft=6;overflow=hidden;strokeColor=inherit;fontSize=16;" parent="N7fRc56kS8bR0nnPCuzB-206" vertex="1">
          <mxGeometry x="61" width="368" height="20" as="geometry">
            <mxRectangle width="368" height="20" as="alternateBounds" />
          </mxGeometry>
        </mxCell>
        <mxCell id="N7fRc56kS8bR0nnPCuzB-209" style="shape=partialRectangle;html=1;whiteSpace=wrap;connectable=0;fillColor=none;top=0;left=0;bottom=0;right=0;align=left;spacingLeft=6;overflow=hidden;strokeColor=inherit;fontSize=16;" parent="N7fRc56kS8bR0nnPCuzB-206" vertex="1">
          <mxGeometry x="429" width="51" height="20" as="geometry">
            <mxRectangle width="51" height="20" as="alternateBounds" />
          </mxGeometry>
        </mxCell>
        <mxCell id="N7fRc56kS8bR0nnPCuzB-210" value="ACCOUNT" style="shape=table;startSize=30;container=1;collapsible=0;childLayout=tableLayout;fixedRows=1;rowLines=0;fontStyle=0;strokeColor=#82b366;fontSize=16;fillColor=#d5e8d4;" parent="1" vertex="1">
          <mxGeometry x="-90" y="239" width="480" height="150" as="geometry" />
        </mxCell>
        <mxCell id="N7fRc56kS8bR0nnPCuzB-211" value="" style="shape=tableRow;horizontal=0;startSize=0;swimlaneHead=0;swimlaneBody=0;top=0;left=0;bottom=0;right=0;collapsible=0;dropTarget=0;fillColor=none;points=[[0,0.5],[1,0.5]];portConstraint=eastwest;strokeColor=inherit;fontSize=16;" parent="N7fRc56kS8bR0nnPCuzB-210" vertex="1">
          <mxGeometry y="30" width="480" height="30" as="geometry" />
        </mxCell>
        <mxCell id="N7fRc56kS8bR0nnPCuzB-212" value="1" style="shape=partialRectangle;html=1;whiteSpace=wrap;connectable=0;fillColor=none;top=0;left=0;bottom=0;right=0;overflow=hidden;pointerEvents=1;strokeColor=inherit;fontSize=16;" parent="N7fRc56kS8bR0nnPCuzB-211" vertex="1">
          <mxGeometry width="60" height="30" as="geometry">
            <mxRectangle width="60" height="30" as="alternateBounds" />
          </mxGeometry>
        </mxCell>
        <mxCell id="N7fRc56kS8bR0nnPCuzB-213" value="ID" style="shape=partialRectangle;html=1;whiteSpace=wrap;connectable=0;fillColor=none;top=0;left=0;bottom=0;right=0;align=left;spacingLeft=6;overflow=hidden;strokeColor=inherit;fontSize=16;" parent="N7fRc56kS8bR0nnPCuzB-211" vertex="1">
          <mxGeometry x="60" width="369" height="30" as="geometry">
            <mxRectangle width="369" height="30" as="alternateBounds" />
          </mxGeometry>
        </mxCell>
        <mxCell id="N7fRc56kS8bR0nnPCuzB-214" style="shape=partialRectangle;html=1;whiteSpace=wrap;connectable=0;fillColor=none;top=0;left=0;bottom=0;right=0;align=left;spacingLeft=6;overflow=hidden;strokeColor=inherit;fontSize=16;" parent="N7fRc56kS8bR0nnPCuzB-211" vertex="1">
          <mxGeometry x="429" width="51" height="30" as="geometry">
            <mxRectangle width="51" height="30" as="alternateBounds" />
          </mxGeometry>
        </mxCell>
        <mxCell id="N7fRc56kS8bR0nnPCuzB-215" style="shape=tableRow;horizontal=0;startSize=0;swimlaneHead=0;swimlaneBody=0;top=0;left=0;bottom=0;right=0;collapsible=0;dropTarget=0;fillColor=none;points=[[0,0.5],[1,0.5]];portConstraint=eastwest;strokeColor=inherit;fontSize=16;" parent="N7fRc56kS8bR0nnPCuzB-210" vertex="1">
          <mxGeometry y="60" width="480" height="20" as="geometry" />
        </mxCell>
        <mxCell id="N7fRc56kS8bR0nnPCuzB-216" value="2" style="shape=partialRectangle;html=1;whiteSpace=wrap;connectable=0;fillColor=none;top=0;left=0;bottom=0;right=0;overflow=hidden;strokeColor=inherit;fontSize=16;" parent="N7fRc56kS8bR0nnPCuzB-215" vertex="1">
          <mxGeometry width="60" height="20" as="geometry">
            <mxRectangle width="60" height="20" as="alternateBounds" />
          </mxGeometry>
        </mxCell>
        <mxCell id="N7fRc56kS8bR0nnPCuzB-217" value="ACCOUNT_NUMBER" style="shape=partialRectangle;html=1;whiteSpace=wrap;connectable=0;fillColor=none;top=0;left=0;bottom=0;right=0;align=left;spacingLeft=6;overflow=hidden;strokeColor=inherit;fontSize=16;" parent="N7fRc56kS8bR0nnPCuzB-215" vertex="1">
          <mxGeometry x="60" width="369" height="20" as="geometry">
            <mxRectangle width="369" height="20" as="alternateBounds" />
          </mxGeometry>
        </mxCell>
        <mxCell id="N7fRc56kS8bR0nnPCuzB-218" value="BOOLEAN" style="shape=partialRectangle;html=1;whiteSpace=wrap;connectable=0;fillColor=none;top=0;left=0;bottom=0;right=0;align=left;spacingLeft=6;overflow=hidden;strokeColor=inherit;fontSize=16;" parent="N7fRc56kS8bR0nnPCuzB-215" vertex="1">
          <mxGeometry x="429" width="51" height="20" as="geometry">
            <mxRectangle width="51" height="20" as="alternateBounds" />
          </mxGeometry>
        </mxCell>
        <mxCell id="N7fRc56kS8bR0nnPCuzB-219" style="shape=tableRow;horizontal=0;startSize=0;swimlaneHead=0;swimlaneBody=0;top=0;left=0;bottom=0;right=0;collapsible=0;dropTarget=0;fillColor=none;points=[[0,0.5],[1,0.5]];portConstraint=eastwest;strokeColor=inherit;fontSize=16;" parent="N7fRc56kS8bR0nnPCuzB-210" vertex="1">
          <mxGeometry y="80" width="480" height="40" as="geometry" />
        </mxCell>
        <mxCell id="N7fRc56kS8bR0nnPCuzB-220" style="shape=partialRectangle;html=1;whiteSpace=wrap;connectable=0;fillColor=none;top=0;left=0;bottom=0;right=0;overflow=hidden;strokeColor=inherit;fontSize=16;" parent="N7fRc56kS8bR0nnPCuzB-219" vertex="1">
          <mxGeometry width="60" height="40" as="geometry">
            <mxRectangle width="60" height="40" as="alternateBounds" />
          </mxGeometry>
        </mxCell>
        <mxCell id="N7fRc56kS8bR0nnPCuzB-221" value="CUSTOMER_ID" style="shape=partialRectangle;html=1;whiteSpace=wrap;connectable=0;fillColor=none;top=0;left=0;bottom=0;right=0;align=left;spacingLeft=6;overflow=hidden;strokeColor=inherit;fontSize=16;" parent="N7fRc56kS8bR0nnPCuzB-219" vertex="1">
          <mxGeometry x="60" width="369" height="40" as="geometry">
            <mxRectangle width="369" height="40" as="alternateBounds" />
          </mxGeometry>
        </mxCell>
        <mxCell id="N7fRc56kS8bR0nnPCuzB-222" style="shape=partialRectangle;html=1;whiteSpace=wrap;connectable=0;fillColor=none;top=0;left=0;bottom=0;right=0;align=left;spacingLeft=6;overflow=hidden;strokeColor=inherit;fontSize=16;" parent="N7fRc56kS8bR0nnPCuzB-219" vertex="1">
          <mxGeometry x="429" width="51" height="40" as="geometry">
            <mxRectangle width="51" height="40" as="alternateBounds" />
          </mxGeometry>
        </mxCell>
        <mxCell id="N7fRc56kS8bR0nnPCuzB-223" style="shape=tableRow;horizontal=0;startSize=0;swimlaneHead=0;swimlaneBody=0;top=0;left=0;bottom=0;right=0;collapsible=0;dropTarget=0;fillColor=none;points=[[0,0.5],[1,0.5]];portConstraint=eastwest;strokeColor=inherit;fontSize=16;" parent="N7fRc56kS8bR0nnPCuzB-210" vertex="1">
          <mxGeometry y="120" width="480" height="30" as="geometry" />
        </mxCell>
        <mxCell id="N7fRc56kS8bR0nnPCuzB-224" value="" style="shape=partialRectangle;html=1;whiteSpace=wrap;connectable=0;fillColor=none;top=0;left=0;bottom=0;right=0;overflow=hidden;strokeColor=inherit;fontSize=16;" parent="N7fRc56kS8bR0nnPCuzB-223" vertex="1">
          <mxGeometry width="60" height="30" as="geometry">
            <mxRectangle width="60" height="30" as="alternateBounds" />
          </mxGeometry>
        </mxCell>
        <mxCell id="N7fRc56kS8bR0nnPCuzB-225" value="" style="shape=partialRectangle;html=1;whiteSpace=wrap;connectable=0;fillColor=none;top=0;left=0;bottom=0;right=0;align=left;spacingLeft=6;overflow=hidden;strokeColor=inherit;fontSize=16;" parent="N7fRc56kS8bR0nnPCuzB-223" vertex="1">
          <mxGeometry x="60" width="369" height="30" as="geometry">
            <mxRectangle width="369" height="30" as="alternateBounds" />
          </mxGeometry>
        </mxCell>
        <mxCell id="N7fRc56kS8bR0nnPCuzB-226" style="shape=partialRectangle;html=1;whiteSpace=wrap;connectable=0;fillColor=none;top=0;left=0;bottom=0;right=0;align=left;spacingLeft=6;overflow=hidden;strokeColor=inherit;fontSize=16;" parent="N7fRc56kS8bR0nnPCuzB-223" vertex="1">
          <mxGeometry x="429" width="51" height="30" as="geometry">
            <mxRectangle width="51" height="30" as="alternateBounds" />
          </mxGeometry>
        </mxCell>
        <mxCell id="N7fRc56kS8bR0nnPCuzB-227" value="FINANCIAL_TYPE" style="shape=table;startSize=30;container=1;collapsible=0;childLayout=tableLayout;fixedRows=1;rowLines=0;fontStyle=0;strokeColor=#82b366;fontSize=16;fillColor=#d5e8d4;" parent="1" vertex="1">
          <mxGeometry x="690" y="-541" width="480" height="150" as="geometry" />
        </mxCell>
        <mxCell id="N7fRc56kS8bR0nnPCuzB-228" value="" style="shape=tableRow;horizontal=0;startSize=0;swimlaneHead=0;swimlaneBody=0;top=0;left=0;bottom=0;right=0;collapsible=0;dropTarget=0;fillColor=none;points=[[0,0.5],[1,0.5]];portConstraint=eastwest;strokeColor=inherit;fontSize=16;" parent="N7fRc56kS8bR0nnPCuzB-227" vertex="1">
          <mxGeometry y="30" width="480" height="30" as="geometry" />
        </mxCell>
        <mxCell id="N7fRc56kS8bR0nnPCuzB-229" value="1" style="shape=partialRectangle;html=1;whiteSpace=wrap;connectable=0;fillColor=none;top=0;left=0;bottom=0;right=0;overflow=hidden;pointerEvents=1;strokeColor=inherit;fontSize=16;" parent="N7fRc56kS8bR0nnPCuzB-228" vertex="1">
          <mxGeometry width="60" height="30" as="geometry">
            <mxRectangle width="60" height="30" as="alternateBounds" />
          </mxGeometry>
        </mxCell>
        <mxCell id="N7fRc56kS8bR0nnPCuzB-230" value="REF_CODE" style="shape=partialRectangle;html=1;whiteSpace=wrap;connectable=0;fillColor=none;top=0;left=0;bottom=0;right=0;align=left;spacingLeft=6;overflow=hidden;strokeColor=inherit;fontSize=16;" parent="N7fRc56kS8bR0nnPCuzB-228" vertex="1">
          <mxGeometry x="60" width="369" height="30" as="geometry">
            <mxRectangle width="369" height="30" as="alternateBounds" />
          </mxGeometry>
        </mxCell>
        <mxCell id="N7fRc56kS8bR0nnPCuzB-231" style="shape=partialRectangle;html=1;whiteSpace=wrap;connectable=0;fillColor=none;top=0;left=0;bottom=0;right=0;align=left;spacingLeft=6;overflow=hidden;strokeColor=inherit;fontSize=16;" parent="N7fRc56kS8bR0nnPCuzB-228" vertex="1">
          <mxGeometry x="429" width="51" height="30" as="geometry">
            <mxRectangle width="51" height="30" as="alternateBounds" />
          </mxGeometry>
        </mxCell>
        <mxCell id="N7fRc56kS8bR0nnPCuzB-232" style="shape=tableRow;horizontal=0;startSize=0;swimlaneHead=0;swimlaneBody=0;top=0;left=0;bottom=0;right=0;collapsible=0;dropTarget=0;fillColor=none;points=[[0,0.5],[1,0.5]];portConstraint=eastwest;strokeColor=inherit;fontSize=16;" parent="N7fRc56kS8bR0nnPCuzB-227" vertex="1">
          <mxGeometry y="60" width="480" height="20" as="geometry" />
        </mxCell>
        <mxCell id="N7fRc56kS8bR0nnPCuzB-233" value="9" style="shape=partialRectangle;html=1;whiteSpace=wrap;connectable=0;fillColor=none;top=0;left=0;bottom=0;right=0;overflow=hidden;strokeColor=inherit;fontSize=16;" parent="N7fRc56kS8bR0nnPCuzB-232" vertex="1">
          <mxGeometry width="60" height="20" as="geometry">
            <mxRectangle width="60" height="20" as="alternateBounds" />
          </mxGeometry>
        </mxCell>
        <mxCell id="N7fRc56kS8bR0nnPCuzB-234" value="NAME" style="shape=partialRectangle;html=1;whiteSpace=wrap;connectable=0;fillColor=none;top=0;left=0;bottom=0;right=0;align=left;spacingLeft=6;overflow=hidden;strokeColor=inherit;fontSize=16;" parent="N7fRc56kS8bR0nnPCuzB-232" vertex="1">
          <mxGeometry x="60" width="369" height="20" as="geometry">
            <mxRectangle width="369" height="20" as="alternateBounds" />
          </mxGeometry>
        </mxCell>
        <mxCell id="N7fRc56kS8bR0nnPCuzB-235" value="BOOLEAN" style="shape=partialRectangle;html=1;whiteSpace=wrap;connectable=0;fillColor=none;top=0;left=0;bottom=0;right=0;align=left;spacingLeft=6;overflow=hidden;strokeColor=inherit;fontSize=16;" parent="N7fRc56kS8bR0nnPCuzB-232" vertex="1">
          <mxGeometry x="429" width="51" height="20" as="geometry">
            <mxRectangle width="51" height="20" as="alternateBounds" />
          </mxGeometry>
        </mxCell>
        <mxCell id="N7fRc56kS8bR0nnPCuzB-236" style="shape=tableRow;horizontal=0;startSize=0;swimlaneHead=0;swimlaneBody=0;top=0;left=0;bottom=0;right=0;collapsible=0;dropTarget=0;fillColor=none;points=[[0,0.5],[1,0.5]];portConstraint=eastwest;strokeColor=inherit;fontSize=16;" parent="N7fRc56kS8bR0nnPCuzB-227" vertex="1">
          <mxGeometry y="80" width="480" height="40" as="geometry" />
        </mxCell>
        <mxCell id="N7fRc56kS8bR0nnPCuzB-237" style="shape=partialRectangle;html=1;whiteSpace=wrap;connectable=0;fillColor=none;top=0;left=0;bottom=0;right=0;overflow=hidden;strokeColor=inherit;fontSize=16;" parent="N7fRc56kS8bR0nnPCuzB-236" vertex="1">
          <mxGeometry width="60" height="40" as="geometry">
            <mxRectangle width="60" height="40" as="alternateBounds" />
          </mxGeometry>
        </mxCell>
        <mxCell id="N7fRc56kS8bR0nnPCuzB-238" value="DESCRIPTION" style="shape=partialRectangle;html=1;whiteSpace=wrap;connectable=0;fillColor=none;top=0;left=0;bottom=0;right=0;align=left;spacingLeft=6;overflow=hidden;strokeColor=inherit;fontSize=16;" parent="N7fRc56kS8bR0nnPCuzB-236" vertex="1">
          <mxGeometry x="60" width="369" height="40" as="geometry">
            <mxRectangle width="369" height="40" as="alternateBounds" />
          </mxGeometry>
        </mxCell>
        <mxCell id="N7fRc56kS8bR0nnPCuzB-239" style="shape=partialRectangle;html=1;whiteSpace=wrap;connectable=0;fillColor=none;top=0;left=0;bottom=0;right=0;align=left;spacingLeft=6;overflow=hidden;strokeColor=inherit;fontSize=16;" parent="N7fRc56kS8bR0nnPCuzB-236" vertex="1">
          <mxGeometry x="429" width="51" height="40" as="geometry">
            <mxRectangle width="51" height="40" as="alternateBounds" />
          </mxGeometry>
        </mxCell>
        <mxCell id="N7fRc56kS8bR0nnPCuzB-240" style="shape=tableRow;horizontal=0;startSize=0;swimlaneHead=0;swimlaneBody=0;top=0;left=0;bottom=0;right=0;collapsible=0;dropTarget=0;fillColor=none;points=[[0,0.5],[1,0.5]];portConstraint=eastwest;strokeColor=inherit;fontSize=16;" parent="N7fRc56kS8bR0nnPCuzB-227" vertex="1">
          <mxGeometry y="120" width="480" height="30" as="geometry" />
        </mxCell>
        <mxCell id="N7fRc56kS8bR0nnPCuzB-241" value="10" style="shape=partialRectangle;html=1;whiteSpace=wrap;connectable=0;fillColor=none;top=0;left=0;bottom=0;right=0;overflow=hidden;strokeColor=inherit;fontSize=16;" parent="N7fRc56kS8bR0nnPCuzB-240" vertex="1">
          <mxGeometry width="60" height="30" as="geometry">
            <mxRectangle width="60" height="30" as="alternateBounds" />
          </mxGeometry>
        </mxCell>
        <mxCell id="N7fRc56kS8bR0nnPCuzB-242" value="" style="shape=partialRectangle;html=1;whiteSpace=wrap;connectable=0;fillColor=none;top=0;left=0;bottom=0;right=0;align=left;spacingLeft=6;overflow=hidden;strokeColor=inherit;fontSize=16;" parent="N7fRc56kS8bR0nnPCuzB-240" vertex="1">
          <mxGeometry x="60" width="369" height="30" as="geometry">
            <mxRectangle width="369" height="30" as="alternateBounds" />
          </mxGeometry>
        </mxCell>
        <mxCell id="N7fRc56kS8bR0nnPCuzB-243" style="shape=partialRectangle;html=1;whiteSpace=wrap;connectable=0;fillColor=none;top=0;left=0;bottom=0;right=0;align=left;spacingLeft=6;overflow=hidden;strokeColor=inherit;fontSize=16;" parent="N7fRc56kS8bR0nnPCuzB-240" vertex="1">
          <mxGeometry x="429" width="51" height="30" as="geometry">
            <mxRectangle width="51" height="30" as="alternateBounds" />
          </mxGeometry>
        </mxCell>
        <mxCell id="N7fRc56kS8bR0nnPCuzB-244" value="CHARGE_TYPE" style="shape=table;startSize=30;container=1;collapsible=0;childLayout=tableLayout;fixedRows=1;rowLines=0;fontStyle=0;strokeColor=#82b366;fontSize=16;fillColor=#d5e8d4;" parent="1" vertex="1">
          <mxGeometry x="690" y="-371" width="480" height="150" as="geometry" />
        </mxCell>
        <mxCell id="N7fRc56kS8bR0nnPCuzB-245" value="" style="shape=tableRow;horizontal=0;startSize=0;swimlaneHead=0;swimlaneBody=0;top=0;left=0;bottom=0;right=0;collapsible=0;dropTarget=0;fillColor=none;points=[[0,0.5],[1,0.5]];portConstraint=eastwest;strokeColor=inherit;fontSize=16;" parent="N7fRc56kS8bR0nnPCuzB-244" vertex="1">
          <mxGeometry y="30" width="480" height="30" as="geometry" />
        </mxCell>
        <mxCell id="N7fRc56kS8bR0nnPCuzB-246" value="1" style="shape=partialRectangle;html=1;whiteSpace=wrap;connectable=0;fillColor=none;top=0;left=0;bottom=0;right=0;overflow=hidden;pointerEvents=1;strokeColor=inherit;fontSize=16;" parent="N7fRc56kS8bR0nnPCuzB-245" vertex="1">
          <mxGeometry width="60" height="30" as="geometry">
            <mxRectangle width="60" height="30" as="alternateBounds" />
          </mxGeometry>
        </mxCell>
        <mxCell id="N7fRc56kS8bR0nnPCuzB-247" value="REF_CODE" style="shape=partialRectangle;html=1;whiteSpace=wrap;connectable=0;fillColor=none;top=0;left=0;bottom=0;right=0;align=left;spacingLeft=6;overflow=hidden;strokeColor=inherit;fontSize=16;" parent="N7fRc56kS8bR0nnPCuzB-245" vertex="1">
          <mxGeometry x="60" width="369" height="30" as="geometry">
            <mxRectangle width="369" height="30" as="alternateBounds" />
          </mxGeometry>
        </mxCell>
        <mxCell id="N7fRc56kS8bR0nnPCuzB-248" style="shape=partialRectangle;html=1;whiteSpace=wrap;connectable=0;fillColor=none;top=0;left=0;bottom=0;right=0;align=left;spacingLeft=6;overflow=hidden;strokeColor=inherit;fontSize=16;" parent="N7fRc56kS8bR0nnPCuzB-245" vertex="1">
          <mxGeometry x="429" width="51" height="30" as="geometry">
            <mxRectangle width="51" height="30" as="alternateBounds" />
          </mxGeometry>
        </mxCell>
        <mxCell id="N7fRc56kS8bR0nnPCuzB-249" style="shape=tableRow;horizontal=0;startSize=0;swimlaneHead=0;swimlaneBody=0;top=0;left=0;bottom=0;right=0;collapsible=0;dropTarget=0;fillColor=none;points=[[0,0.5],[1,0.5]];portConstraint=eastwest;strokeColor=inherit;fontSize=16;" parent="N7fRc56kS8bR0nnPCuzB-244" vertex="1">
          <mxGeometry y="60" width="480" height="20" as="geometry" />
        </mxCell>
        <mxCell id="N7fRc56kS8bR0nnPCuzB-250" value="9" style="shape=partialRectangle;html=1;whiteSpace=wrap;connectable=0;fillColor=none;top=0;left=0;bottom=0;right=0;overflow=hidden;strokeColor=inherit;fontSize=16;" parent="N7fRc56kS8bR0nnPCuzB-249" vertex="1">
          <mxGeometry width="60" height="20" as="geometry">
            <mxRectangle width="60" height="20" as="alternateBounds" />
          </mxGeometry>
        </mxCell>
        <mxCell id="N7fRc56kS8bR0nnPCuzB-251" value="NAME" style="shape=partialRectangle;html=1;whiteSpace=wrap;connectable=0;fillColor=none;top=0;left=0;bottom=0;right=0;align=left;spacingLeft=6;overflow=hidden;strokeColor=inherit;fontSize=16;" parent="N7fRc56kS8bR0nnPCuzB-249" vertex="1">
          <mxGeometry x="60" width="369" height="20" as="geometry">
            <mxRectangle width="369" height="20" as="alternateBounds" />
          </mxGeometry>
        </mxCell>
        <mxCell id="N7fRc56kS8bR0nnPCuzB-252" value="BOOLEAN" style="shape=partialRectangle;html=1;whiteSpace=wrap;connectable=0;fillColor=none;top=0;left=0;bottom=0;right=0;align=left;spacingLeft=6;overflow=hidden;strokeColor=inherit;fontSize=16;" parent="N7fRc56kS8bR0nnPCuzB-249" vertex="1">
          <mxGeometry x="429" width="51" height="20" as="geometry">
            <mxRectangle width="51" height="20" as="alternateBounds" />
          </mxGeometry>
        </mxCell>
        <mxCell id="N7fRc56kS8bR0nnPCuzB-253" style="shape=tableRow;horizontal=0;startSize=0;swimlaneHead=0;swimlaneBody=0;top=0;left=0;bottom=0;right=0;collapsible=0;dropTarget=0;fillColor=none;points=[[0,0.5],[1,0.5]];portConstraint=eastwest;strokeColor=inherit;fontSize=16;" parent="N7fRc56kS8bR0nnPCuzB-244" vertex="1">
          <mxGeometry y="80" width="480" height="40" as="geometry" />
        </mxCell>
        <mxCell id="N7fRc56kS8bR0nnPCuzB-254" style="shape=partialRectangle;html=1;whiteSpace=wrap;connectable=0;fillColor=none;top=0;left=0;bottom=0;right=0;overflow=hidden;strokeColor=inherit;fontSize=16;" parent="N7fRc56kS8bR0nnPCuzB-253" vertex="1">
          <mxGeometry width="60" height="40" as="geometry">
            <mxRectangle width="60" height="40" as="alternateBounds" />
          </mxGeometry>
        </mxCell>
        <mxCell id="N7fRc56kS8bR0nnPCuzB-255" value="DESCRIPTION" style="shape=partialRectangle;html=1;whiteSpace=wrap;connectable=0;fillColor=none;top=0;left=0;bottom=0;right=0;align=left;spacingLeft=6;overflow=hidden;strokeColor=inherit;fontSize=16;" parent="N7fRc56kS8bR0nnPCuzB-253" vertex="1">
          <mxGeometry x="60" width="369" height="40" as="geometry">
            <mxRectangle width="369" height="40" as="alternateBounds" />
          </mxGeometry>
        </mxCell>
        <mxCell id="N7fRc56kS8bR0nnPCuzB-256" style="shape=partialRectangle;html=1;whiteSpace=wrap;connectable=0;fillColor=none;top=0;left=0;bottom=0;right=0;align=left;spacingLeft=6;overflow=hidden;strokeColor=inherit;fontSize=16;" parent="N7fRc56kS8bR0nnPCuzB-253" vertex="1">
          <mxGeometry x="429" width="51" height="40" as="geometry">
            <mxRectangle width="51" height="40" as="alternateBounds" />
          </mxGeometry>
        </mxCell>
        <mxCell id="N7fRc56kS8bR0nnPCuzB-257" style="shape=tableRow;horizontal=0;startSize=0;swimlaneHead=0;swimlaneBody=0;top=0;left=0;bottom=0;right=0;collapsible=0;dropTarget=0;fillColor=none;points=[[0,0.5],[1,0.5]];portConstraint=eastwest;strokeColor=inherit;fontSize=16;" parent="N7fRc56kS8bR0nnPCuzB-244" vertex="1">
          <mxGeometry y="120" width="480" height="30" as="geometry" />
        </mxCell>
        <mxCell id="N7fRc56kS8bR0nnPCuzB-258" value="10" style="shape=partialRectangle;html=1;whiteSpace=wrap;connectable=0;fillColor=none;top=0;left=0;bottom=0;right=0;overflow=hidden;strokeColor=inherit;fontSize=16;" parent="N7fRc56kS8bR0nnPCuzB-257" vertex="1">
          <mxGeometry width="60" height="30" as="geometry">
            <mxRectangle width="60" height="30" as="alternateBounds" />
          </mxGeometry>
        </mxCell>
        <mxCell id="N7fRc56kS8bR0nnPCuzB-259" value="" style="shape=partialRectangle;html=1;whiteSpace=wrap;connectable=0;fillColor=none;top=0;left=0;bottom=0;right=0;align=left;spacingLeft=6;overflow=hidden;strokeColor=inherit;fontSize=16;" parent="N7fRc56kS8bR0nnPCuzB-257" vertex="1">
          <mxGeometry x="60" width="369" height="30" as="geometry">
            <mxRectangle width="369" height="30" as="alternateBounds" />
          </mxGeometry>
        </mxCell>
        <mxCell id="N7fRc56kS8bR0nnPCuzB-260" style="shape=partialRectangle;html=1;whiteSpace=wrap;connectable=0;fillColor=none;top=0;left=0;bottom=0;right=0;align=left;spacingLeft=6;overflow=hidden;strokeColor=inherit;fontSize=16;" parent="N7fRc56kS8bR0nnPCuzB-257" vertex="1">
          <mxGeometry x="429" width="51" height="30" as="geometry">
            <mxRectangle width="51" height="30" as="alternateBounds" />
          </mxGeometry>
        </mxCell>
        <mxCell id="N7fRc56kS8bR0nnPCuzB-261" value="ACCOUNT_TRANSACTION" style="shape=table;startSize=30;container=1;collapsible=0;childLayout=tableLayout;fixedRows=1;rowLines=0;fontStyle=0;strokeColor=#82b366;fontSize=16;fillColor=#d5e8d4;" parent="1" vertex="1">
          <mxGeometry x="480" y="239" width="480" height="210" as="geometry" />
        </mxCell>
        <mxCell id="N7fRc56kS8bR0nnPCuzB-262" value="" style="shape=tableRow;horizontal=0;startSize=0;swimlaneHead=0;swimlaneBody=0;top=0;left=0;bottom=0;right=0;collapsible=0;dropTarget=0;fillColor=none;points=[[0,0.5],[1,0.5]];portConstraint=eastwest;strokeColor=inherit;fontSize=16;" parent="N7fRc56kS8bR0nnPCuzB-261" vertex="1">
          <mxGeometry y="30" width="480" height="30" as="geometry" />
        </mxCell>
        <mxCell id="N7fRc56kS8bR0nnPCuzB-263" value="1" style="shape=partialRectangle;html=1;whiteSpace=wrap;connectable=0;fillColor=none;top=0;left=0;bottom=0;right=0;overflow=hidden;pointerEvents=1;strokeColor=inherit;fontSize=16;" parent="N7fRc56kS8bR0nnPCuzB-262" vertex="1">
          <mxGeometry width="60" height="30" as="geometry">
            <mxRectangle width="60" height="30" as="alternateBounds" />
          </mxGeometry>
        </mxCell>
        <mxCell id="N7fRc56kS8bR0nnPCuzB-264" value="ID" style="shape=partialRectangle;html=1;whiteSpace=wrap;connectable=0;fillColor=none;top=0;left=0;bottom=0;right=0;align=left;spacingLeft=6;overflow=hidden;strokeColor=inherit;fontSize=16;" parent="N7fRc56kS8bR0nnPCuzB-262" vertex="1">
          <mxGeometry x="60" width="369" height="30" as="geometry">
            <mxRectangle width="369" height="30" as="alternateBounds" />
          </mxGeometry>
        </mxCell>
        <mxCell id="N7fRc56kS8bR0nnPCuzB-265" style="shape=partialRectangle;html=1;whiteSpace=wrap;connectable=0;fillColor=none;top=0;left=0;bottom=0;right=0;align=left;spacingLeft=6;overflow=hidden;strokeColor=inherit;fontSize=16;" parent="N7fRc56kS8bR0nnPCuzB-262" vertex="1">
          <mxGeometry x="429" width="51" height="30" as="geometry">
            <mxRectangle width="51" height="30" as="alternateBounds" />
          </mxGeometry>
        </mxCell>
        <mxCell id="N7fRc56kS8bR0nnPCuzB-266" style="shape=tableRow;horizontal=0;startSize=0;swimlaneHead=0;swimlaneBody=0;top=0;left=0;bottom=0;right=0;collapsible=0;dropTarget=0;fillColor=none;points=[[0,0.5],[1,0.5]];portConstraint=eastwest;strokeColor=inherit;fontSize=16;" parent="N7fRc56kS8bR0nnPCuzB-261" vertex="1">
          <mxGeometry y="60" width="480" height="20" as="geometry" />
        </mxCell>
        <mxCell id="N7fRc56kS8bR0nnPCuzB-267" value="2" style="shape=partialRectangle;html=1;whiteSpace=wrap;connectable=0;fillColor=none;top=0;left=0;bottom=0;right=0;overflow=hidden;strokeColor=inherit;fontSize=16;" parent="N7fRc56kS8bR0nnPCuzB-266" vertex="1">
          <mxGeometry width="60" height="20" as="geometry">
            <mxRectangle width="60" height="20" as="alternateBounds" />
          </mxGeometry>
        </mxCell>
        <mxCell id="N7fRc56kS8bR0nnPCuzB-268" value="TRANSACTION_TYPE" style="shape=partialRectangle;html=1;whiteSpace=wrap;connectable=0;fillColor=none;top=0;left=0;bottom=0;right=0;align=left;spacingLeft=6;overflow=hidden;strokeColor=inherit;fontSize=16;" parent="N7fRc56kS8bR0nnPCuzB-266" vertex="1">
          <mxGeometry x="60" width="369" height="20" as="geometry">
            <mxRectangle width="369" height="20" as="alternateBounds" />
          </mxGeometry>
        </mxCell>
        <mxCell id="N7fRc56kS8bR0nnPCuzB-269" value="" style="shape=partialRectangle;html=1;whiteSpace=wrap;connectable=0;fillColor=none;top=0;left=0;bottom=0;right=0;align=left;spacingLeft=6;overflow=hidden;strokeColor=inherit;fontSize=16;" parent="N7fRc56kS8bR0nnPCuzB-266" vertex="1">
          <mxGeometry x="429" width="51" height="20" as="geometry">
            <mxRectangle width="51" height="20" as="alternateBounds" />
          </mxGeometry>
        </mxCell>
        <mxCell id="N7fRc56kS8bR0nnPCuzB-270" style="shape=tableRow;horizontal=0;startSize=0;swimlaneHead=0;swimlaneBody=0;top=0;left=0;bottom=0;right=0;collapsible=0;dropTarget=0;fillColor=none;points=[[0,0.5],[1,0.5]];portConstraint=eastwest;strokeColor=inherit;fontSize=16;" parent="N7fRc56kS8bR0nnPCuzB-261" vertex="1">
          <mxGeometry y="80" width="480" height="40" as="geometry" />
        </mxCell>
        <mxCell id="N7fRc56kS8bR0nnPCuzB-271" value="3" style="shape=partialRectangle;html=1;whiteSpace=wrap;connectable=0;fillColor=none;top=0;left=0;bottom=0;right=0;overflow=hidden;strokeColor=inherit;fontSize=16;" parent="N7fRc56kS8bR0nnPCuzB-270" vertex="1">
          <mxGeometry width="60" height="40" as="geometry">
            <mxRectangle width="60" height="40" as="alternateBounds" />
          </mxGeometry>
        </mxCell>
        <mxCell id="N7fRc56kS8bR0nnPCuzB-272" value="AMOUNT" style="shape=partialRectangle;html=1;whiteSpace=wrap;connectable=0;fillColor=none;top=0;left=0;bottom=0;right=0;align=left;spacingLeft=6;overflow=hidden;strokeColor=inherit;fontSize=16;" parent="N7fRc56kS8bR0nnPCuzB-270" vertex="1">
          <mxGeometry x="60" width="369" height="40" as="geometry">
            <mxRectangle width="369" height="40" as="alternateBounds" />
          </mxGeometry>
        </mxCell>
        <mxCell id="N7fRc56kS8bR0nnPCuzB-273" style="shape=partialRectangle;html=1;whiteSpace=wrap;connectable=0;fillColor=none;top=0;left=0;bottom=0;right=0;align=left;spacingLeft=6;overflow=hidden;strokeColor=inherit;fontSize=16;" parent="N7fRc56kS8bR0nnPCuzB-270" vertex="1">
          <mxGeometry x="429" width="51" height="40" as="geometry">
            <mxRectangle width="51" height="40" as="alternateBounds" />
          </mxGeometry>
        </mxCell>
        <mxCell id="N7fRc56kS8bR0nnPCuzB-274" style="shape=tableRow;horizontal=0;startSize=0;swimlaneHead=0;swimlaneBody=0;top=0;left=0;bottom=0;right=0;collapsible=0;dropTarget=0;fillColor=none;points=[[0,0.5],[1,0.5]];portConstraint=eastwest;strokeColor=inherit;fontSize=16;" parent="N7fRc56kS8bR0nnPCuzB-261" vertex="1">
          <mxGeometry y="120" width="480" height="30" as="geometry" />
        </mxCell>
        <mxCell id="N7fRc56kS8bR0nnPCuzB-275" value="4" style="shape=partialRectangle;html=1;whiteSpace=wrap;connectable=0;fillColor=none;top=0;left=0;bottom=0;right=0;overflow=hidden;strokeColor=inherit;fontSize=16;" parent="N7fRc56kS8bR0nnPCuzB-274" vertex="1">
          <mxGeometry width="60" height="30" as="geometry">
            <mxRectangle width="60" height="30" as="alternateBounds" />
          </mxGeometry>
        </mxCell>
        <mxCell id="N7fRc56kS8bR0nnPCuzB-276" value="TRANSACTION_CODE" style="shape=partialRectangle;html=1;whiteSpace=wrap;connectable=0;fillColor=none;top=0;left=0;bottom=0;right=0;align=left;spacingLeft=6;overflow=hidden;strokeColor=inherit;fontSize=16;" parent="N7fRc56kS8bR0nnPCuzB-274" vertex="1">
          <mxGeometry x="60" width="369" height="30" as="geometry">
            <mxRectangle width="369" height="30" as="alternateBounds" />
          </mxGeometry>
        </mxCell>
        <mxCell id="N7fRc56kS8bR0nnPCuzB-277" style="shape=partialRectangle;html=1;whiteSpace=wrap;connectable=0;fillColor=none;top=0;left=0;bottom=0;right=0;align=left;spacingLeft=6;overflow=hidden;strokeColor=inherit;fontSize=16;" parent="N7fRc56kS8bR0nnPCuzB-274" vertex="1">
          <mxGeometry x="429" width="51" height="30" as="geometry">
            <mxRectangle width="51" height="30" as="alternateBounds" />
          </mxGeometry>
        </mxCell>
        <mxCell id="N7fRc56kS8bR0nnPCuzB-278" style="shape=tableRow;horizontal=0;startSize=0;swimlaneHead=0;swimlaneBody=0;top=0;left=0;bottom=0;right=0;collapsible=0;dropTarget=0;fillColor=none;points=[[0,0.5],[1,0.5]];portConstraint=eastwest;strokeColor=inherit;fontSize=16;" parent="N7fRc56kS8bR0nnPCuzB-261" vertex="1">
          <mxGeometry y="150" width="480" height="30" as="geometry" />
        </mxCell>
        <mxCell id="N7fRc56kS8bR0nnPCuzB-279" value="5" style="shape=partialRectangle;html=1;whiteSpace=wrap;connectable=0;fillColor=none;top=0;left=0;bottom=0;right=0;overflow=hidden;strokeColor=inherit;fontSize=16;" parent="N7fRc56kS8bR0nnPCuzB-278" vertex="1">
          <mxGeometry width="60" height="30" as="geometry">
            <mxRectangle width="60" height="30" as="alternateBounds" />
          </mxGeometry>
        </mxCell>
        <mxCell id="N7fRc56kS8bR0nnPCuzB-280" value="FIANCIAL_TYPE_REF_CODE" style="shape=partialRectangle;html=1;whiteSpace=wrap;connectable=0;fillColor=none;top=0;left=0;bottom=0;right=0;align=left;spacingLeft=6;overflow=hidden;strokeColor=inherit;fontSize=16;" parent="N7fRc56kS8bR0nnPCuzB-278" vertex="1">
          <mxGeometry x="60" width="369" height="30" as="geometry">
            <mxRectangle width="369" height="30" as="alternateBounds" />
          </mxGeometry>
        </mxCell>
        <mxCell id="N7fRc56kS8bR0nnPCuzB-281" style="shape=partialRectangle;html=1;whiteSpace=wrap;connectable=0;fillColor=none;top=0;left=0;bottom=0;right=0;align=left;spacingLeft=6;overflow=hidden;strokeColor=inherit;fontSize=16;" parent="N7fRc56kS8bR0nnPCuzB-278" vertex="1">
          <mxGeometry x="429" width="51" height="30" as="geometry">
            <mxRectangle width="51" height="30" as="alternateBounds" />
          </mxGeometry>
        </mxCell>
        <mxCell id="N7fRc56kS8bR0nnPCuzB-282" style="shape=tableRow;horizontal=0;startSize=0;swimlaneHead=0;swimlaneBody=0;top=0;left=0;bottom=0;right=0;collapsible=0;dropTarget=0;fillColor=none;points=[[0,0.5],[1,0.5]];portConstraint=eastwest;strokeColor=inherit;fontSize=16;" parent="N7fRc56kS8bR0nnPCuzB-261" vertex="1">
          <mxGeometry y="180" width="480" height="30" as="geometry" />
        </mxCell>
        <mxCell id="N7fRc56kS8bR0nnPCuzB-283" style="shape=partialRectangle;html=1;whiteSpace=wrap;connectable=0;fillColor=none;top=0;left=0;bottom=0;right=0;overflow=hidden;strokeColor=inherit;fontSize=16;" parent="N7fRc56kS8bR0nnPCuzB-282" vertex="1">
          <mxGeometry width="60" height="30" as="geometry">
            <mxRectangle width="60" height="30" as="alternateBounds" />
          </mxGeometry>
        </mxCell>
        <mxCell id="N7fRc56kS8bR0nnPCuzB-284" style="shape=partialRectangle;html=1;whiteSpace=wrap;connectable=0;fillColor=none;top=0;left=0;bottom=0;right=0;align=left;spacingLeft=6;overflow=hidden;strokeColor=inherit;fontSize=16;" parent="N7fRc56kS8bR0nnPCuzB-282" vertex="1">
          <mxGeometry x="60" width="369" height="30" as="geometry">
            <mxRectangle width="369" height="30" as="alternateBounds" />
          </mxGeometry>
        </mxCell>
        <mxCell id="N7fRc56kS8bR0nnPCuzB-285" style="shape=partialRectangle;html=1;whiteSpace=wrap;connectable=0;fillColor=none;top=0;left=0;bottom=0;right=0;align=left;spacingLeft=6;overflow=hidden;strokeColor=inherit;fontSize=16;" parent="N7fRc56kS8bR0nnPCuzB-282" vertex="1">
          <mxGeometry x="429" width="51" height="30" as="geometry">
            <mxRectangle width="51" height="30" as="alternateBounds" />
          </mxGeometry>
        </mxCell>
        <mxCell id="N7fRc56kS8bR0nnPCuzB-311" style="edgeStyle=orthogonalEdgeStyle;rounded=0;orthogonalLoop=1;jettySize=auto;html=1;entryX=1;entryY=0.5;entryDx=0;entryDy=0;" parent="1" source="N7fRc56kS8bR0nnPCuzB-286" target="N7fRc56kS8bR0nnPCuzB-274" edge="1">
          <mxGeometry relative="1" as="geometry" />
        </mxCell>
        <mxCell id="N7fRc56kS8bR0nnPCuzB-286" value="TRANSACTION_CODE" style="shape=table;startSize=30;container=1;collapsible=0;childLayout=tableLayout;fixedRows=1;rowLines=0;fontStyle=0;strokeColor=#82b366;fontSize=16;fillColor=#d5e8d4;" parent="1" vertex="1">
          <mxGeometry x="1035" y="229" width="480" height="210" as="geometry" />
        </mxCell>
        <mxCell id="N7fRc56kS8bR0nnPCuzB-287" value="" style="shape=tableRow;horizontal=0;startSize=0;swimlaneHead=0;swimlaneBody=0;top=0;left=0;bottom=0;right=0;collapsible=0;dropTarget=0;fillColor=none;points=[[0,0.5],[1,0.5]];portConstraint=eastwest;strokeColor=inherit;fontSize=16;" parent="N7fRc56kS8bR0nnPCuzB-286" vertex="1">
          <mxGeometry y="30" width="480" height="30" as="geometry" />
        </mxCell>
        <mxCell id="N7fRc56kS8bR0nnPCuzB-288" value="2" style="shape=partialRectangle;html=1;whiteSpace=wrap;connectable=0;fillColor=none;top=0;left=0;bottom=0;right=0;overflow=hidden;pointerEvents=1;strokeColor=inherit;fontSize=16;" parent="N7fRc56kS8bR0nnPCuzB-287" vertex="1">
          <mxGeometry width="60" height="30" as="geometry">
            <mxRectangle width="60" height="30" as="alternateBounds" />
          </mxGeometry>
        </mxCell>
        <mxCell id="N7fRc56kS8bR0nnPCuzB-289" value="REF_CODE" style="shape=partialRectangle;html=1;whiteSpace=wrap;connectable=0;fillColor=none;top=0;left=0;bottom=0;right=0;align=left;spacingLeft=6;overflow=hidden;strokeColor=inherit;fontSize=16;" parent="N7fRc56kS8bR0nnPCuzB-287" vertex="1">
          <mxGeometry x="60" width="369" height="30" as="geometry">
            <mxRectangle width="369" height="30" as="alternateBounds" />
          </mxGeometry>
        </mxCell>
        <mxCell id="N7fRc56kS8bR0nnPCuzB-290" style="shape=partialRectangle;html=1;whiteSpace=wrap;connectable=0;fillColor=none;top=0;left=0;bottom=0;right=0;align=left;spacingLeft=6;overflow=hidden;strokeColor=inherit;fontSize=16;" parent="N7fRc56kS8bR0nnPCuzB-287" vertex="1">
          <mxGeometry x="429" width="51" height="30" as="geometry">
            <mxRectangle width="51" height="30" as="alternateBounds" />
          </mxGeometry>
        </mxCell>
        <mxCell id="N7fRc56kS8bR0nnPCuzB-291" style="shape=tableRow;horizontal=0;startSize=0;swimlaneHead=0;swimlaneBody=0;top=0;left=0;bottom=0;right=0;collapsible=0;dropTarget=0;fillColor=none;points=[[0,0.5],[1,0.5]];portConstraint=eastwest;strokeColor=inherit;fontSize=16;" parent="N7fRc56kS8bR0nnPCuzB-286" vertex="1">
          <mxGeometry y="60" width="480" height="20" as="geometry" />
        </mxCell>
        <mxCell id="N7fRc56kS8bR0nnPCuzB-292" value="3" style="shape=partialRectangle;html=1;whiteSpace=wrap;connectable=0;fillColor=none;top=0;left=0;bottom=0;right=0;overflow=hidden;strokeColor=inherit;fontSize=16;" parent="N7fRc56kS8bR0nnPCuzB-291" vertex="1">
          <mxGeometry width="60" height="20" as="geometry">
            <mxRectangle width="60" height="20" as="alternateBounds" />
          </mxGeometry>
        </mxCell>
        <mxCell id="N7fRc56kS8bR0nnPCuzB-293" value="NAME" style="shape=partialRectangle;html=1;whiteSpace=wrap;connectable=0;fillColor=none;top=0;left=0;bottom=0;right=0;align=left;spacingLeft=6;overflow=hidden;strokeColor=inherit;fontSize=16;" parent="N7fRc56kS8bR0nnPCuzB-291" vertex="1">
          <mxGeometry x="60" width="369" height="20" as="geometry">
            <mxRectangle width="369" height="20" as="alternateBounds" />
          </mxGeometry>
        </mxCell>
        <mxCell id="N7fRc56kS8bR0nnPCuzB-294" value="" style="shape=partialRectangle;html=1;whiteSpace=wrap;connectable=0;fillColor=none;top=0;left=0;bottom=0;right=0;align=left;spacingLeft=6;overflow=hidden;strokeColor=inherit;fontSize=16;" parent="N7fRc56kS8bR0nnPCuzB-291" vertex="1">
          <mxGeometry x="429" width="51" height="20" as="geometry">
            <mxRectangle width="51" height="20" as="alternateBounds" />
          </mxGeometry>
        </mxCell>
        <mxCell id="N7fRc56kS8bR0nnPCuzB-295" style="shape=tableRow;horizontal=0;startSize=0;swimlaneHead=0;swimlaneBody=0;top=0;left=0;bottom=0;right=0;collapsible=0;dropTarget=0;fillColor=none;points=[[0,0.5],[1,0.5]];portConstraint=eastwest;strokeColor=inherit;fontSize=16;" parent="N7fRc56kS8bR0nnPCuzB-286" vertex="1">
          <mxGeometry y="80" width="480" height="40" as="geometry" />
        </mxCell>
        <mxCell id="N7fRc56kS8bR0nnPCuzB-296" value="4" style="shape=partialRectangle;html=1;whiteSpace=wrap;connectable=0;fillColor=none;top=0;left=0;bottom=0;right=0;overflow=hidden;strokeColor=inherit;fontSize=16;" parent="N7fRc56kS8bR0nnPCuzB-295" vertex="1">
          <mxGeometry width="60" height="40" as="geometry">
            <mxRectangle width="60" height="40" as="alternateBounds" />
          </mxGeometry>
        </mxCell>
        <mxCell id="N7fRc56kS8bR0nnPCuzB-297" value="DESCRIPTION" style="shape=partialRectangle;html=1;whiteSpace=wrap;connectable=0;fillColor=none;top=0;left=0;bottom=0;right=0;align=left;spacingLeft=6;overflow=hidden;strokeColor=inherit;fontSize=16;" parent="N7fRc56kS8bR0nnPCuzB-295" vertex="1">
          <mxGeometry x="60" width="369" height="40" as="geometry">
            <mxRectangle width="369" height="40" as="alternateBounds" />
          </mxGeometry>
        </mxCell>
        <mxCell id="N7fRc56kS8bR0nnPCuzB-298" style="shape=partialRectangle;html=1;whiteSpace=wrap;connectable=0;fillColor=none;top=0;left=0;bottom=0;right=0;align=left;spacingLeft=6;overflow=hidden;strokeColor=inherit;fontSize=16;" parent="N7fRc56kS8bR0nnPCuzB-295" vertex="1">
          <mxGeometry x="429" width="51" height="40" as="geometry">
            <mxRectangle width="51" height="40" as="alternateBounds" />
          </mxGeometry>
        </mxCell>
        <mxCell id="N7fRc56kS8bR0nnPCuzB-299" style="shape=tableRow;horizontal=0;startSize=0;swimlaneHead=0;swimlaneBody=0;top=0;left=0;bottom=0;right=0;collapsible=0;dropTarget=0;fillColor=none;points=[[0,0.5],[1,0.5]];portConstraint=eastwest;strokeColor=inherit;fontSize=16;" parent="N7fRc56kS8bR0nnPCuzB-286" vertex="1">
          <mxGeometry y="120" width="480" height="30" as="geometry" />
        </mxCell>
        <mxCell id="N7fRc56kS8bR0nnPCuzB-300" value="" style="shape=partialRectangle;html=1;whiteSpace=wrap;connectable=0;fillColor=none;top=0;left=0;bottom=0;right=0;overflow=hidden;strokeColor=inherit;fontSize=16;" parent="N7fRc56kS8bR0nnPCuzB-299" vertex="1">
          <mxGeometry width="60" height="30" as="geometry">
            <mxRectangle width="60" height="30" as="alternateBounds" />
          </mxGeometry>
        </mxCell>
        <mxCell id="N7fRc56kS8bR0nnPCuzB-301" value="TRANSACTION_CODE_TAG" style="shape=partialRectangle;html=1;whiteSpace=wrap;connectable=0;fillColor=none;top=0;left=0;bottom=0;right=0;align=left;spacingLeft=6;overflow=hidden;strokeColor=inherit;fontSize=16;" parent="N7fRc56kS8bR0nnPCuzB-299" vertex="1">
          <mxGeometry x="60" width="369" height="30" as="geometry">
            <mxRectangle width="369" height="30" as="alternateBounds" />
          </mxGeometry>
        </mxCell>
        <mxCell id="N7fRc56kS8bR0nnPCuzB-302" style="shape=partialRectangle;html=1;whiteSpace=wrap;connectable=0;fillColor=none;top=0;left=0;bottom=0;right=0;align=left;spacingLeft=6;overflow=hidden;strokeColor=inherit;fontSize=16;" parent="N7fRc56kS8bR0nnPCuzB-299" vertex="1">
          <mxGeometry x="429" width="51" height="30" as="geometry">
            <mxRectangle width="51" height="30" as="alternateBounds" />
          </mxGeometry>
        </mxCell>
        <mxCell id="N7fRc56kS8bR0nnPCuzB-303" style="shape=tableRow;horizontal=0;startSize=0;swimlaneHead=0;swimlaneBody=0;top=0;left=0;bottom=0;right=0;collapsible=0;dropTarget=0;fillColor=none;points=[[0,0.5],[1,0.5]];portConstraint=eastwest;strokeColor=inherit;fontSize=16;" parent="N7fRc56kS8bR0nnPCuzB-286" vertex="1">
          <mxGeometry y="150" width="480" height="30" as="geometry" />
        </mxCell>
        <mxCell id="N7fRc56kS8bR0nnPCuzB-304" style="shape=partialRectangle;html=1;whiteSpace=wrap;connectable=0;fillColor=none;top=0;left=0;bottom=0;right=0;overflow=hidden;strokeColor=inherit;fontSize=16;" parent="N7fRc56kS8bR0nnPCuzB-303" vertex="1">
          <mxGeometry width="60" height="30" as="geometry">
            <mxRectangle width="60" height="30" as="alternateBounds" />
          </mxGeometry>
        </mxCell>
        <mxCell id="N7fRc56kS8bR0nnPCuzB-305" style="shape=partialRectangle;html=1;whiteSpace=wrap;connectable=0;fillColor=none;top=0;left=0;bottom=0;right=0;align=left;spacingLeft=6;overflow=hidden;strokeColor=inherit;fontSize=16;" parent="N7fRc56kS8bR0nnPCuzB-303" vertex="1">
          <mxGeometry x="60" width="369" height="30" as="geometry">
            <mxRectangle width="369" height="30" as="alternateBounds" />
          </mxGeometry>
        </mxCell>
        <mxCell id="N7fRc56kS8bR0nnPCuzB-306" style="shape=partialRectangle;html=1;whiteSpace=wrap;connectable=0;fillColor=none;top=0;left=0;bottom=0;right=0;align=left;spacingLeft=6;overflow=hidden;strokeColor=inherit;fontSize=16;" parent="N7fRc56kS8bR0nnPCuzB-303" vertex="1">
          <mxGeometry x="429" width="51" height="30" as="geometry">
            <mxRectangle width="51" height="30" as="alternateBounds" />
          </mxGeometry>
        </mxCell>
        <mxCell id="N7fRc56kS8bR0nnPCuzB-307" style="shape=tableRow;horizontal=0;startSize=0;swimlaneHead=0;swimlaneBody=0;top=0;left=0;bottom=0;right=0;collapsible=0;dropTarget=0;fillColor=none;points=[[0,0.5],[1,0.5]];portConstraint=eastwest;strokeColor=inherit;fontSize=16;" parent="N7fRc56kS8bR0nnPCuzB-286" vertex="1">
          <mxGeometry y="180" width="480" height="30" as="geometry" />
        </mxCell>
        <mxCell id="N7fRc56kS8bR0nnPCuzB-308" style="shape=partialRectangle;html=1;whiteSpace=wrap;connectable=0;fillColor=none;top=0;left=0;bottom=0;right=0;overflow=hidden;strokeColor=inherit;fontSize=16;" parent="N7fRc56kS8bR0nnPCuzB-307" vertex="1">
          <mxGeometry width="60" height="30" as="geometry">
            <mxRectangle width="60" height="30" as="alternateBounds" />
          </mxGeometry>
        </mxCell>
        <mxCell id="N7fRc56kS8bR0nnPCuzB-309" style="shape=partialRectangle;html=1;whiteSpace=wrap;connectable=0;fillColor=none;top=0;left=0;bottom=0;right=0;align=left;spacingLeft=6;overflow=hidden;strokeColor=inherit;fontSize=16;" parent="N7fRc56kS8bR0nnPCuzB-307" vertex="1">
          <mxGeometry x="60" width="369" height="30" as="geometry">
            <mxRectangle width="369" height="30" as="alternateBounds" />
          </mxGeometry>
        </mxCell>
        <mxCell id="N7fRc56kS8bR0nnPCuzB-310" style="shape=partialRectangle;html=1;whiteSpace=wrap;connectable=0;fillColor=none;top=0;left=0;bottom=0;right=0;align=left;spacingLeft=6;overflow=hidden;strokeColor=inherit;fontSize=16;" parent="N7fRc56kS8bR0nnPCuzB-307" vertex="1">
          <mxGeometry x="429" width="51" height="30" as="geometry">
            <mxRectangle width="51" height="30" as="alternateBounds" />
          </mxGeometry>
        </mxCell>
        <mxCell id="m2DlXGx4T2o9hU3u0J18-1" style="edgeStyle=orthogonalEdgeStyle;rounded=0;orthogonalLoop=1;jettySize=auto;html=1;entryX=0.463;entryY=1.017;entryDx=0;entryDy=0;entryPerimeter=0;" edge="1" parent="1" source="N7fRc56kS8bR0nnPCuzB-312" target="N7fRc56kS8bR0nnPCuzB-307">
          <mxGeometry relative="1" as="geometry" />
        </mxCell>
        <mxCell id="N7fRc56kS8bR0nnPCuzB-312" value="TRANSACTION_CODE_TAG_SCHEMA" style="shape=table;startSize=30;container=1;collapsible=0;childLayout=tableLayout;fixedRows=1;rowLines=0;fontStyle=0;strokeColor=#82b366;fontSize=16;fillColor=#d5e8d4;" parent="1" vertex="1">
          <mxGeometry x="1045" y="529" width="480" height="190" as="geometry" />
        </mxCell>
        <mxCell id="N7fRc56kS8bR0nnPCuzB-313" value="" style="shape=tableRow;horizontal=0;startSize=0;swimlaneHead=0;swimlaneBody=0;top=0;left=0;bottom=0;right=0;collapsible=0;dropTarget=0;fillColor=none;points=[[0,0.5],[1,0.5]];portConstraint=eastwest;strokeColor=inherit;fontSize=16;" parent="N7fRc56kS8bR0nnPCuzB-312" vertex="1">
          <mxGeometry y="30" width="480" height="30" as="geometry" />
        </mxCell>
        <mxCell id="N7fRc56kS8bR0nnPCuzB-314" value="2" style="shape=partialRectangle;html=1;whiteSpace=wrap;connectable=0;fillColor=none;top=0;left=0;bottom=0;right=0;overflow=hidden;pointerEvents=1;strokeColor=inherit;fontSize=16;" parent="N7fRc56kS8bR0nnPCuzB-313" vertex="1">
          <mxGeometry width="60" height="30" as="geometry">
            <mxRectangle width="60" height="30" as="alternateBounds" />
          </mxGeometry>
        </mxCell>
        <mxCell id="N7fRc56kS8bR0nnPCuzB-315" value="TAG_NAME" style="shape=partialRectangle;html=1;whiteSpace=wrap;connectable=0;fillColor=none;top=0;left=0;bottom=0;right=0;align=left;spacingLeft=6;overflow=hidden;strokeColor=inherit;fontSize=16;" parent="N7fRc56kS8bR0nnPCuzB-313" vertex="1">
          <mxGeometry x="60" width="369" height="30" as="geometry">
            <mxRectangle width="369" height="30" as="alternateBounds" />
          </mxGeometry>
        </mxCell>
        <mxCell id="N7fRc56kS8bR0nnPCuzB-316" style="shape=partialRectangle;html=1;whiteSpace=wrap;connectable=0;fillColor=none;top=0;left=0;bottom=0;right=0;align=left;spacingLeft=6;overflow=hidden;strokeColor=inherit;fontSize=16;" parent="N7fRc56kS8bR0nnPCuzB-313" vertex="1">
          <mxGeometry x="429" width="51" height="30" as="geometry">
            <mxRectangle width="51" height="30" as="alternateBounds" />
          </mxGeometry>
        </mxCell>
        <mxCell id="N7fRc56kS8bR0nnPCuzB-321" style="shape=tableRow;horizontal=0;startSize=0;swimlaneHead=0;swimlaneBody=0;top=0;left=0;bottom=0;right=0;collapsible=0;dropTarget=0;fillColor=none;points=[[0,0.5],[1,0.5]];portConstraint=eastwest;strokeColor=inherit;fontSize=16;" parent="N7fRc56kS8bR0nnPCuzB-312" vertex="1">
          <mxGeometry y="60" width="480" height="40" as="geometry" />
        </mxCell>
        <mxCell id="N7fRc56kS8bR0nnPCuzB-322" value="3" style="shape=partialRectangle;html=1;whiteSpace=wrap;connectable=0;fillColor=none;top=0;left=0;bottom=0;right=0;overflow=hidden;strokeColor=inherit;fontSize=16;" parent="N7fRc56kS8bR0nnPCuzB-321" vertex="1">
          <mxGeometry width="60" height="40" as="geometry">
            <mxRectangle width="60" height="40" as="alternateBounds" />
          </mxGeometry>
        </mxCell>
        <mxCell id="N7fRc56kS8bR0nnPCuzB-323" value="TAG_JSON_SCHEMA" style="shape=partialRectangle;html=1;whiteSpace=wrap;connectable=0;fillColor=none;top=0;left=0;bottom=0;right=0;align=left;spacingLeft=6;overflow=hidden;strokeColor=inherit;fontSize=16;" parent="N7fRc56kS8bR0nnPCuzB-321" vertex="1">
          <mxGeometry x="60" width="369" height="40" as="geometry">
            <mxRectangle width="369" height="40" as="alternateBounds" />
          </mxGeometry>
        </mxCell>
        <mxCell id="N7fRc56kS8bR0nnPCuzB-324" style="shape=partialRectangle;html=1;whiteSpace=wrap;connectable=0;fillColor=none;top=0;left=0;bottom=0;right=0;align=left;spacingLeft=6;overflow=hidden;strokeColor=inherit;fontSize=16;" parent="N7fRc56kS8bR0nnPCuzB-321" vertex="1">
          <mxGeometry x="429" width="51" height="40" as="geometry">
            <mxRectangle width="51" height="40" as="alternateBounds" />
          </mxGeometry>
        </mxCell>
        <mxCell id="N7fRc56kS8bR0nnPCuzB-325" style="shape=tableRow;horizontal=0;startSize=0;swimlaneHead=0;swimlaneBody=0;top=0;left=0;bottom=0;right=0;collapsible=0;dropTarget=0;fillColor=none;points=[[0,0.5],[1,0.5]];portConstraint=eastwest;strokeColor=inherit;fontSize=16;" parent="N7fRc56kS8bR0nnPCuzB-312" vertex="1">
          <mxGeometry y="100" width="480" height="30" as="geometry" />
        </mxCell>
        <mxCell id="N7fRc56kS8bR0nnPCuzB-326" value="4" style="shape=partialRectangle;html=1;whiteSpace=wrap;connectable=0;fillColor=none;top=0;left=0;bottom=0;right=0;overflow=hidden;strokeColor=inherit;fontSize=16;" parent="N7fRc56kS8bR0nnPCuzB-325" vertex="1">
          <mxGeometry width="60" height="30" as="geometry">
            <mxRectangle width="60" height="30" as="alternateBounds" />
          </mxGeometry>
        </mxCell>
        <mxCell id="N7fRc56kS8bR0nnPCuzB-327" value="DESCRIPTION" style="shape=partialRectangle;html=1;whiteSpace=wrap;connectable=0;fillColor=none;top=0;left=0;bottom=0;right=0;align=left;spacingLeft=6;overflow=hidden;strokeColor=inherit;fontSize=16;" parent="N7fRc56kS8bR0nnPCuzB-325" vertex="1">
          <mxGeometry x="60" width="369" height="30" as="geometry">
            <mxRectangle width="369" height="30" as="alternateBounds" />
          </mxGeometry>
        </mxCell>
        <mxCell id="N7fRc56kS8bR0nnPCuzB-328" style="shape=partialRectangle;html=1;whiteSpace=wrap;connectable=0;fillColor=none;top=0;left=0;bottom=0;right=0;align=left;spacingLeft=6;overflow=hidden;strokeColor=inherit;fontSize=16;" parent="N7fRc56kS8bR0nnPCuzB-325" vertex="1">
          <mxGeometry x="429" width="51" height="30" as="geometry">
            <mxRectangle width="51" height="30" as="alternateBounds" />
          </mxGeometry>
        </mxCell>
        <mxCell id="N7fRc56kS8bR0nnPCuzB-329" style="shape=tableRow;horizontal=0;startSize=0;swimlaneHead=0;swimlaneBody=0;top=0;left=0;bottom=0;right=0;collapsible=0;dropTarget=0;fillColor=none;points=[[0,0.5],[1,0.5]];portConstraint=eastwest;strokeColor=inherit;fontSize=16;" parent="N7fRc56kS8bR0nnPCuzB-312" vertex="1">
          <mxGeometry y="130" width="480" height="30" as="geometry" />
        </mxCell>
        <mxCell id="N7fRc56kS8bR0nnPCuzB-330" style="shape=partialRectangle;html=1;whiteSpace=wrap;connectable=0;fillColor=none;top=0;left=0;bottom=0;right=0;overflow=hidden;strokeColor=inherit;fontSize=16;" parent="N7fRc56kS8bR0nnPCuzB-329" vertex="1">
          <mxGeometry width="60" height="30" as="geometry">
            <mxRectangle width="60" height="30" as="alternateBounds" />
          </mxGeometry>
        </mxCell>
        <mxCell id="N7fRc56kS8bR0nnPCuzB-331" style="shape=partialRectangle;html=1;whiteSpace=wrap;connectable=0;fillColor=none;top=0;left=0;bottom=0;right=0;align=left;spacingLeft=6;overflow=hidden;strokeColor=inherit;fontSize=16;" parent="N7fRc56kS8bR0nnPCuzB-329" vertex="1">
          <mxGeometry x="60" width="369" height="30" as="geometry">
            <mxRectangle width="369" height="30" as="alternateBounds" />
          </mxGeometry>
        </mxCell>
        <mxCell id="N7fRc56kS8bR0nnPCuzB-332" style="shape=partialRectangle;html=1;whiteSpace=wrap;connectable=0;fillColor=none;top=0;left=0;bottom=0;right=0;align=left;spacingLeft=6;overflow=hidden;strokeColor=inherit;fontSize=16;" parent="N7fRc56kS8bR0nnPCuzB-329" vertex="1">
          <mxGeometry x="429" width="51" height="30" as="geometry">
            <mxRectangle width="51" height="30" as="alternateBounds" />
          </mxGeometry>
        </mxCell>
        <mxCell id="N7fRc56kS8bR0nnPCuzB-333" style="shape=tableRow;horizontal=0;startSize=0;swimlaneHead=0;swimlaneBody=0;top=0;left=0;bottom=0;right=0;collapsible=0;dropTarget=0;fillColor=none;points=[[0,0.5],[1,0.5]];portConstraint=eastwest;strokeColor=inherit;fontSize=16;" parent="N7fRc56kS8bR0nnPCuzB-312" vertex="1">
          <mxGeometry y="160" width="480" height="30" as="geometry" />
        </mxCell>
        <mxCell id="N7fRc56kS8bR0nnPCuzB-334" style="shape=partialRectangle;html=1;whiteSpace=wrap;connectable=0;fillColor=none;top=0;left=0;bottom=0;right=0;overflow=hidden;strokeColor=inherit;fontSize=16;" parent="N7fRc56kS8bR0nnPCuzB-333" vertex="1">
          <mxGeometry width="60" height="30" as="geometry">
            <mxRectangle width="60" height="30" as="alternateBounds" />
          </mxGeometry>
        </mxCell>
        <mxCell id="N7fRc56kS8bR0nnPCuzB-335" style="shape=partialRectangle;html=1;whiteSpace=wrap;connectable=0;fillColor=none;top=0;left=0;bottom=0;right=0;align=left;spacingLeft=6;overflow=hidden;strokeColor=inherit;fontSize=16;" parent="N7fRc56kS8bR0nnPCuzB-333" vertex="1">
          <mxGeometry x="60" width="369" height="30" as="geometry">
            <mxRectangle width="369" height="30" as="alternateBounds" />
          </mxGeometry>
        </mxCell>
        <mxCell id="N7fRc56kS8bR0nnPCuzB-336" style="shape=partialRectangle;html=1;whiteSpace=wrap;connectable=0;fillColor=none;top=0;left=0;bottom=0;right=0;align=left;spacingLeft=6;overflow=hidden;strokeColor=inherit;fontSize=16;" parent="N7fRc56kS8bR0nnPCuzB-333" vertex="1">
          <mxGeometry x="429" width="51" height="30" as="geometry">
            <mxRectangle width="51" height="30" as="alternateBounds" />
          </mxGeometry>
        </mxCell>
        <mxCell id="m2DlXGx4T2o9hU3u0J18-23" style="edgeStyle=orthogonalEdgeStyle;rounded=0;orthogonalLoop=1;jettySize=auto;html=1;entryX=0.556;entryY=1.017;entryDx=0;entryDy=0;entryPerimeter=0;" edge="1" parent="1" source="m2DlXGx4T2o9hU3u0J18-2" target="N7fRc56kS8bR0nnPCuzB-282">
          <mxGeometry relative="1" as="geometry" />
        </mxCell>
        <mxCell id="m2DlXGx4T2o9hU3u0J18-2" value="ACCOUNT_TRANSACTION_CODE_TAG" style="shape=table;startSize=30;container=1;collapsible=0;childLayout=tableLayout;fixedRows=1;rowLines=0;fontStyle=0;strokeColor=#82b366;fontSize=16;fillColor=#d5e8d4;" vertex="1" parent="1">
          <mxGeometry x="510" y="539" width="480" height="190" as="geometry" />
        </mxCell>
        <mxCell id="m2DlXGx4T2o9hU3u0J18-3" value="" style="shape=tableRow;horizontal=0;startSize=0;swimlaneHead=0;swimlaneBody=0;top=0;left=0;bottom=0;right=0;collapsible=0;dropTarget=0;fillColor=none;points=[[0,0.5],[1,0.5]];portConstraint=eastwest;strokeColor=inherit;fontSize=16;" vertex="1" parent="m2DlXGx4T2o9hU3u0J18-2">
          <mxGeometry y="30" width="480" height="30" as="geometry" />
        </mxCell>
        <mxCell id="m2DlXGx4T2o9hU3u0J18-4" value="2" style="shape=partialRectangle;html=1;whiteSpace=wrap;connectable=0;fillColor=none;top=0;left=0;bottom=0;right=0;overflow=hidden;pointerEvents=1;strokeColor=inherit;fontSize=16;" vertex="1" parent="m2DlXGx4T2o9hU3u0J18-3">
          <mxGeometry width="60" height="30" as="geometry">
            <mxRectangle width="60" height="30" as="alternateBounds" />
          </mxGeometry>
        </mxCell>
        <mxCell id="m2DlXGx4T2o9hU3u0J18-5" value="TRANSACTION_ID" style="shape=partialRectangle;html=1;whiteSpace=wrap;connectable=0;fillColor=none;top=0;left=0;bottom=0;right=0;align=left;spacingLeft=6;overflow=hidden;strokeColor=inherit;fontSize=16;" vertex="1" parent="m2DlXGx4T2o9hU3u0J18-3">
          <mxGeometry x="60" width="369" height="30" as="geometry">
            <mxRectangle width="369" height="30" as="alternateBounds" />
          </mxGeometry>
        </mxCell>
        <mxCell id="m2DlXGx4T2o9hU3u0J18-6" style="shape=partialRectangle;html=1;whiteSpace=wrap;connectable=0;fillColor=none;top=0;left=0;bottom=0;right=0;align=left;spacingLeft=6;overflow=hidden;strokeColor=inherit;fontSize=16;" vertex="1" parent="m2DlXGx4T2o9hU3u0J18-3">
          <mxGeometry x="429" width="51" height="30" as="geometry">
            <mxRectangle width="51" height="30" as="alternateBounds" />
          </mxGeometry>
        </mxCell>
        <mxCell id="m2DlXGx4T2o9hU3u0J18-11" style="shape=tableRow;horizontal=0;startSize=0;swimlaneHead=0;swimlaneBody=0;top=0;left=0;bottom=0;right=0;collapsible=0;dropTarget=0;fillColor=none;points=[[0,0.5],[1,0.5]];portConstraint=eastwest;strokeColor=inherit;fontSize=16;" vertex="1" parent="m2DlXGx4T2o9hU3u0J18-2">
          <mxGeometry y="60" width="480" height="30" as="geometry" />
        </mxCell>
        <mxCell id="m2DlXGx4T2o9hU3u0J18-12" value="4" style="shape=partialRectangle;html=1;whiteSpace=wrap;connectable=0;fillColor=none;top=0;left=0;bottom=0;right=0;overflow=hidden;strokeColor=inherit;fontSize=16;" vertex="1" parent="m2DlXGx4T2o9hU3u0J18-11">
          <mxGeometry width="60" height="30" as="geometry">
            <mxRectangle width="60" height="30" as="alternateBounds" />
          </mxGeometry>
        </mxCell>
        <mxCell id="m2DlXGx4T2o9hU3u0J18-13" value="TAG_NAME" style="shape=partialRectangle;html=1;whiteSpace=wrap;connectable=0;fillColor=none;top=0;left=0;bottom=0;right=0;align=left;spacingLeft=6;overflow=hidden;strokeColor=inherit;fontSize=16;" vertex="1" parent="m2DlXGx4T2o9hU3u0J18-11">
          <mxGeometry x="60" width="369" height="30" as="geometry">
            <mxRectangle width="369" height="30" as="alternateBounds" />
          </mxGeometry>
        </mxCell>
        <mxCell id="m2DlXGx4T2o9hU3u0J18-14" style="shape=partialRectangle;html=1;whiteSpace=wrap;connectable=0;fillColor=none;top=0;left=0;bottom=0;right=0;align=left;spacingLeft=6;overflow=hidden;strokeColor=inherit;fontSize=16;" vertex="1" parent="m2DlXGx4T2o9hU3u0J18-11">
          <mxGeometry x="429" width="51" height="30" as="geometry">
            <mxRectangle width="51" height="30" as="alternateBounds" />
          </mxGeometry>
        </mxCell>
        <mxCell id="m2DlXGx4T2o9hU3u0J18-7" style="shape=tableRow;horizontal=0;startSize=0;swimlaneHead=0;swimlaneBody=0;top=0;left=0;bottom=0;right=0;collapsible=0;dropTarget=0;fillColor=none;points=[[0,0.5],[1,0.5]];portConstraint=eastwest;strokeColor=inherit;fontSize=16;" vertex="1" parent="m2DlXGx4T2o9hU3u0J18-2">
          <mxGeometry y="90" width="480" height="40" as="geometry" />
        </mxCell>
        <mxCell id="m2DlXGx4T2o9hU3u0J18-8" value="3" style="shape=partialRectangle;html=1;whiteSpace=wrap;connectable=0;fillColor=none;top=0;left=0;bottom=0;right=0;overflow=hidden;strokeColor=inherit;fontSize=16;" vertex="1" parent="m2DlXGx4T2o9hU3u0J18-7">
          <mxGeometry width="60" height="40" as="geometry">
            <mxRectangle width="60" height="40" as="alternateBounds" />
          </mxGeometry>
        </mxCell>
        <mxCell id="m2DlXGx4T2o9hU3u0J18-9" value="JSON_TAG" style="shape=partialRectangle;html=1;whiteSpace=wrap;connectable=0;fillColor=none;top=0;left=0;bottom=0;right=0;align=left;spacingLeft=6;overflow=hidden;strokeColor=inherit;fontSize=16;" vertex="1" parent="m2DlXGx4T2o9hU3u0J18-7">
          <mxGeometry x="60" width="369" height="40" as="geometry">
            <mxRectangle width="369" height="40" as="alternateBounds" />
          </mxGeometry>
        </mxCell>
        <mxCell id="m2DlXGx4T2o9hU3u0J18-10" style="shape=partialRectangle;html=1;whiteSpace=wrap;connectable=0;fillColor=none;top=0;left=0;bottom=0;right=0;align=left;spacingLeft=6;overflow=hidden;strokeColor=inherit;fontSize=16;" vertex="1" parent="m2DlXGx4T2o9hU3u0J18-7">
          <mxGeometry x="429" width="51" height="40" as="geometry">
            <mxRectangle width="51" height="40" as="alternateBounds" />
          </mxGeometry>
        </mxCell>
        <mxCell id="m2DlXGx4T2o9hU3u0J18-15" style="shape=tableRow;horizontal=0;startSize=0;swimlaneHead=0;swimlaneBody=0;top=0;left=0;bottom=0;right=0;collapsible=0;dropTarget=0;fillColor=none;points=[[0,0.5],[1,0.5]];portConstraint=eastwest;strokeColor=inherit;fontSize=16;" vertex="1" parent="m2DlXGx4T2o9hU3u0J18-2">
          <mxGeometry y="130" width="480" height="30" as="geometry" />
        </mxCell>
        <mxCell id="m2DlXGx4T2o9hU3u0J18-16" style="shape=partialRectangle;html=1;whiteSpace=wrap;connectable=0;fillColor=none;top=0;left=0;bottom=0;right=0;overflow=hidden;strokeColor=inherit;fontSize=16;" vertex="1" parent="m2DlXGx4T2o9hU3u0J18-15">
          <mxGeometry width="60" height="30" as="geometry">
            <mxRectangle width="60" height="30" as="alternateBounds" />
          </mxGeometry>
        </mxCell>
        <mxCell id="m2DlXGx4T2o9hU3u0J18-17" style="shape=partialRectangle;html=1;whiteSpace=wrap;connectable=0;fillColor=none;top=0;left=0;bottom=0;right=0;align=left;spacingLeft=6;overflow=hidden;strokeColor=inherit;fontSize=16;" vertex="1" parent="m2DlXGx4T2o9hU3u0J18-15">
          <mxGeometry x="60" width="369" height="30" as="geometry">
            <mxRectangle width="369" height="30" as="alternateBounds" />
          </mxGeometry>
        </mxCell>
        <mxCell id="m2DlXGx4T2o9hU3u0J18-18" style="shape=partialRectangle;html=1;whiteSpace=wrap;connectable=0;fillColor=none;top=0;left=0;bottom=0;right=0;align=left;spacingLeft=6;overflow=hidden;strokeColor=inherit;fontSize=16;" vertex="1" parent="m2DlXGx4T2o9hU3u0J18-15">
          <mxGeometry x="429" width="51" height="30" as="geometry">
            <mxRectangle width="51" height="30" as="alternateBounds" />
          </mxGeometry>
        </mxCell>
        <mxCell id="m2DlXGx4T2o9hU3u0J18-19" style="shape=tableRow;horizontal=0;startSize=0;swimlaneHead=0;swimlaneBody=0;top=0;left=0;bottom=0;right=0;collapsible=0;dropTarget=0;fillColor=none;points=[[0,0.5],[1,0.5]];portConstraint=eastwest;strokeColor=inherit;fontSize=16;" vertex="1" parent="m2DlXGx4T2o9hU3u0J18-2">
          <mxGeometry y="160" width="480" height="30" as="geometry" />
        </mxCell>
        <mxCell id="m2DlXGx4T2o9hU3u0J18-20" style="shape=partialRectangle;html=1;whiteSpace=wrap;connectable=0;fillColor=none;top=0;left=0;bottom=0;right=0;overflow=hidden;strokeColor=inherit;fontSize=16;" vertex="1" parent="m2DlXGx4T2o9hU3u0J18-19">
          <mxGeometry width="60" height="30" as="geometry">
            <mxRectangle width="60" height="30" as="alternateBounds" />
          </mxGeometry>
        </mxCell>
        <mxCell id="m2DlXGx4T2o9hU3u0J18-21" style="shape=partialRectangle;html=1;whiteSpace=wrap;connectable=0;fillColor=none;top=0;left=0;bottom=0;right=0;align=left;spacingLeft=6;overflow=hidden;strokeColor=inherit;fontSize=16;" vertex="1" parent="m2DlXGx4T2o9hU3u0J18-19">
          <mxGeometry x="60" width="369" height="30" as="geometry">
            <mxRectangle width="369" height="30" as="alternateBounds" />
          </mxGeometry>
        </mxCell>
        <mxCell id="m2DlXGx4T2o9hU3u0J18-22" style="shape=partialRectangle;html=1;whiteSpace=wrap;connectable=0;fillColor=none;top=0;left=0;bottom=0;right=0;align=left;spacingLeft=6;overflow=hidden;strokeColor=inherit;fontSize=16;" vertex="1" parent="m2DlXGx4T2o9hU3u0J18-19">
          <mxGeometry x="429" width="51" height="30" as="geometry">
            <mxRectangle width="51" height="30" as="alternateBounds" />
          </mxGeometry>
        </mxCell>
        <mxCell id="m2DlXGx4T2o9hU3u0J18-25" value="Financial Tables" style="text;html=1;align=center;verticalAlign=middle;resizable=0;points=[];autosize=1;strokeColor=#82b366;fillColor=#d5e8d4;fontSize=33;fontStyle=1" vertex="1" parent="1">
          <mxGeometry x="270" y="-1080" width="280" height="50" as="geometry" />
        </mxCell>
        <mxCell id="m2DlXGx4T2o9hU3u0J18-26" value="Customer" style="text;html=1;align=center;verticalAlign=middle;resizable=0;points=[];autosize=1;strokeColor=#6c8ebf;fillColor=#dae8fc;fontSize=33;fontStyle=1" vertex="1" parent="1">
          <mxGeometry x="-770" y="-1080" width="180" height="50" as="geometry" />
        </mxCell>
        <mxCell id="m2DlXGx4T2o9hU3u0J18-27" value="CUSTOMER" style="shape=table;startSize=30;container=1;collapsible=0;childLayout=tableLayout;fixedRows=1;rowLines=0;fontStyle=0;strokeColor=#6c8ebf;fontSize=16;fillColor=#dae8fc;" vertex="1" parent="1">
          <mxGeometry x="-830" y="-960" width="480" height="170" as="geometry" />
        </mxCell>
        <mxCell id="m2DlXGx4T2o9hU3u0J18-28" value="" style="shape=tableRow;horizontal=0;startSize=0;swimlaneHead=0;swimlaneBody=0;top=0;left=0;bottom=0;right=0;collapsible=0;dropTarget=0;fillColor=none;points=[[0,0.5],[1,0.5]];portConstraint=eastwest;strokeColor=inherit;fontSize=16;" vertex="1" parent="m2DlXGx4T2o9hU3u0J18-27">
          <mxGeometry y="30" width="480" height="30" as="geometry" />
        </mxCell>
        <mxCell id="m2DlXGx4T2o9hU3u0J18-29" value="1" style="shape=partialRectangle;html=1;whiteSpace=wrap;connectable=0;fillColor=none;top=0;left=0;bottom=0;right=0;overflow=hidden;pointerEvents=1;strokeColor=inherit;fontSize=16;" vertex="1" parent="m2DlXGx4T2o9hU3u0J18-28">
          <mxGeometry width="61" height="30" as="geometry">
            <mxRectangle width="61" height="30" as="alternateBounds" />
          </mxGeometry>
        </mxCell>
        <mxCell id="m2DlXGx4T2o9hU3u0J18-30" value="ID" style="shape=partialRectangle;html=1;whiteSpace=wrap;connectable=0;fillColor=none;top=0;left=0;bottom=0;right=0;align=left;spacingLeft=6;overflow=hidden;strokeColor=inherit;fontSize=16;" vertex="1" parent="m2DlXGx4T2o9hU3u0J18-28">
          <mxGeometry x="61" width="368" height="30" as="geometry">
            <mxRectangle width="368" height="30" as="alternateBounds" />
          </mxGeometry>
        </mxCell>
        <mxCell id="m2DlXGx4T2o9hU3u0J18-31" style="shape=partialRectangle;html=1;whiteSpace=wrap;connectable=0;fillColor=none;top=0;left=0;bottom=0;right=0;align=left;spacingLeft=6;overflow=hidden;strokeColor=inherit;fontSize=16;" vertex="1" parent="m2DlXGx4T2o9hU3u0J18-28">
          <mxGeometry x="429" width="51" height="30" as="geometry">
            <mxRectangle width="51" height="30" as="alternateBounds" />
          </mxGeometry>
        </mxCell>
        <mxCell id="m2DlXGx4T2o9hU3u0J18-32" style="shape=tableRow;horizontal=0;startSize=0;swimlaneHead=0;swimlaneBody=0;top=0;left=0;bottom=0;right=0;collapsible=0;dropTarget=0;fillColor=none;points=[[0,0.5],[1,0.5]];portConstraint=eastwest;strokeColor=inherit;fontSize=16;" vertex="1" parent="m2DlXGx4T2o9hU3u0J18-27">
          <mxGeometry y="60" width="480" height="40" as="geometry" />
        </mxCell>
        <mxCell id="m2DlXGx4T2o9hU3u0J18-33" value="2" style="shape=partialRectangle;html=1;whiteSpace=wrap;connectable=0;fillColor=none;top=0;left=0;bottom=0;right=0;overflow=hidden;strokeColor=inherit;fontSize=16;" vertex="1" parent="m2DlXGx4T2o9hU3u0J18-32">
          <mxGeometry width="61" height="40" as="geometry">
            <mxRectangle width="61" height="40" as="alternateBounds" />
          </mxGeometry>
        </mxCell>
        <mxCell id="m2DlXGx4T2o9hU3u0J18-34" value="CIF" style="shape=partialRectangle;html=1;whiteSpace=wrap;connectable=0;fillColor=none;top=0;left=0;bottom=0;right=0;align=left;spacingLeft=6;overflow=hidden;strokeColor=inherit;fontSize=16;" vertex="1" parent="m2DlXGx4T2o9hU3u0J18-32">
          <mxGeometry x="61" width="368" height="40" as="geometry">
            <mxRectangle width="368" height="40" as="alternateBounds" />
          </mxGeometry>
        </mxCell>
        <mxCell id="m2DlXGx4T2o9hU3u0J18-35" style="shape=partialRectangle;html=1;whiteSpace=wrap;connectable=0;fillColor=none;top=0;left=0;bottom=0;right=0;align=left;spacingLeft=6;overflow=hidden;strokeColor=inherit;fontSize=16;" vertex="1" parent="m2DlXGx4T2o9hU3u0J18-32">
          <mxGeometry x="429" width="51" height="40" as="geometry">
            <mxRectangle width="51" height="40" as="alternateBounds" />
          </mxGeometry>
        </mxCell>
        <mxCell id="m2DlXGx4T2o9hU3u0J18-36" style="shape=tableRow;horizontal=0;startSize=0;swimlaneHead=0;swimlaneBody=0;top=0;left=0;bottom=0;right=0;collapsible=0;dropTarget=0;fillColor=none;points=[[0,0.5],[1,0.5]];portConstraint=eastwest;strokeColor=inherit;fontSize=16;" vertex="1" parent="m2DlXGx4T2o9hU3u0J18-27">
          <mxGeometry y="100" width="480" height="30" as="geometry" />
        </mxCell>
        <mxCell id="m2DlXGx4T2o9hU3u0J18-37" value="3" style="shape=partialRectangle;html=1;whiteSpace=wrap;connectable=0;fillColor=none;top=0;left=0;bottom=0;right=0;overflow=hidden;strokeColor=inherit;fontSize=16;" vertex="1" parent="m2DlXGx4T2o9hU3u0J18-36">
          <mxGeometry width="61" height="30" as="geometry">
            <mxRectangle width="61" height="30" as="alternateBounds" />
          </mxGeometry>
        </mxCell>
        <mxCell id="m2DlXGx4T2o9hU3u0J18-38" value="NAME" style="shape=partialRectangle;html=1;whiteSpace=wrap;connectable=0;fillColor=none;top=0;left=0;bottom=0;right=0;align=left;spacingLeft=6;overflow=hidden;strokeColor=inherit;fontSize=16;" vertex="1" parent="m2DlXGx4T2o9hU3u0J18-36">
          <mxGeometry x="61" width="368" height="30" as="geometry">
            <mxRectangle width="368" height="30" as="alternateBounds" />
          </mxGeometry>
        </mxCell>
        <mxCell id="m2DlXGx4T2o9hU3u0J18-39" style="shape=partialRectangle;html=1;whiteSpace=wrap;connectable=0;fillColor=none;top=0;left=0;bottom=0;right=0;align=left;spacingLeft=6;overflow=hidden;strokeColor=inherit;fontSize=16;" vertex="1" parent="m2DlXGx4T2o9hU3u0J18-36">
          <mxGeometry x="429" width="51" height="30" as="geometry">
            <mxRectangle width="51" height="30" as="alternateBounds" />
          </mxGeometry>
        </mxCell>
        <mxCell id="m2DlXGx4T2o9hU3u0J18-40" style="shape=tableRow;horizontal=0;startSize=0;swimlaneHead=0;swimlaneBody=0;top=0;left=0;bottom=0;right=0;collapsible=0;dropTarget=0;fillColor=none;points=[[0,0.5],[1,0.5]];portConstraint=eastwest;strokeColor=inherit;fontSize=16;" vertex="1" parent="m2DlXGx4T2o9hU3u0J18-27">
          <mxGeometry y="130" width="480" height="20" as="geometry" />
        </mxCell>
        <mxCell id="m2DlXGx4T2o9hU3u0J18-41" value="4" style="shape=partialRectangle;html=1;whiteSpace=wrap;connectable=0;fillColor=none;top=0;left=0;bottom=0;right=0;overflow=hidden;strokeColor=inherit;fontSize=16;" vertex="1" parent="m2DlXGx4T2o9hU3u0J18-40">
          <mxGeometry width="61" height="20" as="geometry">
            <mxRectangle width="61" height="20" as="alternateBounds" />
          </mxGeometry>
        </mxCell>
        <mxCell id="m2DlXGx4T2o9hU3u0J18-42" value="" style="shape=partialRectangle;html=1;whiteSpace=wrap;connectable=0;fillColor=none;top=0;left=0;bottom=0;right=0;align=left;spacingLeft=6;overflow=hidden;strokeColor=inherit;fontSize=16;" vertex="1" parent="m2DlXGx4T2o9hU3u0J18-40">
          <mxGeometry x="61" width="368" height="20" as="geometry">
            <mxRectangle width="368" height="20" as="alternateBounds" />
          </mxGeometry>
        </mxCell>
        <mxCell id="m2DlXGx4T2o9hU3u0J18-43" style="shape=partialRectangle;html=1;whiteSpace=wrap;connectable=0;fillColor=none;top=0;left=0;bottom=0;right=0;align=left;spacingLeft=6;overflow=hidden;strokeColor=inherit;fontSize=16;" vertex="1" parent="m2DlXGx4T2o9hU3u0J18-40">
          <mxGeometry x="429" width="51" height="20" as="geometry">
            <mxRectangle width="51" height="20" as="alternateBounds" />
          </mxGeometry>
        </mxCell>
        <mxCell id="m2DlXGx4T2o9hU3u0J18-44" value="" style="shape=tableRow;horizontal=0;startSize=0;swimlaneHead=0;swimlaneBody=0;top=0;left=0;bottom=0;right=0;collapsible=0;dropTarget=0;fillColor=none;points=[[0,0.5],[1,0.5]];portConstraint=eastwest;strokeColor=inherit;fontSize=16;" vertex="1" parent="m2DlXGx4T2o9hU3u0J18-27">
          <mxGeometry y="150" width="480" height="20" as="geometry" />
        </mxCell>
        <mxCell id="m2DlXGx4T2o9hU3u0J18-45" value="3" style="shape=partialRectangle;html=1;whiteSpace=wrap;connectable=0;fillColor=none;top=0;left=0;bottom=0;right=0;overflow=hidden;strokeColor=inherit;fontSize=16;" vertex="1" parent="m2DlXGx4T2o9hU3u0J18-44">
          <mxGeometry width="61" height="20" as="geometry">
            <mxRectangle width="61" height="20" as="alternateBounds" />
          </mxGeometry>
        </mxCell>
        <mxCell id="m2DlXGx4T2o9hU3u0J18-46" value="" style="shape=partialRectangle;html=1;whiteSpace=wrap;connectable=0;fillColor=none;top=0;left=0;bottom=0;right=0;align=left;spacingLeft=6;overflow=hidden;strokeColor=inherit;fontSize=16;" vertex="1" parent="m2DlXGx4T2o9hU3u0J18-44">
          <mxGeometry x="61" width="368" height="20" as="geometry">
            <mxRectangle width="368" height="20" as="alternateBounds" />
          </mxGeometry>
        </mxCell>
        <mxCell id="m2DlXGx4T2o9hU3u0J18-47" style="shape=partialRectangle;html=1;whiteSpace=wrap;connectable=0;fillColor=none;top=0;left=0;bottom=0;right=0;align=left;spacingLeft=6;overflow=hidden;strokeColor=inherit;fontSize=16;" vertex="1" parent="m2DlXGx4T2o9hU3u0J18-44">
          <mxGeometry x="429" width="51" height="20" as="geometry">
            <mxRectangle width="51" height="20" as="alternateBounds" />
          </mxGeometry>
        </mxCell>
      </root>
    </mxGraphModel>
  </diagram>
</mxfile>
